%TF.GenerationSoftware,KiCad,Pcbnew,9.0.4*%
%TF.CreationDate,2025-10-13T19:45:32-07:00*%
%TF.ProjectId,MouseTrapToF-Cam1.1,4d6f7573-6554-4726-9170-546f462d4361,rev?*%
%TF.SameCoordinates,Original*%
%TF.FileFunction,Soldermask,Top*%
%TF.FilePolarity,Negative*%
%FSLAX46Y46*%
G04 Gerber Fmt 4.6, Leading zero omitted, Abs format (unit mm)*
G04 Created by KiCad (PCBNEW 9.0.4) date 2025-10-13 19:45:32*
%MOMM*%
%LPD*%
G01*
G04 APERTURE LIST*
G04 Aperture macros list*
%AMRoundRect*
0 Rectangle with rounded corners*
0 $1 Rounding radius*
0 $2 $3 $4 $5 $6 $7 $8 $9 X,Y pos of 4 corners*
0 Add a 4 corners polygon primitive as box body*
4,1,4,$2,$3,$4,$5,$6,$7,$8,$9,$2,$3,0*
0 Add four circle primitives for the rounded corners*
1,1,$1+$1,$2,$3*
1,1,$1+$1,$4,$5*
1,1,$1+$1,$6,$7*
1,1,$1+$1,$8,$9*
0 Add four rect primitives between the rounded corners*
20,1,$1+$1,$2,$3,$4,$5,0*
20,1,$1+$1,$4,$5,$6,$7,0*
20,1,$1+$1,$6,$7,$8,$9,0*
20,1,$1+$1,$8,$9,$2,$3,0*%
G04 Aperture macros list end*
%ADD10C,6.400000*%
%ADD11RoundRect,0.250000X-0.300000X0.300000X-0.300000X-0.300000X0.300000X-0.300000X0.300000X0.300000X0*%
%ADD12RoundRect,0.150000X-0.150000X0.512500X-0.150000X-0.512500X0.150000X-0.512500X0.150000X0.512500X0*%
%ADD13RoundRect,0.200000X0.200000X0.275000X-0.200000X0.275000X-0.200000X-0.275000X0.200000X-0.275000X0*%
%ADD14RoundRect,0.200000X-0.200000X-0.275000X0.200000X-0.275000X0.200000X0.275000X-0.200000X0.275000X0*%
%ADD15RoundRect,0.218750X-0.218750X-0.256250X0.218750X-0.256250X0.218750X0.256250X-0.218750X0.256250X0*%
%ADD16RoundRect,0.135000X0.135000X0.185000X-0.135000X0.185000X-0.135000X-0.185000X0.135000X-0.185000X0*%
%ADD17RoundRect,0.225000X0.250000X-0.225000X0.250000X0.225000X-0.250000X0.225000X-0.250000X-0.225000X0*%
%ADD18RoundRect,0.225000X-0.250000X0.225000X-0.250000X-0.225000X0.250000X-0.225000X0.250000X0.225000X0*%
%ADD19RoundRect,0.225000X-0.225000X-0.250000X0.225000X-0.250000X0.225000X0.250000X-0.225000X0.250000X0*%
%ADD20RoundRect,0.070000X-0.355000X-0.070000X0.355000X-0.070000X0.355000X0.070000X-0.355000X0.070000X0*%
%ADD21R,0.280000X0.700000*%
%ADD22R,1.650000X2.400000*%
%ADD23C,0.650000*%
%ADD24R,1.450000X0.600000*%
%ADD25R,1.450000X0.300000*%
%ADD26O,2.100000X1.000000*%
%ADD27O,1.600000X1.000000*%
%ADD28RoundRect,0.135000X0.185000X-0.135000X0.185000X0.135000X-0.185000X0.135000X-0.185000X-0.135000X0*%
%ADD29RoundRect,0.245000X-0.245000X-1.455000X0.245000X-1.455000X0.245000X1.455000X-0.245000X1.455000X0*%
%ADD30RoundRect,0.250000X0.250000X0.475000X-0.250000X0.475000X-0.250000X-0.475000X0.250000X-0.475000X0*%
%ADD31RoundRect,0.200000X0.275000X-0.200000X0.275000X0.200000X-0.275000X0.200000X-0.275000X-0.200000X0*%
%ADD32RoundRect,0.150000X0.150000X-0.512500X0.150000X0.512500X-0.150000X0.512500X-0.150000X-0.512500X0*%
%ADD33C,2.250000*%
%ADD34R,2.250000X2.250000*%
%ADD35C,1.800000*%
%ADD36R,1.800000X1.800000*%
%ADD37RoundRect,0.250000X-0.650000X0.325000X-0.650000X-0.325000X0.650000X-0.325000X0.650000X0.325000X0*%
%ADD38RoundRect,0.200000X-0.275000X0.200000X-0.275000X-0.200000X0.275000X-0.200000X0.275000X0.200000X0*%
%ADD39RoundRect,0.250000X-0.850000X-0.350000X0.850000X-0.350000X0.850000X0.350000X-0.850000X0.350000X0*%
%ADD40RoundRect,0.249997X-2.950003X-2.650003X2.950003X-2.650003X2.950003X2.650003X-2.950003X2.650003X0*%
%ADD41R,2.000000X2.000000*%
%ADD42C,2.000000*%
%ADD43R,2.500000X1.800000*%
%ADD44R,2.700000X3.500000*%
%ADD45C,5.700000*%
G04 APERTURE END LIST*
D10*
%TO.C,REF\u002A\u002A*%
X161810000Y-75400000D03*
%TD*%
%TO.C,REF\u002A\u002A*%
X108340000Y-17970000D03*
%TD*%
D11*
%TO.C,D3*%
X114423750Y-65300000D03*
X114423750Y-62500000D03*
%TD*%
D12*
%TO.C,U3*%
X117880000Y-68550000D03*
X116930000Y-68550000D03*
X115980000Y-68550000D03*
X115980000Y-70825000D03*
X116930000Y-70825000D03*
X117880000Y-70825000D03*
%TD*%
D13*
%TO.C,R7*%
X132545000Y-77580000D03*
X130895000Y-77580000D03*
%TD*%
%TO.C,R6*%
X113755000Y-74350000D03*
X115405000Y-74350000D03*
%TD*%
D14*
%TO.C,R11*%
X110605000Y-74400000D03*
X112255000Y-74400000D03*
%TD*%
D15*
%TO.C,FB1*%
X117892500Y-65400000D03*
X119467500Y-65400000D03*
%TD*%
D16*
%TO.C,R5*%
X114790000Y-71800000D03*
X113770000Y-71800000D03*
%TD*%
D17*
%TO.C,C_J1*%
X116380000Y-63825000D03*
X116380000Y-65375000D03*
%TD*%
D18*
%TO.C,C2*%
X120895000Y-65415000D03*
X120895000Y-66965000D03*
%TD*%
D19*
%TO.C,C4*%
X106830000Y-74400000D03*
X108380000Y-74400000D03*
%TD*%
D16*
%TO.C,R4*%
X114840000Y-66900000D03*
X113820000Y-66900000D03*
%TD*%
D20*
%TO.C,U4*%
X122325000Y-64310000D03*
X122325000Y-64810000D03*
X122325000Y-65310000D03*
X122325000Y-65810000D03*
X122325000Y-66310000D03*
X125275000Y-66310000D03*
X125275000Y-65810000D03*
X125275000Y-65310000D03*
X125275000Y-64810000D03*
X125275000Y-64310000D03*
D21*
X123550000Y-63760000D03*
X123550000Y-66860000D03*
D22*
X123800000Y-65310000D03*
D21*
X124050000Y-63760000D03*
X124050000Y-66860000D03*
%TD*%
D23*
%TO.C,J1*%
X110450000Y-64980000D03*
X110450000Y-70760000D03*
D24*
X111895000Y-64620000D03*
X111895000Y-65420000D03*
D25*
X111895000Y-66620000D03*
X111895000Y-67620000D03*
X111895000Y-68120000D03*
X111895000Y-69120000D03*
D24*
X111895000Y-70320000D03*
X111895000Y-71120000D03*
X111895000Y-71120000D03*
X111895000Y-70320000D03*
D25*
X111895000Y-69620000D03*
X111895000Y-68620000D03*
X111895000Y-67120000D03*
X111895000Y-66120000D03*
D24*
X111895000Y-65420000D03*
X111895000Y-64620000D03*
D26*
X110980000Y-63550000D03*
D27*
X106800000Y-63550000D03*
D26*
X110980000Y-72190000D03*
D27*
X106800000Y-72190000D03*
%TD*%
D14*
%TO.C,R_GPD1*%
X158905000Y-37020000D03*
X157255000Y-37020000D03*
%TD*%
%TO.C,R_GATE1*%
X155585000Y-35440000D03*
X157235000Y-35440000D03*
%TD*%
D28*
%TO.C,R9*%
X121152500Y-70370000D03*
X121152500Y-69350000D03*
%TD*%
%TO.C,R10*%
X122142500Y-70370000D03*
X122142500Y-69350000D03*
%TD*%
D14*
%TO.C,R3*%
X125915000Y-56030000D03*
X124265000Y-56030000D03*
%TD*%
D29*
%TO.C,L1*%
X125320000Y-76000000D03*
X122950000Y-76000000D03*
%TD*%
D14*
%TO.C,R_BOOT1*%
X157950000Y-64025000D03*
X156300000Y-64025000D03*
%TD*%
D30*
%TO.C,C3*%
X124020000Y-33050000D03*
X125920000Y-33050000D03*
%TD*%
D31*
%TO.C,R8*%
X125280000Y-60805000D03*
X125280000Y-62455000D03*
%TD*%
D14*
%TO.C,R2*%
X125965000Y-58980000D03*
X124315000Y-58980000D03*
%TD*%
%TO.C,R_RST1*%
X125545000Y-29840000D03*
X123895000Y-29840000D03*
%TD*%
D19*
%TO.C,C_BTN1*%
X159285000Y-39120000D03*
X157735000Y-39120000D03*
%TD*%
D30*
%TO.C,C8*%
X123395000Y-68460000D03*
X125295000Y-68460000D03*
%TD*%
D32*
%TO.C,U5*%
X123402500Y-70380000D03*
X125302500Y-70380000D03*
X125302500Y-72655000D03*
X124352500Y-72655000D03*
X123402500Y-72655000D03*
%TD*%
D33*
%TO.C,SW1*%
X110880000Y-24120000D03*
D34*
X117380000Y-24120000D03*
%TD*%
D35*
%TO.C,D1*%
X160945000Y-19290000D03*
D36*
X163485000Y-19290000D03*
%TD*%
D37*
%TO.C,C1*%
X122330000Y-62290000D03*
X122330000Y-59340000D03*
%TD*%
D38*
%TO.C,R1*%
X155650000Y-33875000D03*
X155650000Y-32225000D03*
%TD*%
D31*
%TO.C,R_BTN1*%
X123940000Y-25995000D03*
X123940000Y-27645000D03*
%TD*%
D38*
%TO.C,R_SER1*%
X155690000Y-39125000D03*
X155690000Y-37475000D03*
%TD*%
D39*
%TO.C,Q2*%
X113495000Y-39225000D03*
D40*
X119795000Y-36945000D03*
D39*
X113495000Y-34665000D03*
%TD*%
D41*
%TO.C,U2*%
X127900000Y-75620000D03*
X127900000Y-73080000D03*
X127900000Y-70540000D03*
X127900000Y-68000000D03*
X127900000Y-65460000D03*
X127900000Y-62920000D03*
X127900000Y-60380000D03*
X127900000Y-57840000D03*
X127900000Y-55300000D03*
X127900000Y-52760000D03*
X127900000Y-50220000D03*
X127900000Y-47680000D03*
X127900000Y-45140000D03*
X127900000Y-42600000D03*
X127900000Y-40060000D03*
X127900000Y-37520000D03*
X127900000Y-34980000D03*
X127900000Y-32440000D03*
X127900000Y-29900000D03*
X127900000Y-27360000D03*
X153300000Y-75620000D03*
X153300000Y-73080000D03*
X153300000Y-70540000D03*
X153300000Y-68000000D03*
X153300000Y-65460000D03*
X153300000Y-62920000D03*
X153300000Y-60380000D03*
X153300000Y-57840000D03*
X153300000Y-55300000D03*
X153300000Y-52760000D03*
X153300000Y-50220000D03*
X153300000Y-47680000D03*
X153300000Y-45140000D03*
X153300000Y-42600000D03*
X153300000Y-40060000D03*
X153300000Y-37520000D03*
X153300000Y-34980000D03*
X153300000Y-32440000D03*
X153300000Y-29900000D03*
X153300000Y-27360000D03*
%TD*%
D42*
%TO.C,BZ1*%
X159550000Y-28850000D03*
D41*
X164550000Y-28850000D03*
%TD*%
D43*
%TO.C,J2*%
X165190000Y-58530000D03*
X165190000Y-55990000D03*
X165190000Y-53450000D03*
X165190000Y-50910000D03*
X165190000Y-48370000D03*
X165190000Y-45830000D03*
%TD*%
D44*
%TO.C,D2*%
X118065000Y-43330000D03*
X120765000Y-56030000D03*
D45*
X119415000Y-49680000D03*
%TD*%
M02*
