%TF.GenerationSoftware,KiCad,Pcbnew,9.0.4*%
%TF.CreationDate,2025-10-14T10:33:39-07:00*%
%TF.ProjectId,MouseTrapToF-Cam1.1,4d6f7573-6554-4726-9170-546f462d4361,rev?*%
%TF.SameCoordinates,Original*%
%TF.FileFunction,Legend,Top*%
%TF.FilePolarity,Positive*%
%FSLAX46Y46*%
G04 Gerber Fmt 4.6, Leading zero omitted, Abs format (unit mm)*
G04 Created by KiCad (PCBNEW 9.0.4) date 2025-10-14 10:33:39*
%MOMM*%
%LPD*%
G01*
G04 APERTURE LIST*
G04 Aperture macros list*
%AMRoundRect*
0 Rectangle with rounded corners*
0 $1 Rounding radius*
0 $2 $3 $4 $5 $6 $7 $8 $9 X,Y pos of 4 corners*
0 Add a 4 corners polygon primitive as box body*
4,1,4,$2,$3,$4,$5,$6,$7,$8,$9,$2,$3,0*
0 Add four circle primitives for the rounded corners*
1,1,$1+$1,$2,$3*
1,1,$1+$1,$4,$5*
1,1,$1+$1,$6,$7*
1,1,$1+$1,$8,$9*
0 Add four rect primitives between the rounded corners*
20,1,$1+$1,$2,$3,$4,$5,0*
20,1,$1+$1,$4,$5,$6,$7,0*
20,1,$1+$1,$6,$7,$8,$9,0*
20,1,$1+$1,$8,$9,$2,$3,0*%
G04 Aperture macros list end*
%ADD10C,0.150000*%
%ADD11C,0.100000*%
%ADD12C,0.120000*%
%ADD13C,6.400000*%
%ADD14RoundRect,0.250000X-0.300000X0.300000X-0.300000X-0.300000X0.300000X-0.300000X0.300000X0.300000X0*%
%ADD15RoundRect,0.150000X-0.150000X0.512500X-0.150000X-0.512500X0.150000X-0.512500X0.150000X0.512500X0*%
%ADD16RoundRect,0.200000X0.200000X0.275000X-0.200000X0.275000X-0.200000X-0.275000X0.200000X-0.275000X0*%
%ADD17RoundRect,0.200000X-0.200000X-0.275000X0.200000X-0.275000X0.200000X0.275000X-0.200000X0.275000X0*%
%ADD18RoundRect,0.218750X-0.218750X-0.256250X0.218750X-0.256250X0.218750X0.256250X-0.218750X0.256250X0*%
%ADD19RoundRect,0.135000X0.135000X0.185000X-0.135000X0.185000X-0.135000X-0.185000X0.135000X-0.185000X0*%
%ADD20RoundRect,0.225000X0.250000X-0.225000X0.250000X0.225000X-0.250000X0.225000X-0.250000X-0.225000X0*%
%ADD21RoundRect,0.225000X-0.250000X0.225000X-0.250000X-0.225000X0.250000X-0.225000X0.250000X0.225000X0*%
%ADD22RoundRect,0.225000X-0.225000X-0.250000X0.225000X-0.250000X0.225000X0.250000X-0.225000X0.250000X0*%
%ADD23RoundRect,0.070000X-0.355000X-0.070000X0.355000X-0.070000X0.355000X0.070000X-0.355000X0.070000X0*%
%ADD24R,0.280000X0.700000*%
%ADD25R,1.650000X2.400000*%
%ADD26C,0.650000*%
%ADD27R,1.450000X0.600000*%
%ADD28R,1.450000X0.300000*%
%ADD29O,2.100000X1.000000*%
%ADD30O,1.600000X1.000000*%
%ADD31RoundRect,0.135000X0.185000X-0.135000X0.185000X0.135000X-0.185000X0.135000X-0.185000X-0.135000X0*%
%ADD32RoundRect,0.245000X-0.245000X-1.455000X0.245000X-1.455000X0.245000X1.455000X-0.245000X1.455000X0*%
%ADD33RoundRect,0.250000X0.250000X0.475000X-0.250000X0.475000X-0.250000X-0.475000X0.250000X-0.475000X0*%
%ADD34RoundRect,0.200000X0.275000X-0.200000X0.275000X0.200000X-0.275000X0.200000X-0.275000X-0.200000X0*%
%ADD35RoundRect,0.150000X0.150000X-0.512500X0.150000X0.512500X-0.150000X0.512500X-0.150000X-0.512500X0*%
%ADD36C,2.250000*%
%ADD37R,2.250000X2.250000*%
%ADD38C,1.800000*%
%ADD39R,1.800000X1.800000*%
%ADD40RoundRect,0.250000X-0.650000X0.325000X-0.650000X-0.325000X0.650000X-0.325000X0.650000X0.325000X0*%
%ADD41RoundRect,0.200000X-0.275000X0.200000X-0.275000X-0.200000X0.275000X-0.200000X0.275000X0.200000X0*%
%ADD42RoundRect,0.250000X-0.850000X-0.350000X0.850000X-0.350000X0.850000X0.350000X-0.850000X0.350000X0*%
%ADD43RoundRect,0.249997X-2.950003X-2.650003X2.950003X-2.650003X2.950003X2.650003X-2.950003X2.650003X0*%
%ADD44R,2.000000X2.000000*%
%ADD45C,2.000000*%
%ADD46R,2.500000X1.800000*%
%ADD47R,2.700000X3.500000*%
%ADD48C,5.700000*%
G04 APERTURE END LIST*
D10*
X113785655Y-61354819D02*
X113785655Y-60354819D01*
X113785655Y-60354819D02*
X114023750Y-60354819D01*
X114023750Y-60354819D02*
X114166607Y-60402438D01*
X114166607Y-60402438D02*
X114261845Y-60497676D01*
X114261845Y-60497676D02*
X114309464Y-60592914D01*
X114309464Y-60592914D02*
X114357083Y-60783390D01*
X114357083Y-60783390D02*
X114357083Y-60926247D01*
X114357083Y-60926247D02*
X114309464Y-61116723D01*
X114309464Y-61116723D02*
X114261845Y-61211961D01*
X114261845Y-61211961D02*
X114166607Y-61307200D01*
X114166607Y-61307200D02*
X114023750Y-61354819D01*
X114023750Y-61354819D02*
X113785655Y-61354819D01*
X114690417Y-60354819D02*
X115309464Y-60354819D01*
X115309464Y-60354819D02*
X114976131Y-60735771D01*
X114976131Y-60735771D02*
X115118988Y-60735771D01*
X115118988Y-60735771D02*
X115214226Y-60783390D01*
X115214226Y-60783390D02*
X115261845Y-60831009D01*
X115261845Y-60831009D02*
X115309464Y-60926247D01*
X115309464Y-60926247D02*
X115309464Y-61164342D01*
X115309464Y-61164342D02*
X115261845Y-61259580D01*
X115261845Y-61259580D02*
X115214226Y-61307200D01*
X115214226Y-61307200D02*
X115118988Y-61354819D01*
X115118988Y-61354819D02*
X114833274Y-61354819D01*
X114833274Y-61354819D02*
X114738036Y-61307200D01*
X114738036Y-61307200D02*
X114690417Y-61259580D01*
X116689580Y-62278571D02*
X116737200Y-62326190D01*
X116737200Y-62326190D02*
X116784819Y-62469047D01*
X116784819Y-62469047D02*
X116784819Y-62564285D01*
X116784819Y-62564285D02*
X116737200Y-62707142D01*
X116737200Y-62707142D02*
X116641961Y-62802380D01*
X116641961Y-62802380D02*
X116546723Y-62849999D01*
X116546723Y-62849999D02*
X116356247Y-62897618D01*
X116356247Y-62897618D02*
X116213390Y-62897618D01*
X116213390Y-62897618D02*
X116022914Y-62849999D01*
X116022914Y-62849999D02*
X115927676Y-62802380D01*
X115927676Y-62802380D02*
X115832438Y-62707142D01*
X115832438Y-62707142D02*
X115784819Y-62564285D01*
X115784819Y-62564285D02*
X115784819Y-62469047D01*
X115784819Y-62469047D02*
X115832438Y-62326190D01*
X115832438Y-62326190D02*
X115880057Y-62278571D01*
X116880057Y-62088095D02*
X116880057Y-61326190D01*
X115784819Y-60802380D02*
X116499104Y-60802380D01*
X116499104Y-60802380D02*
X116641961Y-60849999D01*
X116641961Y-60849999D02*
X116737200Y-60945237D01*
X116737200Y-60945237D02*
X116784819Y-61088094D01*
X116784819Y-61088094D02*
X116784819Y-61183332D01*
X116784819Y-59802380D02*
X116784819Y-60373808D01*
X116784819Y-60088094D02*
X115784819Y-60088094D01*
X115784819Y-60088094D02*
X115927676Y-60183332D01*
X115927676Y-60183332D02*
X116022914Y-60278570D01*
X116022914Y-60278570D02*
X116070533Y-60373808D01*
X157534819Y-33216666D02*
X157058628Y-33549999D01*
X157534819Y-33788094D02*
X156534819Y-33788094D01*
X156534819Y-33788094D02*
X156534819Y-33407142D01*
X156534819Y-33407142D02*
X156582438Y-33311904D01*
X156582438Y-33311904D02*
X156630057Y-33264285D01*
X156630057Y-33264285D02*
X156725295Y-33216666D01*
X156725295Y-33216666D02*
X156868152Y-33216666D01*
X156868152Y-33216666D02*
X156963390Y-33264285D01*
X156963390Y-33264285D02*
X157011009Y-33311904D01*
X157011009Y-33311904D02*
X157058628Y-33407142D01*
X157058628Y-33407142D02*
X157058628Y-33788094D01*
X157534819Y-32264285D02*
X157534819Y-32835713D01*
X157534819Y-32549999D02*
X156534819Y-32549999D01*
X156534819Y-32549999D02*
X156677676Y-32645237D01*
X156677676Y-32645237D02*
X156772914Y-32740475D01*
X156772914Y-32740475D02*
X156820533Y-32835713D01*
X118439761Y-32995057D02*
X118344523Y-32947438D01*
X118344523Y-32947438D02*
X118249285Y-32852200D01*
X118249285Y-32852200D02*
X118106428Y-32709342D01*
X118106428Y-32709342D02*
X118011190Y-32661723D01*
X118011190Y-32661723D02*
X117915952Y-32661723D01*
X117963571Y-32899819D02*
X117868333Y-32852200D01*
X117868333Y-32852200D02*
X117773095Y-32756961D01*
X117773095Y-32756961D02*
X117725476Y-32566485D01*
X117725476Y-32566485D02*
X117725476Y-32233152D01*
X117725476Y-32233152D02*
X117773095Y-32042676D01*
X117773095Y-32042676D02*
X117868333Y-31947438D01*
X117868333Y-31947438D02*
X117963571Y-31899819D01*
X117963571Y-31899819D02*
X118154047Y-31899819D01*
X118154047Y-31899819D02*
X118249285Y-31947438D01*
X118249285Y-31947438D02*
X118344523Y-32042676D01*
X118344523Y-32042676D02*
X118392142Y-32233152D01*
X118392142Y-32233152D02*
X118392142Y-32566485D01*
X118392142Y-32566485D02*
X118344523Y-32756961D01*
X118344523Y-32756961D02*
X118249285Y-32852200D01*
X118249285Y-32852200D02*
X118154047Y-32899819D01*
X118154047Y-32899819D02*
X117963571Y-32899819D01*
X118773095Y-31995057D02*
X118820714Y-31947438D01*
X118820714Y-31947438D02*
X118915952Y-31899819D01*
X118915952Y-31899819D02*
X119154047Y-31899819D01*
X119154047Y-31899819D02*
X119249285Y-31947438D01*
X119249285Y-31947438D02*
X119296904Y-31995057D01*
X119296904Y-31995057D02*
X119344523Y-32090295D01*
X119344523Y-32090295D02*
X119344523Y-32185533D01*
X119344523Y-32185533D02*
X119296904Y-32328390D01*
X119296904Y-32328390D02*
X118725476Y-32899819D01*
X118725476Y-32899819D02*
X119344523Y-32899819D01*
D11*
X130038095Y-74057419D02*
X130038095Y-74866942D01*
X130038095Y-74866942D02*
X130085714Y-74962180D01*
X130085714Y-74962180D02*
X130133333Y-75009800D01*
X130133333Y-75009800D02*
X130228571Y-75057419D01*
X130228571Y-75057419D02*
X130419047Y-75057419D01*
X130419047Y-75057419D02*
X130514285Y-75009800D01*
X130514285Y-75009800D02*
X130561904Y-74962180D01*
X130561904Y-74962180D02*
X130609523Y-74866942D01*
X130609523Y-74866942D02*
X130609523Y-74057419D01*
X131038095Y-74152657D02*
X131085714Y-74105038D01*
X131085714Y-74105038D02*
X131180952Y-74057419D01*
X131180952Y-74057419D02*
X131419047Y-74057419D01*
X131419047Y-74057419D02*
X131514285Y-74105038D01*
X131514285Y-74105038D02*
X131561904Y-74152657D01*
X131561904Y-74152657D02*
X131609523Y-74247895D01*
X131609523Y-74247895D02*
X131609523Y-74343133D01*
X131609523Y-74343133D02*
X131561904Y-74485990D01*
X131561904Y-74485990D02*
X130990476Y-75057419D01*
X130990476Y-75057419D02*
X131609523Y-75057419D01*
D10*
X161644819Y-52513333D02*
X162359104Y-52513333D01*
X162359104Y-52513333D02*
X162501961Y-52560952D01*
X162501961Y-52560952D02*
X162597200Y-52656190D01*
X162597200Y-52656190D02*
X162644819Y-52799047D01*
X162644819Y-52799047D02*
X162644819Y-52894285D01*
X161740057Y-52084761D02*
X161692438Y-52037142D01*
X161692438Y-52037142D02*
X161644819Y-51941904D01*
X161644819Y-51941904D02*
X161644819Y-51703809D01*
X161644819Y-51703809D02*
X161692438Y-51608571D01*
X161692438Y-51608571D02*
X161740057Y-51560952D01*
X161740057Y-51560952D02*
X161835295Y-51513333D01*
X161835295Y-51513333D02*
X161930533Y-51513333D01*
X161930533Y-51513333D02*
X162073390Y-51560952D01*
X162073390Y-51560952D02*
X162644819Y-52132380D01*
X162644819Y-52132380D02*
X162644819Y-51513333D01*
D12*
%TO.C,D3*%
X115423750Y-61690000D02*
X113423750Y-61690000D01*
X115423750Y-61690000D02*
X115423750Y-65550000D01*
X113423750Y-61690000D02*
X113423750Y-65550000D01*
%TO.C,U3*%
X118490000Y-69687500D02*
X118490000Y-70487500D01*
X118490000Y-69687500D02*
X118490000Y-68887500D01*
X115370000Y-69687500D02*
X115370000Y-70487500D01*
X115370000Y-69687500D02*
X115370000Y-68887500D01*
X118770000Y-68627500D02*
X118440000Y-68387500D01*
X118770000Y-68147500D01*
X118770000Y-68627500D01*
G36*
X118770000Y-68627500D02*
G01*
X118440000Y-68387500D01*
X118770000Y-68147500D01*
X118770000Y-68627500D01*
G37*
%TO.C,R7*%
X131957258Y-78102500D02*
X131482742Y-78102500D01*
X131957258Y-77057500D02*
X131482742Y-77057500D01*
%TO.C,R6*%
X114817258Y-73827500D02*
X114342742Y-73827500D01*
X114817258Y-74872500D02*
X114342742Y-74872500D01*
%TO.C,R11*%
X111192742Y-73877500D02*
X111667258Y-73877500D01*
X111192742Y-74922500D02*
X111667258Y-74922500D01*
%TO.C,FB1*%
X118517221Y-65910000D02*
X118842779Y-65910000D01*
X118517221Y-64890000D02*
X118842779Y-64890000D01*
%TO.C,R5*%
X114433641Y-71420000D02*
X114126359Y-71420000D01*
X114433641Y-72180000D02*
X114126359Y-72180000D01*
%TO.C,C_J1*%
X116890000Y-64740580D02*
X116890000Y-64459420D01*
X115870000Y-64740580D02*
X115870000Y-64459420D01*
%TO.C,C2*%
X121405000Y-66049420D02*
X121405000Y-66330580D01*
X120385000Y-66049420D02*
X120385000Y-66330580D01*
%TO.C,C4*%
X107464420Y-73890000D02*
X107745580Y-73890000D01*
X107464420Y-74910000D02*
X107745580Y-74910000D01*
%TO.C,R4*%
X114483641Y-66520000D02*
X114176359Y-66520000D01*
X114483641Y-67280000D02*
X114176359Y-67280000D01*
%TO.C,U4*%
X122200000Y-66810000D02*
X122200000Y-66910000D01*
X122200000Y-66910000D02*
X123000000Y-66910000D01*
X123000000Y-63710000D02*
X122540000Y-63710000D01*
X124600000Y-63710000D02*
X125400000Y-63710000D01*
X124600000Y-66910000D02*
X125400000Y-66910000D01*
X125400000Y-63710000D02*
X125400000Y-63810000D01*
X125400000Y-66910000D02*
X125400000Y-66810000D01*
X122200000Y-63830000D02*
X121720000Y-63830000D01*
X122200000Y-63350000D01*
X122200000Y-63830000D01*
G36*
X122200000Y-63830000D02*
G01*
X121720000Y-63830000D01*
X122200000Y-63350000D01*
X122200000Y-63830000D01*
G37*
%TO.C,J1*%
X109750000Y-63170000D02*
X107750000Y-63170000D01*
X105850000Y-63170000D02*
X103950000Y-63170000D01*
X103950000Y-63170000D02*
X103950000Y-72570000D01*
X109750000Y-72570000D02*
X107750000Y-72570000D01*
X105850000Y-72570000D02*
X103950000Y-72570000D01*
%TO.C,R_GPD1*%
X157842742Y-36497500D02*
X158317258Y-36497500D01*
X157842742Y-37542500D02*
X158317258Y-37542500D01*
%TO.C,R_GATE1*%
X156172742Y-34917500D02*
X156647258Y-34917500D01*
X156172742Y-35962500D02*
X156647258Y-35962500D01*
%TO.C,R9*%
X121532500Y-70013641D02*
X121532500Y-69706359D01*
X120772500Y-70013641D02*
X120772500Y-69706359D01*
%TO.C,R10*%
X122522500Y-70013641D02*
X122522500Y-69706359D01*
X121762500Y-70013641D02*
X121762500Y-69706359D01*
%TO.C,R3*%
X124852742Y-56552500D02*
X125327258Y-56552500D01*
X124852742Y-55507500D02*
X125327258Y-55507500D01*
%TO.C,L1*%
X121875000Y-73740000D02*
X126395000Y-73740000D01*
X121875000Y-78260000D02*
X121875000Y-73740000D01*
X126395000Y-73740000D02*
X126395000Y-78260000D01*
X126395000Y-78260000D02*
X121875000Y-78260000D01*
%TO.C,R_BOOT1*%
X156887742Y-64547500D02*
X157362258Y-64547500D01*
X156887742Y-63502500D02*
X157362258Y-63502500D01*
%TO.C,C3*%
X125231252Y-32315000D02*
X124708748Y-32315000D01*
X125231252Y-33785000D02*
X124708748Y-33785000D01*
%TO.C,R8*%
X125802500Y-61867258D02*
X125802500Y-61392742D01*
X124757500Y-61867258D02*
X124757500Y-61392742D01*
%TO.C,R2*%
X124902742Y-59502500D02*
X125377258Y-59502500D01*
X124902742Y-58457500D02*
X125377258Y-58457500D01*
%TO.C,R_RST1*%
X124482742Y-29317500D02*
X124957258Y-29317500D01*
X124482742Y-30362500D02*
X124957258Y-30362500D01*
%TO.C,C_BTN1*%
X158369420Y-39630000D02*
X158650580Y-39630000D01*
X158369420Y-38610000D02*
X158650580Y-38610000D01*
%TO.C,C8*%
X124606252Y-69195000D02*
X124083748Y-69195000D01*
X124606252Y-67725000D02*
X124083748Y-67725000D01*
%TO.C,U5*%
X122842500Y-72817500D02*
X122512500Y-73057500D01*
X122512500Y-72577500D01*
X122842500Y-72817500D01*
G36*
X122842500Y-72817500D02*
G01*
X122512500Y-73057500D01*
X122512500Y-72577500D01*
X122842500Y-72817500D01*
G37*
X125912500Y-71517500D02*
X125912500Y-72317500D01*
X125912500Y-71517500D02*
X125912500Y-70717500D01*
X122792500Y-71517500D02*
X122792500Y-72317500D01*
X122792500Y-71517500D02*
X122792500Y-70717500D01*
%TO.C,C1*%
X123240000Y-60103748D02*
X123240000Y-61526252D01*
X121420000Y-60103748D02*
X121420000Y-61526252D01*
%TO.C,R1*%
X155127500Y-32812742D02*
X155127500Y-33287258D01*
X156172500Y-32812742D02*
X156172500Y-33287258D01*
%TO.C,R_BTN1*%
X124462500Y-27057258D02*
X124462500Y-26582742D01*
X123417500Y-27057258D02*
X123417500Y-26582742D01*
%TO.C,R_SER1*%
X155167500Y-38062742D02*
X155167500Y-38537258D01*
X156212500Y-38062742D02*
X156212500Y-38537258D01*
%TO.C,Q2*%
X113495000Y-33805000D02*
X113155000Y-33335000D01*
X113835000Y-33335000D01*
X113495000Y-33805000D01*
G36*
X113495000Y-33805000D02*
G01*
X113155000Y-33335000D01*
X113835000Y-33335000D01*
X113495000Y-33805000D01*
G37*
X121645000Y-40395000D02*
X115225000Y-40395000D01*
X121645000Y-33495000D02*
X115225000Y-33495000D01*
X115225000Y-40395000D02*
X115225000Y-40125000D01*
X115225000Y-33495000D02*
X115225000Y-33765000D01*
%TO.C,J2*%
X162990000Y-44480000D02*
X167390000Y-44480000D01*
X162990000Y-59880000D02*
X162990000Y-44480000D01*
X167390000Y-44480000D02*
X167390000Y-59880000D01*
X167390000Y-59880000D02*
X162990000Y-59880000D01*
X163090000Y-58280000D02*
X162590000Y-58530000D01*
X162590000Y-58030000D01*
X163090000Y-58280000D01*
G36*
X163090000Y-58280000D02*
G01*
X162590000Y-58530000D01*
X162590000Y-58030000D01*
X163090000Y-58280000D01*
G37*
%TO.C,D2*%
X123715000Y-49680000D02*
G75*
G02*
X115115000Y-49680000I-4300000J0D01*
G01*
X115115000Y-49680000D02*
G75*
G02*
X123715000Y-49680000I4300000J0D01*
G01*
X120385000Y-45020000D02*
X119915000Y-44680000D01*
X120385000Y-44340000D01*
X120385000Y-45020000D01*
G36*
X120385000Y-45020000D02*
G01*
X119915000Y-44680000D01*
X120385000Y-44340000D01*
X120385000Y-45020000D01*
G37*
%TD*%
%LPC*%
D13*
%TO.C,REF\u002A\u002A*%
X161810000Y-75400000D03*
%TD*%
%TO.C,REF\u002A\u002A*%
X108340000Y-17970000D03*
%TD*%
D14*
%TO.C,D3*%
X114423750Y-65300000D03*
X114423750Y-62500000D03*
%TD*%
D15*
%TO.C,U3*%
X117880000Y-68550000D03*
X116930000Y-68550000D03*
X115980000Y-68550000D03*
X115980000Y-70825000D03*
X116930000Y-70825000D03*
X117880000Y-70825000D03*
%TD*%
D16*
%TO.C,R7*%
X132545000Y-77580000D03*
X130895000Y-77580000D03*
%TD*%
%TO.C,R6*%
X113755000Y-74350000D03*
X115405000Y-74350000D03*
%TD*%
D17*
%TO.C,R11*%
X110605000Y-74400000D03*
X112255000Y-74400000D03*
%TD*%
D18*
%TO.C,FB1*%
X117892500Y-65400000D03*
X119467500Y-65400000D03*
%TD*%
D19*
%TO.C,R5*%
X114790000Y-71800000D03*
X113770000Y-71800000D03*
%TD*%
D20*
%TO.C,C_J1*%
X116380000Y-63825000D03*
X116380000Y-65375000D03*
%TD*%
D21*
%TO.C,C2*%
X120895000Y-65415000D03*
X120895000Y-66965000D03*
%TD*%
D22*
%TO.C,C4*%
X106830000Y-74400000D03*
X108380000Y-74400000D03*
%TD*%
D19*
%TO.C,R4*%
X114840000Y-66900000D03*
X113820000Y-66900000D03*
%TD*%
D23*
%TO.C,U4*%
X122325000Y-64310000D03*
X122325000Y-64810000D03*
X122325000Y-65310000D03*
X122325000Y-65810000D03*
X122325000Y-66310000D03*
X125275000Y-66310000D03*
X125275000Y-65810000D03*
X125275000Y-65310000D03*
X125275000Y-64810000D03*
X125275000Y-64310000D03*
D24*
X123550000Y-63760000D03*
X123550000Y-66860000D03*
D25*
X123800000Y-65310000D03*
D24*
X124050000Y-63760000D03*
X124050000Y-66860000D03*
%TD*%
D26*
%TO.C,J1*%
X110450000Y-64980000D03*
X110450000Y-70760000D03*
D27*
X111895000Y-64620000D03*
X111895000Y-65420000D03*
D28*
X111895000Y-66620000D03*
X111895000Y-67620000D03*
X111895000Y-68120000D03*
X111895000Y-69120000D03*
D27*
X111895000Y-70320000D03*
X111895000Y-71120000D03*
X111895000Y-71120000D03*
X111895000Y-70320000D03*
D28*
X111895000Y-69620000D03*
X111895000Y-68620000D03*
X111895000Y-67120000D03*
X111895000Y-66120000D03*
D27*
X111895000Y-65420000D03*
X111895000Y-64620000D03*
D29*
X110980000Y-63550000D03*
D30*
X106800000Y-63550000D03*
D29*
X110980000Y-72190000D03*
D30*
X106800000Y-72190000D03*
%TD*%
D17*
%TO.C,R_GPD1*%
X158905000Y-37020000D03*
X157255000Y-37020000D03*
%TD*%
%TO.C,R_GATE1*%
X155585000Y-35440000D03*
X157235000Y-35440000D03*
%TD*%
D31*
%TO.C,R9*%
X121152500Y-70370000D03*
X121152500Y-69350000D03*
%TD*%
%TO.C,R10*%
X122142500Y-70370000D03*
X122142500Y-69350000D03*
%TD*%
D17*
%TO.C,R3*%
X125915000Y-56030000D03*
X124265000Y-56030000D03*
%TD*%
D32*
%TO.C,L1*%
X125320000Y-76000000D03*
X122950000Y-76000000D03*
%TD*%
D17*
%TO.C,R_BOOT1*%
X157950000Y-64025000D03*
X156300000Y-64025000D03*
%TD*%
D33*
%TO.C,C3*%
X124020000Y-33050000D03*
X125920000Y-33050000D03*
%TD*%
D34*
%TO.C,R8*%
X125280000Y-60805000D03*
X125280000Y-62455000D03*
%TD*%
D17*
%TO.C,R2*%
X125965000Y-58980000D03*
X124315000Y-58980000D03*
%TD*%
%TO.C,R_RST1*%
X125545000Y-29840000D03*
X123895000Y-29840000D03*
%TD*%
D22*
%TO.C,C_BTN1*%
X159285000Y-39120000D03*
X157735000Y-39120000D03*
%TD*%
D33*
%TO.C,C8*%
X123395000Y-68460000D03*
X125295000Y-68460000D03*
%TD*%
D35*
%TO.C,U5*%
X123402500Y-70380000D03*
X125302500Y-70380000D03*
X125302500Y-72655000D03*
X124352500Y-72655000D03*
X123402500Y-72655000D03*
%TD*%
D36*
%TO.C,SW1*%
X110880000Y-24120000D03*
D37*
X117380000Y-24120000D03*
%TD*%
D38*
%TO.C,D1*%
X160945000Y-19290000D03*
D39*
X163485000Y-19290000D03*
%TD*%
D40*
%TO.C,C1*%
X122330000Y-62290000D03*
X122330000Y-59340000D03*
%TD*%
D41*
%TO.C,R1*%
X155650000Y-33875000D03*
X155650000Y-32225000D03*
%TD*%
D34*
%TO.C,R_BTN1*%
X123940000Y-25995000D03*
X123940000Y-27645000D03*
%TD*%
D41*
%TO.C,R_SER1*%
X155690000Y-39125000D03*
X155690000Y-37475000D03*
%TD*%
D42*
%TO.C,Q2*%
X113495000Y-39225000D03*
D43*
X119795000Y-36945000D03*
D42*
X113495000Y-34665000D03*
%TD*%
D44*
%TO.C,U2*%
X127900000Y-75620000D03*
X127900000Y-73080000D03*
X127900000Y-70540000D03*
X127900000Y-68000000D03*
X127900000Y-65460000D03*
X127900000Y-62920000D03*
X127900000Y-60380000D03*
X127900000Y-57840000D03*
X127900000Y-55300000D03*
X127900000Y-52760000D03*
X127900000Y-50220000D03*
X127900000Y-47680000D03*
X127900000Y-45140000D03*
X127900000Y-42600000D03*
X127900000Y-40060000D03*
X127900000Y-37520000D03*
X127900000Y-34980000D03*
X127900000Y-32440000D03*
X127900000Y-29900000D03*
X127900000Y-27360000D03*
X153300000Y-75620000D03*
X153300000Y-73080000D03*
X153300000Y-70540000D03*
X153300000Y-68000000D03*
X153300000Y-65460000D03*
X153300000Y-62920000D03*
X153300000Y-60380000D03*
X153300000Y-57840000D03*
X153300000Y-55300000D03*
X153300000Y-52760000D03*
X153300000Y-50220000D03*
X153300000Y-47680000D03*
X153300000Y-45140000D03*
X153300000Y-42600000D03*
X153300000Y-40060000D03*
X153300000Y-37520000D03*
X153300000Y-34980000D03*
X153300000Y-32440000D03*
X153300000Y-29900000D03*
X153300000Y-27360000D03*
%TD*%
D45*
%TO.C,BZ1*%
X159550000Y-28850000D03*
D44*
X164550000Y-28850000D03*
%TD*%
D46*
%TO.C,J2*%
X165190000Y-58530000D03*
X165190000Y-55990000D03*
X165190000Y-53450000D03*
X165190000Y-50910000D03*
X165190000Y-48370000D03*
X165190000Y-45830000D03*
%TD*%
D47*
%TO.C,D2*%
X118065000Y-43330000D03*
X120765000Y-56030000D03*
D48*
X119415000Y-49680000D03*
%TD*%
%LPD*%
M02*
