%TF.GenerationSoftware,KiCad,Pcbnew,9.0.5*%
%TF.CreationDate,2025-10-15T19:52:11-07:00*%
%TF.ProjectId,MouseTrapToF-Cam1.1,4d6f7573-6554-4726-9170-546f462d4361,rev?*%
%TF.SameCoordinates,Original*%
%TF.FileFunction,AssemblyDrawing,Bot*%
%FSLAX46Y46*%
G04 Gerber Fmt 4.6, Leading zero omitted, Abs format (unit mm)*
G04 Created by KiCad (PCBNEW 9.0.5) date 2025-10-15 19:52:11*
%MOMM*%
%LPD*%
G01*
G04 APERTURE LIST*
%ADD10C,0.150000*%
%ADD11C,0.120000*%
%ADD12C,0.100000*%
G04 APERTURE END LIST*
D10*
X115713332Y-24527200D02*
X115570475Y-24574819D01*
X115570475Y-24574819D02*
X115332380Y-24574819D01*
X115332380Y-24574819D02*
X115237142Y-24527200D01*
X115237142Y-24527200D02*
X115189523Y-24479580D01*
X115189523Y-24479580D02*
X115141904Y-24384342D01*
X115141904Y-24384342D02*
X115141904Y-24289104D01*
X115141904Y-24289104D02*
X115189523Y-24193866D01*
X115189523Y-24193866D02*
X115237142Y-24146247D01*
X115237142Y-24146247D02*
X115332380Y-24098628D01*
X115332380Y-24098628D02*
X115522856Y-24051009D01*
X115522856Y-24051009D02*
X115618094Y-24003390D01*
X115618094Y-24003390D02*
X115665713Y-23955771D01*
X115665713Y-23955771D02*
X115713332Y-23860533D01*
X115713332Y-23860533D02*
X115713332Y-23765295D01*
X115713332Y-23765295D02*
X115665713Y-23670057D01*
X115665713Y-23670057D02*
X115618094Y-23622438D01*
X115618094Y-23622438D02*
X115522856Y-23574819D01*
X115522856Y-23574819D02*
X115284761Y-23574819D01*
X115284761Y-23574819D02*
X115141904Y-23622438D01*
X114808570Y-23574819D02*
X114570475Y-24574819D01*
X114570475Y-24574819D02*
X114379999Y-23860533D01*
X114379999Y-23860533D02*
X114189523Y-24574819D01*
X114189523Y-24574819D02*
X113951428Y-23574819D01*
X113046666Y-24574819D02*
X113618094Y-24574819D01*
X113332380Y-24574819D02*
X113332380Y-23574819D01*
X113332380Y-23574819D02*
X113427618Y-23717676D01*
X113427618Y-23717676D02*
X113522856Y-23812914D01*
X113522856Y-23812914D02*
X113618094Y-23860533D01*
X162857857Y-23704819D02*
X163334047Y-23704819D01*
X163334047Y-23704819D02*
X163334047Y-22704819D01*
X162524523Y-23181009D02*
X162191190Y-23181009D01*
X162048333Y-23704819D02*
X162524523Y-23704819D01*
X162524523Y-23704819D02*
X162524523Y-22704819D01*
X162524523Y-22704819D02*
X162048333Y-22704819D01*
X161619761Y-23704819D02*
X161619761Y-22704819D01*
X161619761Y-22704819D02*
X161381666Y-22704819D01*
X161381666Y-22704819D02*
X161238809Y-22752438D01*
X161238809Y-22752438D02*
X161143571Y-22847676D01*
X161143571Y-22847676D02*
X161095952Y-22942914D01*
X161095952Y-22942914D02*
X161048333Y-23133390D01*
X161048333Y-23133390D02*
X161048333Y-23276247D01*
X161048333Y-23276247D02*
X161095952Y-23466723D01*
X161095952Y-23466723D02*
X161143571Y-23561961D01*
X161143571Y-23561961D02*
X161238809Y-23657200D01*
X161238809Y-23657200D02*
X161381666Y-23704819D01*
X161381666Y-23704819D02*
X161619761Y-23704819D01*
D11*
X162805475Y-19653855D02*
X162805475Y-18853855D01*
X162805475Y-18853855D02*
X162614999Y-18853855D01*
X162614999Y-18853855D02*
X162500713Y-18891950D01*
X162500713Y-18891950D02*
X162424523Y-18968140D01*
X162424523Y-18968140D02*
X162386428Y-19044331D01*
X162386428Y-19044331D02*
X162348332Y-19196712D01*
X162348332Y-19196712D02*
X162348332Y-19310998D01*
X162348332Y-19310998D02*
X162386428Y-19463379D01*
X162386428Y-19463379D02*
X162424523Y-19539569D01*
X162424523Y-19539569D02*
X162500713Y-19615760D01*
X162500713Y-19615760D02*
X162614999Y-19653855D01*
X162614999Y-19653855D02*
X162805475Y-19653855D01*
X161586428Y-19653855D02*
X162043571Y-19653855D01*
X161814999Y-19653855D02*
X161814999Y-18853855D01*
X161814999Y-18853855D02*
X161891190Y-18968140D01*
X161891190Y-18968140D02*
X161967380Y-19044331D01*
X161967380Y-19044331D02*
X162043571Y-19082426D01*
D10*
X162830952Y-27781009D02*
X162688095Y-27828628D01*
X162688095Y-27828628D02*
X162640476Y-27876247D01*
X162640476Y-27876247D02*
X162592857Y-27971485D01*
X162592857Y-27971485D02*
X162592857Y-28114342D01*
X162592857Y-28114342D02*
X162640476Y-28209580D01*
X162640476Y-28209580D02*
X162688095Y-28257200D01*
X162688095Y-28257200D02*
X162783333Y-28304819D01*
X162783333Y-28304819D02*
X163164285Y-28304819D01*
X163164285Y-28304819D02*
X163164285Y-27304819D01*
X163164285Y-27304819D02*
X162830952Y-27304819D01*
X162830952Y-27304819D02*
X162735714Y-27352438D01*
X162735714Y-27352438D02*
X162688095Y-27400057D01*
X162688095Y-27400057D02*
X162640476Y-27495295D01*
X162640476Y-27495295D02*
X162640476Y-27590533D01*
X162640476Y-27590533D02*
X162688095Y-27685771D01*
X162688095Y-27685771D02*
X162735714Y-27733390D01*
X162735714Y-27733390D02*
X162830952Y-27781009D01*
X162830952Y-27781009D02*
X163164285Y-27781009D01*
X162259523Y-27304819D02*
X161592857Y-27304819D01*
X161592857Y-27304819D02*
X162259523Y-28304819D01*
X162259523Y-28304819D02*
X161592857Y-28304819D01*
X160688095Y-28304819D02*
X161259523Y-28304819D01*
X160973809Y-28304819D02*
X160973809Y-27304819D01*
X160973809Y-27304819D02*
X161069047Y-27447676D01*
X161069047Y-27447676D02*
X161164285Y-27542914D01*
X161164285Y-27542914D02*
X161259523Y-27590533D01*
X160468804Y-27804819D02*
X163389285Y-27804819D01*
D12*
%TO.C,SW1*%
X111130000Y-22370000D02*
X111130000Y-25870000D01*
X111130000Y-25870000D02*
X117130000Y-25870000D01*
X116730000Y-22370000D02*
X111130000Y-22370000D01*
X116730000Y-22370000D02*
X117130000Y-22770000D01*
X117130000Y-25870000D02*
X117130000Y-22770000D01*
%TO.C,D1*%
X164715000Y-17820306D02*
X164715000Y-20759694D01*
X164715000Y-20759694D02*
G75*
G02*
X164715000Y-17820306I-2500000J1469694D01*
G01*
X164715000Y-19290000D02*
G75*
G02*
X159715000Y-19290000I-2500000J0D01*
G01*
X159715000Y-19290000D02*
G75*
G02*
X164715000Y-19290000I2500000J0D01*
G01*
%TD*%
X155999999Y-22799999D02*
X168100001Y-34900001D01*
X155999999Y-34900001D02*
X168100001Y-22799999D01*
M02*
