M48
; DRILL file {KiCad 9.0.5} date 2025-10-15T19:52:04-0700
; FORMAT={3:3/ absolute / metric / suppress leading zeros}
; #@! TF.CreationDate,2025-10-15T19:52:04-07:00
; #@! TF.GenerationSoftware,Kicad,Pcbnew,9.0.5
; #@! TF.FileFunction,MixedPlating,1,2
FMAT,2
METRIC,TZ
; #@! TA.AperFunction,Plated,PTH,ViaDrill
T1C0.300
; #@! TA.AperFunction,Plated,PTH,ComponentDrill
T2C0.300
; #@! TA.AperFunction,Plated,PTH,ComponentDrill
T3C0.600
; #@! TA.AperFunction,Plated,PTH,ComponentDrill
T4C0.900
; #@! TA.AperFunction,Plated,PTH,ComponentDrill
T5C1.000
; #@! TA.AperFunction,Plated,PTH,ComponentDrill
T6C1.300
; #@! TA.AperFunction,Plated,PTH,ComponentDrill
T7C3.200
; #@! TA.AperFunction,NonPlated,NPTH,ComponentDrill
T8C0.650
%
G90
G05
T1
X106500Y-21700
X106619Y-56100
X107000Y-33575
X107150Y-76420
X108000Y-44775
X108380Y-74400
X109910Y-23440
X111655Y-78355
X111895Y-39270
X111895Y-71120
X112255Y-74400
X112700Y-15900
X113493Y-39455
X113500Y-38755
X114424Y-62500
X114480Y-70875
X114790Y-71800
X114840Y-66900
X115405Y-74350
X115900Y-29400
X116380Y-63825
X116595Y-32670
X116930Y-68550
X120895Y-66965
X122143Y-69350
X122180Y-27770
X122330Y-59340
X123125Y-42200
X123395Y-68460
X123680Y-24840
X123700Y-16000
X124352Y-72655
X125280Y-60805
X125920Y-33050
X129825Y-77590
X150480Y-77560
X155700Y-40580
X155710Y-69440
X157950Y-64025
X158830Y-35440
X158905Y-37020
X159285Y-39120
X159400Y-16100
X162100Y-26000
X163965Y-42135
X164770Y-78420
X165190Y-55990
X166825Y-24925
X167700Y-34200
X168220Y-71120
T2
X123320Y-64450
X123320Y-66170
X123800Y-65310
X124280Y-64450
X124280Y-66170
T4
X159550Y-28850
X160945Y-19290
X163485Y-19290
X164550Y-28850
T5
X127900Y-27360
X127900Y-27360
X127900Y-29900
X127900Y-29900
X127900Y-32440
X127900Y-32440
X127900Y-34980
X127900Y-34980
X127900Y-37520
X127900Y-37520
X127900Y-40060
X127900Y-40060
X127900Y-42600
X127900Y-42600
X127900Y-45140
X127900Y-45140
X127900Y-47680
X127900Y-47680
X127900Y-50220
X127900Y-50220
X127900Y-52760
X127900Y-52760
X127900Y-55300
X127900Y-55300
X127900Y-57840
X127900Y-57840
X127900Y-60380
X127900Y-60380
X127900Y-62920
X127900Y-62920
X127900Y-65460
X127900Y-65460
X127900Y-68000
X127900Y-68000
X127900Y-70540
X127900Y-70540
X127900Y-73080
X127900Y-73080
X127900Y-75620
X127900Y-75620
X153300Y-27360
X153300Y-27360
X153300Y-29900
X153300Y-29900
X153300Y-32440
X153300Y-32440
X153300Y-34980
X153300Y-34980
X153300Y-37520
X153300Y-37520
X153300Y-40060
X153300Y-40060
X153300Y-42600
X153300Y-42600
X153300Y-45140
X153300Y-45140
X153300Y-47680
X153300Y-47680
X153300Y-50220
X153300Y-50220
X153300Y-52760
X153300Y-52760
X153300Y-55300
X153300Y-55300
X153300Y-57840
X153300Y-57840
X153300Y-60380
X153300Y-60380
X153300Y-62920
X153300Y-62920
X153300Y-65460
X153300Y-65460
X153300Y-68000
X153300Y-68000
X153300Y-70540
X153300Y-70540
X153300Y-73080
X153300Y-73080
X153300Y-75620
X153300Y-75620
T6
X110880Y-24120
X117380Y-24120
T7
X108340Y-17970
X161810Y-75400
T8
X110450Y-64980
X110450Y-70760
T3
G00X107100Y-63550
M15
G01X106500Y-63550
M16
G05
G00X107100Y-72190
M15
G01X106500Y-72190
M16
G05
G00X111530Y-63550
M15
G01X110430Y-63550
M16
G05
G00X111530Y-72190
M15
G01X110430Y-72190
M16
G05
M30
