%TF.GenerationSoftware,KiCad,Pcbnew,9.0.5*%
%TF.CreationDate,2025-10-15T19:52:11-07:00*%
%TF.ProjectId,MouseTrapToF-Cam1.1,4d6f7573-6554-4726-9170-546f462d4361,rev?*%
%TF.SameCoordinates,Original*%
%TF.FileFunction,Legend,Bot*%
%TF.FilePolarity,Positive*%
%FSLAX46Y46*%
G04 Gerber Fmt 4.6, Leading zero omitted, Abs format (unit mm)*
G04 Created by KiCad (PCBNEW 9.0.5) date 2025-10-15 19:52:11*
%MOMM*%
%LPD*%
G01*
G04 APERTURE LIST*
%ADD10C,0.100000*%
%ADD11C,0.120000*%
%ADD12C,6.400000*%
%ADD13C,0.650000*%
%ADD14O,2.100000X1.000000*%
%ADD15O,1.600000X1.000000*%
%ADD16R,1.700000X1.700000*%
%ADD17C,1.700000*%
%ADD18R,2.000000X2.000000*%
%ADD19R,2.250000X2.250000*%
%ADD20C,2.250000*%
%ADD21R,1.800000X1.800000*%
%ADD22C,1.800000*%
%ADD23C,2.000000*%
G04 APERTURE END LIST*
D10*
X162830952Y-24783609D02*
X162688095Y-24831228D01*
X162688095Y-24831228D02*
X162640476Y-24878847D01*
X162640476Y-24878847D02*
X162592857Y-24974085D01*
X162592857Y-24974085D02*
X162592857Y-25116942D01*
X162592857Y-25116942D02*
X162640476Y-25212180D01*
X162640476Y-25212180D02*
X162688095Y-25259800D01*
X162688095Y-25259800D02*
X162783333Y-25307419D01*
X162783333Y-25307419D02*
X163164285Y-25307419D01*
X163164285Y-25307419D02*
X163164285Y-24307419D01*
X163164285Y-24307419D02*
X162830952Y-24307419D01*
X162830952Y-24307419D02*
X162735714Y-24355038D01*
X162735714Y-24355038D02*
X162688095Y-24402657D01*
X162688095Y-24402657D02*
X162640476Y-24497895D01*
X162640476Y-24497895D02*
X162640476Y-24593133D01*
X162640476Y-24593133D02*
X162688095Y-24688371D01*
X162688095Y-24688371D02*
X162735714Y-24735990D01*
X162735714Y-24735990D02*
X162830952Y-24783609D01*
X162830952Y-24783609D02*
X163164285Y-24783609D01*
X162259523Y-24307419D02*
X161592857Y-24307419D01*
X161592857Y-24307419D02*
X162259523Y-25307419D01*
X162259523Y-25307419D02*
X161592857Y-25307419D01*
X160688095Y-25307419D02*
X161259523Y-25307419D01*
X160973809Y-25307419D02*
X160973809Y-24307419D01*
X160973809Y-24307419D02*
X161069047Y-24450276D01*
X161069047Y-24450276D02*
X161164285Y-24545514D01*
X161164285Y-24545514D02*
X161259523Y-24593133D01*
X166646115Y-25341466D02*
X165884211Y-25341466D01*
X166265163Y-25722419D02*
X166265163Y-24960514D01*
D11*
%TO.C,SW1*%
X111030000Y-22270000D02*
X111030000Y-22730000D01*
X111030000Y-22270000D02*
X117230000Y-22270000D01*
X111030000Y-25510000D02*
X111030000Y-25970000D01*
X117230000Y-22270000D02*
X117230000Y-22730000D01*
X117230000Y-22730000D02*
X118230000Y-22730000D01*
X117230000Y-25510000D02*
X117230000Y-25970000D01*
X117230000Y-25970000D02*
X111030000Y-25970000D01*
X115630000Y-23570000D02*
X112780000Y-23570000D01*
X112780000Y-24620000D01*
X115630000Y-24620000D01*
X115630000Y-23570000D01*
%TO.C,D1*%
X164775000Y-17745000D02*
X164775000Y-20835000D01*
X159225000Y-19290000D02*
G75*
G02*
X164775000Y-17745170I2990000J0D01*
G01*
X164775000Y-20834830D02*
G75*
G02*
X159225000Y-19290000I-2560000J1544830D01*
G01*
X164715000Y-19290000D02*
G75*
G02*
X159715000Y-19290000I-2500000J0D01*
G01*
X159715000Y-19290000D02*
G75*
G02*
X164715000Y-19290000I2500000J0D01*
G01*
D10*
%TO.C,BZ1*%
X168050000Y-28850000D02*
G75*
G02*
X156050000Y-28850000I-6000000J0D01*
G01*
X156050000Y-28850000D02*
G75*
G02*
X168050000Y-28850000I6000000J0D01*
G01*
%TD*%
%LPC*%
D12*
%TO.C,REF\u002A\u002A*%
X161810000Y-75400000D03*
%TD*%
%TO.C,REF\u002A\u002A*%
X108340000Y-17970000D03*
%TD*%
D13*
%TO.C,J1*%
X110450000Y-64980000D03*
X110450000Y-70760000D03*
D14*
X110980000Y-63550000D03*
D15*
X106800000Y-63550000D03*
D14*
X110980000Y-72190000D03*
D15*
X106800000Y-72190000D03*
%TD*%
D16*
%TO.C,J4*%
X153300000Y-75620000D03*
D17*
X153300000Y-73080000D03*
X153300000Y-70540000D03*
X153300000Y-68000000D03*
X153300000Y-65460000D03*
X153300000Y-62920000D03*
X153300000Y-60380000D03*
X153300000Y-57840000D03*
X153300000Y-55300000D03*
X153300000Y-52760000D03*
X153300000Y-50220000D03*
X153300000Y-47680000D03*
X153300000Y-45140000D03*
X153300000Y-42600000D03*
X153300000Y-40060000D03*
X153300000Y-37520000D03*
X153300000Y-34980000D03*
X153300000Y-32440000D03*
X153300000Y-29900000D03*
X153300000Y-27360000D03*
%TD*%
D16*
%TO.C,J3*%
X127900000Y-75620000D03*
D17*
X127900000Y-73080000D03*
X127900000Y-70540000D03*
X127900000Y-68000000D03*
X127900000Y-65460000D03*
X127900000Y-62920000D03*
X127900000Y-60380000D03*
X127900000Y-57840000D03*
X127900000Y-55300000D03*
X127900000Y-52760000D03*
X127900000Y-50220000D03*
X127900000Y-47680000D03*
X127900000Y-45140000D03*
X127900000Y-42600000D03*
X127900000Y-40060000D03*
X127900000Y-37520000D03*
X127900000Y-34980000D03*
X127900000Y-32440000D03*
X127900000Y-29900000D03*
X127900000Y-27360000D03*
%TD*%
D18*
%TO.C,U2*%
X127900000Y-75620000D03*
X127900000Y-73080000D03*
X127900000Y-70540000D03*
X127900000Y-68000000D03*
X127900000Y-65460000D03*
X127900000Y-62920000D03*
X127900000Y-60380000D03*
X127900000Y-57840000D03*
X127900000Y-55300000D03*
X127900000Y-52760000D03*
X127900000Y-50220000D03*
X127900000Y-47680000D03*
X127900000Y-45140000D03*
X127900000Y-42600000D03*
X127900000Y-40060000D03*
X127900000Y-37520000D03*
X127900000Y-34980000D03*
X127900000Y-32440000D03*
X127900000Y-29900000D03*
X127900000Y-27360000D03*
X153300000Y-75620000D03*
X153300000Y-73080000D03*
X153300000Y-70540000D03*
X153300000Y-68000000D03*
X153300000Y-65460000D03*
X153300000Y-62920000D03*
X153300000Y-60380000D03*
X153300000Y-57840000D03*
X153300000Y-55300000D03*
X153300000Y-52760000D03*
X153300000Y-50220000D03*
X153300000Y-47680000D03*
X153300000Y-45140000D03*
X153300000Y-42600000D03*
X153300000Y-40060000D03*
X153300000Y-37520000D03*
X153300000Y-34980000D03*
X153300000Y-32440000D03*
X153300000Y-29900000D03*
X153300000Y-27360000D03*
%TD*%
D19*
%TO.C,SW1*%
X117380000Y-24120000D03*
D20*
X110880000Y-24120000D03*
%TD*%
D21*
%TO.C,D1*%
X163485000Y-19290000D03*
D22*
X160945000Y-19290000D03*
%TD*%
D18*
%TO.C,BZ1*%
X164550000Y-28850000D03*
D23*
X159550000Y-28850000D03*
%TD*%
%LPD*%
M02*
