%TF.GenerationSoftware,KiCad,Pcbnew,9.0.5*%
%TF.CreationDate,2025-10-15T19:52:11-07:00*%
%TF.ProjectId,MouseTrapToF-Cam1.1,4d6f7573-6554-4726-9170-546f462d4361,rev?*%
%TF.SameCoordinates,Original*%
%TF.FileFunction,Copper,L1,Top*%
%TF.FilePolarity,Positive*%
%FSLAX46Y46*%
G04 Gerber Fmt 4.6, Leading zero omitted, Abs format (unit mm)*
G04 Created by KiCad (PCBNEW 9.0.5) date 2025-10-15 19:52:11*
%MOMM*%
%LPD*%
G01*
G04 APERTURE LIST*
G04 Aperture macros list*
%AMRoundRect*
0 Rectangle with rounded corners*
0 $1 Rounding radius*
0 $2 $3 $4 $5 $6 $7 $8 $9 X,Y pos of 4 corners*
0 Add a 4 corners polygon primitive as box body*
4,1,4,$2,$3,$4,$5,$6,$7,$8,$9,$2,$3,0*
0 Add four circle primitives for the rounded corners*
1,1,$1+$1,$2,$3*
1,1,$1+$1,$4,$5*
1,1,$1+$1,$6,$7*
1,1,$1+$1,$8,$9*
0 Add four rect primitives between the rounded corners*
20,1,$1+$1,$2,$3,$4,$5,0*
20,1,$1+$1,$4,$5,$6,$7,0*
20,1,$1+$1,$6,$7,$8,$9,0*
20,1,$1+$1,$8,$9,$2,$3,0*%
G04 Aperture macros list end*
%TA.AperFunction,SMDPad,CuDef*%
%ADD10RoundRect,0.200000X-0.200000X-0.275000X0.200000X-0.275000X0.200000X0.275000X-0.200000X0.275000X0*%
%TD*%
%TA.AperFunction,ComponentPad*%
%ADD11C,6.400000*%
%TD*%
%TA.AperFunction,SMDPad,CuDef*%
%ADD12RoundRect,0.245000X-0.245000X-1.455000X0.245000X-1.455000X0.245000X1.455000X-0.245000X1.455000X0*%
%TD*%
%TA.AperFunction,SMDPad,CuDef*%
%ADD13RoundRect,0.250000X-0.300000X0.300000X-0.300000X-0.300000X0.300000X-0.300000X0.300000X0.300000X0*%
%TD*%
%TA.AperFunction,SMDPad,CuDef*%
%ADD14RoundRect,0.150000X-0.150000X0.512500X-0.150000X-0.512500X0.150000X-0.512500X0.150000X0.512500X0*%
%TD*%
%TA.AperFunction,SMDPad,CuDef*%
%ADD15RoundRect,0.200000X0.200000X0.275000X-0.200000X0.275000X-0.200000X-0.275000X0.200000X-0.275000X0*%
%TD*%
%TA.AperFunction,SMDPad,CuDef*%
%ADD16R,2.700000X3.500000*%
%TD*%
%TA.AperFunction,SMDPad,CuDef*%
%ADD17C,5.700000*%
%TD*%
%TA.AperFunction,SMDPad,CuDef*%
%ADD18RoundRect,0.250000X-0.650000X0.325000X-0.650000X-0.325000X0.650000X-0.325000X0.650000X0.325000X0*%
%TD*%
%TA.AperFunction,SMDPad,CuDef*%
%ADD19RoundRect,0.200000X-0.275000X0.200000X-0.275000X-0.200000X0.275000X-0.200000X0.275000X0.200000X0*%
%TD*%
%TA.AperFunction,SMDPad,CuDef*%
%ADD20RoundRect,0.200000X0.275000X-0.200000X0.275000X0.200000X-0.275000X0.200000X-0.275000X-0.200000X0*%
%TD*%
%TA.AperFunction,SMDPad,CuDef*%
%ADD21R,1.450000X0.600000*%
%TD*%
%TA.AperFunction,SMDPad,CuDef*%
%ADD22R,1.450000X0.300000*%
%TD*%
%TA.AperFunction,HeatsinkPad*%
%ADD23O,2.100000X1.000000*%
%TD*%
%TA.AperFunction,HeatsinkPad*%
%ADD24O,1.600000X1.000000*%
%TD*%
%TA.AperFunction,ComponentPad*%
%ADD25R,1.700000X1.700000*%
%TD*%
%TA.AperFunction,ComponentPad*%
%ADD26C,1.700000*%
%TD*%
%TA.AperFunction,SMDPad,CuDef*%
%ADD27RoundRect,0.250000X-0.850000X-0.350000X0.850000X-0.350000X0.850000X0.350000X-0.850000X0.350000X0*%
%TD*%
%TA.AperFunction,SMDPad,CuDef*%
%ADD28RoundRect,0.249997X-2.950003X-2.650003X2.950003X-2.650003X2.950003X2.650003X-2.950003X2.650003X0*%
%TD*%
%TA.AperFunction,SMDPad,CuDef*%
%ADD29R,2.500000X1.800000*%
%TD*%
%TA.AperFunction,SMDPad,CuDef*%
%ADD30RoundRect,0.250000X0.250000X0.475000X-0.250000X0.475000X-0.250000X-0.475000X0.250000X-0.475000X0*%
%TD*%
%TA.AperFunction,SMDPad,CuDef*%
%ADD31RoundRect,0.135000X0.185000X-0.135000X0.185000X0.135000X-0.185000X0.135000X-0.185000X-0.135000X0*%
%TD*%
%TA.AperFunction,SMDPad,CuDef*%
%ADD32RoundRect,0.225000X-0.225000X-0.250000X0.225000X-0.250000X0.225000X0.250000X-0.225000X0.250000X0*%
%TD*%
%TA.AperFunction,SMDPad,CuDef*%
%ADD33RoundRect,0.218750X-0.218750X-0.256250X0.218750X-0.256250X0.218750X0.256250X-0.218750X0.256250X0*%
%TD*%
%TA.AperFunction,SMDPad,CuDef*%
%ADD34RoundRect,0.225000X0.250000X-0.225000X0.250000X0.225000X-0.250000X0.225000X-0.250000X-0.225000X0*%
%TD*%
%TA.AperFunction,SMDPad,CuDef*%
%ADD35RoundRect,0.225000X-0.250000X0.225000X-0.250000X-0.225000X0.250000X-0.225000X0.250000X0.225000X0*%
%TD*%
%TA.AperFunction,SMDPad,CuDef*%
%ADD36RoundRect,0.135000X0.135000X0.185000X-0.135000X0.185000X-0.135000X-0.185000X0.135000X-0.185000X0*%
%TD*%
%TA.AperFunction,SMDPad,CuDef*%
%ADD37RoundRect,0.070000X-0.355000X-0.070000X0.355000X-0.070000X0.355000X0.070000X-0.355000X0.070000X0*%
%TD*%
%TA.AperFunction,ComponentPad*%
%ADD38C,0.600000*%
%TD*%
%TA.AperFunction,SMDPad,CuDef*%
%ADD39R,0.280000X0.700000*%
%TD*%
%TA.AperFunction,SMDPad,CuDef*%
%ADD40R,1.650000X2.400000*%
%TD*%
%TA.AperFunction,SMDPad,CuDef*%
%ADD41RoundRect,0.150000X0.150000X-0.512500X0.150000X0.512500X-0.150000X0.512500X-0.150000X-0.512500X0*%
%TD*%
%TA.AperFunction,ComponentPad*%
%ADD42R,2.000000X2.000000*%
%TD*%
%TA.AperFunction,ComponentPad*%
%ADD43R,2.250000X2.250000*%
%TD*%
%TA.AperFunction,ComponentPad*%
%ADD44C,2.250000*%
%TD*%
%TA.AperFunction,ComponentPad*%
%ADD45R,1.800000X1.800000*%
%TD*%
%TA.AperFunction,ComponentPad*%
%ADD46C,1.800000*%
%TD*%
%TA.AperFunction,ComponentPad*%
%ADD47C,2.000000*%
%TD*%
%TA.AperFunction,ViaPad*%
%ADD48C,0.600000*%
%TD*%
%TA.AperFunction,Conductor*%
%ADD49C,1.200000*%
%TD*%
%TA.AperFunction,Conductor*%
%ADD50C,0.200000*%
%TD*%
%TA.AperFunction,Conductor*%
%ADD51C,0.800000*%
%TD*%
%TA.AperFunction,Conductor*%
%ADD52C,1.000000*%
%TD*%
%TA.AperFunction,Conductor*%
%ADD53C,0.500000*%
%TD*%
%TA.AperFunction,Conductor*%
%ADD54C,0.600000*%
%TD*%
G04 APERTURE END LIST*
D10*
%TO.P,R_GPD1,1*%
%TO.N,Net-(Q2-G)*%
X157255000Y-37020000D03*
%TO.P,R_GPD1,2*%
%TO.N,GND*%
X158905000Y-37020000D03*
%TD*%
D11*
%TO.P,REF\u002A\u002A,1*%
%TO.N,N/C*%
X161810000Y-75400000D03*
%TD*%
D12*
%TO.P,L1,1,1*%
%TO.N,Net-(U2-3v3)*%
X122950000Y-76000000D03*
%TO.P,L1,2,2*%
%TO.N,Net-(U5-SW)*%
X125320000Y-76000000D03*
%TD*%
D13*
%TO.P,D3,1,A1*%
%TO.N,GND*%
X114423750Y-62500000D03*
%TO.P,D3,2,A2*%
%TO.N,/VBUS_RAW*%
X114423750Y-65300000D03*
%TD*%
D10*
%TO.P,R3,1*%
%TO.N,Net-(D2-A)*%
X124265000Y-56030000D03*
%TO.P,R3,2*%
%TO.N,+5V*%
X125915000Y-56030000D03*
%TD*%
%TO.P,R_BOOT1,1*%
%TO.N,Net-(U2-GPIO0_{slash}_Boot)*%
X156300000Y-64025000D03*
%TO.P,R_BOOT1,2*%
%TO.N,GND*%
X157950000Y-64025000D03*
%TD*%
D11*
%TO.P,REF\u002A\u002A,1*%
%TO.N,N/C*%
X108340000Y-17970000D03*
%TD*%
D14*
%TO.P,U3,1,I/O1*%
%TO.N,Net-(J1-D+-PadA6)*%
X117880000Y-68550000D03*
%TO.P,U3,2,GND*%
%TO.N,GND*%
X116930000Y-68550000D03*
%TO.P,U3,3,I/O2*%
%TO.N,Net-(J1-D--PadA7)*%
X115980000Y-68550000D03*
%TO.P,U3,4,I/O2*%
%TO.N,Net-(R7-Pad2)*%
X115980000Y-70825000D03*
%TO.P,U3,5,VBUS*%
%TO.N,/VBUS_RAW*%
X116930000Y-70825000D03*
%TO.P,U3,6,I/O1*%
%TO.N,Net-(R6-Pad2)*%
X117880000Y-70825000D03*
%TD*%
D15*
%TO.P,R7,1*%
%TO.N,Net-(U2-GPIO20_{slash}_USB_D-)*%
X132545000Y-77580000D03*
%TO.P,R7,2*%
%TO.N,Net-(R7-Pad2)*%
X130895000Y-77580000D03*
%TD*%
D16*
%TO.P,D2,1,K*%
%TO.N,Net-(D2-K)*%
X118065000Y-43330000D03*
%TO.P,D2,2,A*%
%TO.N,Net-(D2-A)*%
X120765000Y-56030000D03*
D17*
%TO.P,D2,3,Thermal*%
%TO.N,unconnected-(D2-Thermal-Pad3)*%
X119415000Y-49680000D03*
%TD*%
D18*
%TO.P,C1,1*%
%TO.N,GND*%
X122330000Y-59340000D03*
%TO.P,C1,2*%
%TO.N,Net-(U4-dV{slash}dT)*%
X122330000Y-62290000D03*
%TD*%
D19*
%TO.P,R1,1*%
%TO.N,Net-(U2-GPIO1_{slash}_ADC1_CH0)*%
X155650000Y-32225000D03*
%TO.P,R1,2*%
%TO.N,Net-(D1-A)*%
X155650000Y-33875000D03*
%TD*%
D20*
%TO.P,R_BTN1,1*%
%TO.N,Net-(U2-3v3)*%
X123940000Y-27645000D03*
%TO.P,R_BTN1,2*%
%TO.N,/BTN42*%
X123940000Y-25995000D03*
%TD*%
D21*
%TO.P,J1,A1,GND*%
%TO.N,GND*%
X111895000Y-64620000D03*
%TO.P,J1,A4,VBUS*%
%TO.N,/VBUS_RAW*%
X111895000Y-65420000D03*
D22*
%TO.P,J1,A5,CC1*%
%TO.N,Net-(J1-CC1)*%
X111895000Y-66620000D03*
%TO.P,J1,A6,D+*%
%TO.N,Net-(J1-D+-PadA6)*%
X111895000Y-67620000D03*
%TO.P,J1,A7,D-*%
%TO.N,Net-(J1-D--PadA7)*%
X111895000Y-68120000D03*
%TO.P,J1,A8,SBU1*%
%TO.N,unconnected-(J1-SBU1-PadA8)*%
X111895000Y-69120000D03*
D21*
%TO.P,J1,A9,VBUS*%
%TO.N,/VBUS_RAW*%
X111895000Y-70320000D03*
%TO.P,J1,A12,GND*%
%TO.N,GND*%
X111895000Y-71120000D03*
%TO.P,J1,B1,GND*%
X111895000Y-71120000D03*
%TO.P,J1,B4,VBUS*%
%TO.N,/VBUS_RAW*%
X111895000Y-70320000D03*
D22*
%TO.P,J1,B5,CC2*%
%TO.N,Net-(J1-CC2)*%
X111895000Y-69620000D03*
%TO.P,J1,B6,D+*%
%TO.N,Net-(J1-D+-PadA6)*%
X111895000Y-68620000D03*
%TO.P,J1,B7,D-*%
%TO.N,Net-(J1-D--PadA7)*%
X111895000Y-67120000D03*
%TO.P,J1,B8,SBU2*%
%TO.N,unconnected-(J1-SBU2-PadB8)*%
X111895000Y-66120000D03*
D21*
%TO.P,J1,B9,VBUS*%
%TO.N,/VBUS_RAW*%
X111895000Y-65420000D03*
%TO.P,J1,B12,GND*%
%TO.N,GND*%
X111895000Y-64620000D03*
D23*
%TO.P,J1,S1,SHIELD*%
%TO.N,Net-(J1-SHIELD)*%
X110980000Y-63550000D03*
D24*
X106800000Y-63550000D03*
D23*
X110980000Y-72190000D03*
D24*
X106800000Y-72190000D03*
%TD*%
D25*
%TO.P,J4,1*%
%TO.N,N/C*%
X153300000Y-75620000D03*
D26*
%TO.P,J4,2*%
X153300000Y-73080000D03*
%TO.P,J4,3*%
X153300000Y-70540000D03*
%TO.P,J4,4*%
X153300000Y-68000000D03*
%TO.P,J4,5*%
X153300000Y-65460000D03*
%TO.P,J4,6*%
X153300000Y-62920000D03*
%TO.P,J4,7*%
X153300000Y-60380000D03*
%TO.P,J4,8*%
X153300000Y-57840000D03*
%TO.P,J4,9*%
X153300000Y-55300000D03*
%TO.P,J4,10*%
X153300000Y-52760000D03*
%TO.P,J4,11*%
X153300000Y-50220000D03*
%TO.P,J4,12*%
X153300000Y-47680000D03*
%TO.P,J4,13*%
X153300000Y-45140000D03*
%TO.P,J4,14*%
X153300000Y-42600000D03*
%TO.P,J4,15*%
X153300000Y-40060000D03*
%TO.P,J4,16*%
X153300000Y-37520000D03*
%TO.P,J4,17*%
X153300000Y-34980000D03*
%TO.P,J4,18*%
X153300000Y-32440000D03*
%TO.P,J4,19*%
X153300000Y-29900000D03*
%TO.P,J4,20*%
X153300000Y-27360000D03*
%TD*%
D19*
%TO.P,R_SER1,1*%
%TO.N,Net-(U2-GPIO42)*%
X155690000Y-37475000D03*
%TO.P,R_SER1,2*%
%TO.N,/BTN42*%
X155690000Y-39125000D03*
%TD*%
D27*
%TO.P,Q2,1,G*%
%TO.N,Net-(Q2-G)*%
X113495000Y-34665000D03*
D28*
%TO.P,Q2,2,D*%
%TO.N,Net-(D2-K)*%
X119795000Y-36945000D03*
D27*
%TO.P,Q2,3,S*%
%TO.N,GND*%
X113495000Y-39225000D03*
%TD*%
D29*
%TO.P,J2,1,Pin_1*%
%TO.N,+5V*%
X165190000Y-58530000D03*
%TO.P,J2,2,Pin_2*%
%TO.N,GND*%
X165190000Y-55990000D03*
%TO.P,J2,3,Pin_3*%
%TO.N,Net-(J2-Pin_3)*%
X165190000Y-53450000D03*
%TO.P,J2,4,Pin_4*%
%TO.N,Net-(J2-Pin_4)*%
X165190000Y-50910000D03*
%TO.P,J2,5,Pin_5*%
%TO.N,unconnected-(J2-Pin_5-Pad5)*%
X165190000Y-48370000D03*
%TO.P,J2,6,Pin_6*%
%TO.N,unconnected-(J2-Pin_6-Pad6)*%
X165190000Y-45830000D03*
%TD*%
D30*
%TO.P,C3,1*%
%TO.N,GND*%
X125920000Y-33050000D03*
%TO.P,C3,2*%
%TO.N,Net-(U2-3v3)*%
X124020000Y-33050000D03*
%TD*%
D20*
%TO.P,R8,1*%
%TO.N,Net-(U4-ILIM)*%
X125280000Y-62455000D03*
%TO.P,R8,2*%
%TO.N,GND*%
X125280000Y-60805000D03*
%TD*%
D10*
%TO.P,R2,1*%
%TO.N,Net-(D2-A)*%
X124315000Y-58980000D03*
%TO.P,R2,2*%
%TO.N,+5V*%
X125965000Y-58980000D03*
%TD*%
%TO.P,R_GATE1,1*%
%TO.N,Net-(U2-GPIO2_{slash}_ADC1_CH1)*%
X155585000Y-35440000D03*
%TO.P,R_GATE1,2*%
%TO.N,Net-(Q2-G)*%
X157235000Y-35440000D03*
%TD*%
%TO.P,R_RST1,1*%
%TO.N,Net-(U2-3v3)*%
X123895000Y-29840000D03*
%TO.P,R_RST1,2*%
%TO.N,Net-(U2-RST)*%
X125545000Y-29840000D03*
%TD*%
D15*
%TO.P,R6,1*%
%TO.N,GND*%
X115405000Y-74350000D03*
%TO.P,R6,2*%
%TO.N,Net-(R6-Pad2)*%
X113755000Y-74350000D03*
%TD*%
D30*
%TO.P,C8,1*%
%TO.N,+5V*%
X125295000Y-68460000D03*
%TO.P,C8,2*%
%TO.N,GND*%
X123395000Y-68460000D03*
%TD*%
D31*
%TO.P,R10,1*%
%TO.N,Net-(U5-FB)*%
X122142500Y-70370000D03*
%TO.P,R10,2*%
%TO.N,GND*%
X122142500Y-69350000D03*
%TD*%
D32*
%TO.P,C_BTN1,1*%
%TO.N,/BTN42*%
X157735000Y-39120000D03*
%TO.P,C_BTN1,2*%
%TO.N,GND*%
X159285000Y-39120000D03*
%TD*%
D10*
%TO.P,R11,1*%
%TO.N,Net-(J1-SHIELD)*%
X110605000Y-74400000D03*
%TO.P,R11,2*%
%TO.N,GND*%
X112255000Y-74400000D03*
%TD*%
D33*
%TO.P,FB1,1*%
%TO.N,/VBUS_RAW*%
X117892500Y-65400000D03*
%TO.P,FB1,2*%
%TO.N,/VBUS_FILT*%
X119467500Y-65400000D03*
%TD*%
D34*
%TO.P,C_J1,1*%
%TO.N,/VBUS_RAW*%
X116380000Y-65375000D03*
%TO.P,C_J1,2*%
%TO.N,GND*%
X116380000Y-63825000D03*
%TD*%
D31*
%TO.P,R9,1*%
%TO.N,Net-(U5-FB)*%
X121152500Y-70370000D03*
%TO.P,R9,2*%
%TO.N,Net-(U2-3v3)*%
X121152500Y-69350000D03*
%TD*%
D32*
%TO.P,C4,1*%
%TO.N,Net-(J1-SHIELD)*%
X106830000Y-74400000D03*
%TO.P,C4,2*%
%TO.N,GND*%
X108380000Y-74400000D03*
%TD*%
D35*
%TO.P,C2,1*%
%TO.N,/VBUS_FILT*%
X120895000Y-65415000D03*
%TO.P,C2,2*%
%TO.N,GND*%
X120895000Y-66965000D03*
%TD*%
D36*
%TO.P,R5,1*%
%TO.N,GND*%
X114790000Y-71800000D03*
%TO.P,R5,2*%
%TO.N,Net-(J1-CC2)*%
X113770000Y-71800000D03*
%TD*%
D37*
%TO.P,U4,1,dV/dT*%
%TO.N,Net-(U4-dV{slash}dT)*%
X122325000Y-64310000D03*
%TO.P,U4,2,EN/UVLO*%
%TO.N,/VBUS_FILT*%
X122325000Y-64810000D03*
%TO.P,U4,3,VIN*%
X122325000Y-65310000D03*
%TO.P,U4,4,VIN*%
X122325000Y-65810000D03*
%TO.P,U4,5,VIN*%
X122325000Y-66310000D03*
%TO.P,U4,6,OUT*%
%TO.N,+5V*%
X125275000Y-66310000D03*
%TO.P,U4,7,OUT*%
X125275000Y-65810000D03*
%TO.P,U4,8,OUT*%
X125275000Y-65310000D03*
%TO.P,U4,9,NC*%
%TO.N,unconnected-(U4-NC-Pad9)*%
X125275000Y-64810000D03*
%TO.P,U4,10,ILIM*%
%TO.N,Net-(U4-ILIM)*%
X125275000Y-64310000D03*
D38*
%TO.P,U4,11,GND*%
%TO.N,GND*%
X123320000Y-64450000D03*
X123320000Y-66170000D03*
D39*
X123550000Y-63760000D03*
X123550000Y-66860000D03*
D38*
X123800000Y-65310000D03*
D40*
X123800000Y-65310000D03*
D39*
X124050000Y-63760000D03*
X124050000Y-66860000D03*
D38*
X124280000Y-64450000D03*
X124280000Y-66170000D03*
%TD*%
D41*
%TO.P,U5,1,EN*%
%TO.N,+5V*%
X123402500Y-72655000D03*
%TO.P,U5,2,GND*%
%TO.N,GND*%
X124352500Y-72655000D03*
%TO.P,U5,3,SW*%
%TO.N,Net-(U5-SW)*%
X125302500Y-72655000D03*
%TO.P,U5,4,VIN*%
%TO.N,+5V*%
X125302500Y-70380000D03*
%TO.P,U5,5,FB*%
%TO.N,Net-(U5-FB)*%
X123402500Y-70380000D03*
%TD*%
D25*
%TO.P,J3,1*%
%TO.N,N/C*%
X127900000Y-75620000D03*
D26*
%TO.P,J3,2*%
X127900000Y-73080000D03*
%TO.P,J3,3*%
X127900000Y-70540000D03*
%TO.P,J3,4*%
X127900000Y-68000000D03*
%TO.P,J3,5*%
X127900000Y-65460000D03*
%TO.P,J3,6*%
X127900000Y-62920000D03*
%TO.P,J3,7*%
X127900000Y-60380000D03*
%TO.P,J3,8*%
X127900000Y-57840000D03*
%TO.P,J3,9*%
X127900000Y-55300000D03*
%TO.P,J3,10*%
X127900000Y-52760000D03*
%TO.P,J3,11*%
X127900000Y-50220000D03*
%TO.P,J3,12*%
X127900000Y-47680000D03*
%TO.P,J3,13*%
X127900000Y-45140000D03*
%TO.P,J3,14*%
X127900000Y-42600000D03*
%TO.P,J3,15*%
X127900000Y-40060000D03*
%TO.P,J3,16*%
X127900000Y-37520000D03*
%TO.P,J3,17*%
X127900000Y-34980000D03*
%TO.P,J3,18*%
X127900000Y-32440000D03*
%TO.P,J3,19*%
X127900000Y-29900000D03*
%TO.P,J3,20*%
X127900000Y-27360000D03*
%TD*%
D36*
%TO.P,R4,1*%
%TO.N,GND*%
X114840000Y-66900000D03*
%TO.P,R4,2*%
%TO.N,Net-(J1-CC1)*%
X113820000Y-66900000D03*
%TD*%
D42*
%TO.P,U2,1,5v*%
%TO.N,+5V*%
X127900000Y-75620000D03*
%TO.P,U2,2,GPIO14*%
%TO.N,unconnected-(U2-GPIO14-Pad2)*%
X127900000Y-73080000D03*
%TO.P,U2,3,GPIO13_/_CAM_Y5*%
%TO.N,unconnected-(U2-GPIO13_{slash}_CAM_Y5-Pad3)*%
X127900000Y-70540000D03*
%TO.P,U2,4,GPIO12_/_CAM_Y6*%
%TO.N,unconnected-(U2-GPIO12_{slash}_CAM_Y6-Pad4)*%
X127900000Y-68000000D03*
%TO.P,U2,5,GPIO11_/_CAM_Y2*%
%TO.N,unconnected-(U2-GPIO11_{slash}_CAM_Y2-Pad5)*%
X127900000Y-65460000D03*
%TO.P,U2,6,GPIO10_/_CAM_Y5*%
%TO.N,unconnected-(U2-GPIO10_{slash}_CAM_Y5-Pad6)*%
X127900000Y-62920000D03*
%TO.P,U2,7,GPIO9_/_CAM_Y3*%
%TO.N,unconnected-(U2-GPIO9_{slash}_CAM_Y3-Pad7)*%
X127900000Y-60380000D03*
%TO.P,U2,8,GPIO46_/_LOG*%
%TO.N,unconnected-(U2-GPIO46_{slash}_LOG-Pad8)*%
X127900000Y-57840000D03*
%TO.P,U2,9,GPIO3_/_JTAG_EN*%
%TO.N,unconnected-(U2-GPIO3_{slash}_JTAG_EN-Pad9)*%
X127900000Y-55300000D03*
%TO.P,U2,10,GPIO8_/_CAM_Y4*%
%TO.N,unconnected-(U2-GPIO8_{slash}_CAM_Y4-Pad10)*%
X127900000Y-52760000D03*
%TO.P,U2,11,GPIO18_/_CAM_Y7*%
%TO.N,unconnected-(U2-GPIO18_{slash}_CAM_Y7-Pad11)*%
X127900000Y-50220000D03*
%TO.P,U2,12,GPIO17_/_CAM_Y8*%
%TO.N,unconnected-(U2-GPIO17_{slash}_CAM_Y8-Pad12)*%
X127900000Y-47680000D03*
%TO.P,U2,13,GPIO16_/_CAM_Y9*%
%TO.N,unconnected-(U2-GPIO16_{slash}_CAM_Y9-Pad13)*%
X127900000Y-45140000D03*
%TO.P,U2,14,GPIO15_/_CAM_XCLK*%
%TO.N,unconnected-(U2-GPIO15_{slash}_CAM_XCLK-Pad14)*%
X127900000Y-42600000D03*
%TO.P,U2,15,GPIO7_/_CAM_HREF*%
%TO.N,unconnected-(U2-GPIO7_{slash}_CAM_HREF-Pad15)*%
X127900000Y-40060000D03*
%TO.P,U2,16,GPIO6_/_CAM_VYSNC*%
%TO.N,unconnected-(U2-GPIO6_{slash}_CAM_VYSNC-Pad16)*%
X127900000Y-37520000D03*
%TO.P,U2,17,GPIO5_/_CAM_SIOC*%
%TO.N,unconnected-(U2-GPIO5_{slash}_CAM_SIOC-Pad17)*%
X127900000Y-34980000D03*
%TO.P,U2,18,GPIO5_/_CAM_SIOD*%
%TO.N,unconnected-(U2-GPIO5_{slash}_CAM_SIOD-Pad18)*%
X127900000Y-32440000D03*
%TO.P,U2,19,RST*%
%TO.N,Net-(U2-RST)*%
X127900000Y-29900000D03*
%TO.P,U2,20,3v3*%
%TO.N,Net-(U2-3v3)*%
X127900000Y-27360000D03*
%TO.P,U2,21,GND*%
%TO.N,GND*%
X153300000Y-75620000D03*
%TO.P,U2,22,GPIO19_/_USB_D+*%
%TO.N,Net-(U2-GPIO19_{slash}_USB_D+)*%
X153300000Y-73080000D03*
%TO.P,U2,23,GPIO20_/_USB_D-*%
%TO.N,Net-(U2-GPIO20_{slash}_USB_D-)*%
X153300000Y-70540000D03*
%TO.P,U2,24,GPIO21*%
%TO.N,Net-(J2-Pin_3)*%
X153300000Y-68000000D03*
%TO.P,U2,25,GPIO47*%
%TO.N,Net-(J2-Pin_4)*%
X153300000Y-65460000D03*
%TO.P,U2,26,GPIO48_/_WS2812*%
%TO.N,unconnected-(U2-GPIO48_{slash}_WS2812-Pad26)*%
X153300000Y-62920000D03*
%TO.P,U2,27,GPIO45_/_VSPI*%
%TO.N,unconnected-(U2-GPIO45_{slash}_VSPI-Pad27)*%
X153300000Y-60380000D03*
%TO.P,U2,28,GPIO0_/_Boot*%
%TO.N,Net-(U2-GPIO0_{slash}_Boot)*%
X153300000Y-57840000D03*
%TO.P,U2,29,GPIO35_/_PSRAM*%
%TO.N,unconnected-(U2-GPIO35_{slash}_PSRAM-Pad29)*%
X153300000Y-55300000D03*
%TO.P,U2,30,GPIO36_/_PSRAM*%
%TO.N,unconnected-(U2-GPIO36_{slash}_PSRAM-Pad30)*%
X153300000Y-52760000D03*
%TO.P,U2,31,GPIO37_/_PSRAM*%
%TO.N,unconnected-(U2-GPIO37_{slash}_PSRAM-Pad31)*%
X153300000Y-50220000D03*
%TO.P,U2,32,GPIO38_/_SD_CMD*%
%TO.N,unconnected-(U2-GPIO38_{slash}_SD_CMD-Pad32)*%
X153300000Y-47680000D03*
%TO.P,U2,33,GPIO39_/_SD_CLK*%
%TO.N,unconnected-(U2-GPIO39_{slash}_SD_CLK-Pad33)*%
X153300000Y-45140000D03*
%TO.P,U2,34,GPIO40_/_SD_DATA*%
%TO.N,unconnected-(U2-GPIO40_{slash}_SD_DATA-Pad34)*%
X153300000Y-42600000D03*
%TO.P,U2,35,GPIO41*%
%TO.N,Net-(BZ1-Buzzer+)*%
X153300000Y-40060000D03*
%TO.P,U2,36,GPIO42*%
%TO.N,Net-(U2-GPIO42)*%
X153300000Y-37520000D03*
%TO.P,U2,37,GPIO2_/_ADC1_CH1*%
%TO.N,Net-(U2-GPIO2_{slash}_ADC1_CH1)*%
X153300000Y-34980000D03*
%TO.P,U2,38,GPIO1_/_ADC1_CH0*%
%TO.N,Net-(U2-GPIO1_{slash}_ADC1_CH0)*%
X153300000Y-32440000D03*
%TO.P,U2,39,GPIO44_/_U0RXD*%
%TO.N,unconnected-(U2-GPIO44_{slash}_U0RXD-Pad39)*%
X153300000Y-29900000D03*
%TO.P,U2,40,GPIO43_/_U0TXD*%
%TO.N,unconnected-(U2-GPIO43_{slash}_U0TXD-Pad40)*%
X153300000Y-27360000D03*
%TD*%
D43*
%TO.P,SW1,1,1*%
%TO.N,/BTN42*%
X117380000Y-24120000D03*
D44*
%TO.P,SW1,2,2*%
%TO.N,GND*%
X110880000Y-24120000D03*
%TD*%
D45*
%TO.P,D1,1,K*%
%TO.N,GND*%
X163485000Y-19290000D03*
D46*
%TO.P,D1,2,A*%
%TO.N,Net-(D1-A)*%
X160945000Y-19290000D03*
%TD*%
D42*
%TO.P,BZ1,1,Buzzer+*%
%TO.N,Net-(BZ1-Buzzer+)*%
X164550000Y-28850000D03*
D47*
%TO.P,BZ1,2,Buzzer-*%
%TO.N,GND*%
X159550000Y-28850000D03*
%TD*%
D48*
%TO.N,GND*%
X125920000Y-33050000D03*
X114840000Y-66900000D03*
X162100000Y-26000000D03*
X123680000Y-24840000D03*
X123700000Y-16000000D03*
X124352500Y-72655000D03*
X159285000Y-39120000D03*
X122142500Y-69350000D03*
X113492554Y-39454963D03*
X111895000Y-71120000D03*
X107000000Y-33575000D03*
X116930000Y-68550000D03*
X108380000Y-74400000D03*
X163965000Y-42135000D03*
X157950000Y-64025000D03*
X109910000Y-23440000D03*
X106619000Y-56100000D03*
X120895000Y-66965000D03*
X112700000Y-15900000D03*
X159400000Y-16100000D03*
X112255000Y-74400000D03*
X167700000Y-34200000D03*
X111655000Y-78355000D03*
X158905000Y-37020000D03*
X114423750Y-62500000D03*
X111895000Y-39270000D03*
X123125000Y-42200000D03*
X165190000Y-55990000D03*
X155710000Y-69440000D03*
X115900000Y-29400000D03*
X113500000Y-38755000D03*
X122330000Y-59340000D03*
X107150000Y-76420000D03*
X115405000Y-74350000D03*
X168220000Y-71120000D03*
X150480000Y-77560000D03*
X106500000Y-21700000D03*
X125280000Y-60805000D03*
X166825000Y-24925000D03*
X123395000Y-68460000D03*
X108000000Y-44775000D03*
X164770000Y-78420000D03*
X116380000Y-63825000D03*
X114790000Y-71800000D03*
%TO.N,Net-(R7-Pad2)*%
X129825000Y-77590000D03*
X114480000Y-70875000D03*
%TO.N,/BTN42*%
X122180000Y-27770000D03*
X155700000Y-40580000D03*
%TO.N,Net-(Q2-G)*%
X158830000Y-35440000D03*
X116595000Y-32670000D03*
%TD*%
D49*
%TO.N,Net-(D2-K)*%
X118065000Y-43330000D02*
X118065000Y-38675000D01*
D50*
X118070000Y-38205000D02*
X119800000Y-36475000D01*
%TO.N,GND*%
X112303750Y-64620000D02*
X114423750Y-62500000D01*
X111895000Y-64620000D02*
X112303750Y-64620000D01*
X123935000Y-65350000D02*
X123935000Y-66350000D01*
X123935000Y-65350000D02*
X123935000Y-66767000D01*
%TO.N,Net-(D1-A)*%
X156426000Y-23809000D02*
X156426000Y-33099000D01*
X156426000Y-33099000D02*
X155650000Y-33875000D01*
X160945000Y-19290000D02*
X156426000Y-23809000D01*
D51*
%TO.N,Net-(D2-A)*%
X124315000Y-58980000D02*
X124315000Y-56080000D01*
D50*
X120840000Y-55630000D02*
X120770000Y-55560000D01*
D52*
X120765000Y-56030000D02*
X124265000Y-56030000D01*
D50*
X124315000Y-56080000D02*
X124265000Y-56030000D01*
%TO.N,Net-(BZ1-Buzzer+)*%
X164550000Y-30569943D02*
X159059943Y-36060000D01*
X158670000Y-36060000D02*
X157956000Y-36774000D01*
X157956000Y-36774000D02*
X157956000Y-37508064D01*
X159059943Y-36060000D02*
X158670000Y-36060000D01*
X157040064Y-38424000D02*
X154936000Y-38424000D01*
X152950000Y-40100000D02*
X152950000Y-40060000D01*
X157956000Y-37508064D02*
X157040064Y-38424000D01*
X154936000Y-38424000D02*
X153300000Y-40060000D01*
X164550000Y-28850000D02*
X164550000Y-30569943D01*
%TO.N,Net-(J2-Pin_4)*%
X162291000Y-53597000D02*
X162291000Y-62221836D01*
X165190000Y-50910000D02*
X164978000Y-50910000D01*
X159052836Y-65460000D02*
X153300000Y-65460000D01*
X165090000Y-51234316D02*
X164740000Y-51234316D01*
X162291000Y-62221836D02*
X159052836Y-65460000D01*
X164978000Y-50910000D02*
X162291000Y-53597000D01*
X165190000Y-50910000D02*
X164840000Y-50910000D01*
%TO.N,Net-(J2-Pin_3)*%
X157079936Y-68000000D02*
X153300000Y-68000000D01*
X164840000Y-53450000D02*
X163639000Y-54651000D01*
X165090000Y-53774316D02*
X164740000Y-53774316D01*
X165190000Y-53450000D02*
X164840000Y-53450000D01*
X163639000Y-54651000D02*
X163639000Y-61440936D01*
X163639000Y-61440936D02*
X157079936Y-68000000D01*
%TO.N,Net-(U2-GPIO1_{slash}_ADC1_CH0)*%
X153515000Y-32225000D02*
X153300000Y-32440000D01*
X154040000Y-31700000D02*
X153300000Y-32440000D01*
X153690000Y-31700000D02*
X152950000Y-32440000D01*
X155650000Y-32225000D02*
X153515000Y-32225000D01*
%TO.N,Net-(J1-SHIELD)*%
X106800000Y-72190000D02*
X110980000Y-72190000D01*
X110605000Y-72565000D02*
X110980000Y-72190000D01*
X110605000Y-74400000D02*
X110605000Y-72565000D01*
X109774000Y-71844000D02*
X110120000Y-72190000D01*
X110730000Y-63550000D02*
X109774000Y-64506000D01*
X106800000Y-63550000D02*
X110980000Y-63550000D01*
X110120000Y-72190000D02*
X110980000Y-72190000D01*
X110980000Y-63550000D02*
X110730000Y-63550000D01*
X106830000Y-74400000D02*
X106830000Y-72220000D01*
X109774000Y-64506000D02*
X109774000Y-71844000D01*
X106830000Y-72220000D02*
X106800000Y-72190000D01*
%TO.N,+5V*%
X125275000Y-68440000D02*
X125295000Y-68460000D01*
X126599000Y-72647032D02*
X126599000Y-74319000D01*
D51*
X125320000Y-65570000D02*
X125275000Y-65615000D01*
D50*
X129436000Y-78356000D02*
X127900000Y-76820000D01*
X125915000Y-58930000D02*
X125965000Y-58980000D01*
X125643468Y-71691500D02*
X126599000Y-72647032D01*
X124011532Y-71691500D02*
X125643468Y-71691500D01*
D53*
X126220000Y-59235000D02*
X126220000Y-65365000D01*
D50*
X126056000Y-55671000D02*
X126220000Y-55835000D01*
X125302500Y-70380000D02*
X126599000Y-71676500D01*
X165190000Y-66332000D02*
X153166000Y-78356000D01*
D51*
X125915000Y-56030000D02*
X125915000Y-58930000D01*
X125275000Y-65615000D02*
X125275000Y-68440000D01*
D50*
X165190000Y-58530000D02*
X165190000Y-66332000D01*
X153166000Y-78356000D02*
X129436000Y-78356000D01*
X125262500Y-70340000D02*
X125302500Y-70380000D01*
X125965000Y-58980000D02*
X126220000Y-59235000D01*
X123402500Y-72655000D02*
X123402500Y-72300532D01*
X126599000Y-74319000D02*
X127900000Y-75620000D01*
D53*
X126220000Y-65365000D02*
X125275000Y-66310000D01*
D50*
X126599000Y-71676500D02*
X126599000Y-74319000D01*
X123402500Y-72300532D02*
X124011532Y-71691500D01*
D54*
X125295000Y-68460000D02*
X125295000Y-70350000D01*
D50*
X127900000Y-76820000D02*
X127900000Y-75620000D01*
%TO.N,Net-(J1-D+-PadA6)*%
X110967000Y-68669000D02*
X110869000Y-68571000D01*
X117270968Y-69513500D02*
X115639032Y-69513500D01*
X115639032Y-69513500D02*
X115379000Y-69253468D01*
X110918000Y-67620000D02*
X111895000Y-67620000D01*
X112988100Y-68571000D02*
X110869000Y-68571000D01*
X113458100Y-68101000D02*
X112988100Y-68571000D01*
X110869000Y-67669000D02*
X110918000Y-67620000D01*
X111846000Y-68669000D02*
X111895000Y-68620000D01*
X115379000Y-68516100D02*
X114963900Y-68101000D01*
X117880000Y-68904468D02*
X117270968Y-69513500D01*
X114963900Y-68101000D02*
X113458100Y-68101000D01*
X110967000Y-68669000D02*
X111846000Y-68669000D01*
X117880000Y-68550000D02*
X117880000Y-68904468D01*
X115379000Y-69253468D02*
X115379000Y-68516100D01*
X110869000Y-68571000D02*
X110869000Y-67669000D01*
%TO.N,Net-(R6-Pad2)*%
X115793499Y-73574000D02*
X114531000Y-73574000D01*
X117880000Y-71487499D02*
X115793499Y-73574000D01*
X114531000Y-73574000D02*
X113755000Y-74350000D01*
X117880000Y-70825000D02*
X117880000Y-71487499D01*
%TO.N,Net-(J1-D--PadA7)*%
X112921000Y-67169000D02*
X112921000Y-68071000D01*
X115980000Y-68550000D02*
X115130000Y-67700000D01*
X115130000Y-67700000D02*
X112921000Y-67700000D01*
X112872000Y-68120000D02*
X111895000Y-68120000D01*
X112921000Y-68071000D02*
X112872000Y-68120000D01*
X111895000Y-67120000D02*
X112872000Y-67120000D01*
X112872000Y-67120000D02*
X112921000Y-67169000D01*
%TO.N,Net-(J1-CC1)*%
X113820000Y-66900000D02*
X113540000Y-66620000D01*
X113540000Y-66620000D02*
X111895000Y-66620000D01*
%TO.N,Net-(J1-CC2)*%
X113404000Y-71434000D02*
X113404000Y-70202000D01*
X113770000Y-71800000D02*
X113404000Y-71434000D01*
X113404000Y-70202000D02*
X112822000Y-69620000D01*
X112822000Y-69620000D02*
X111895000Y-69620000D01*
%TO.N,Net-(U5-FB)*%
X123392500Y-70370000D02*
X123402500Y-70380000D01*
X121152500Y-70370000D02*
X123392500Y-70370000D01*
%TO.N,Net-(U2-3v3)*%
X124020000Y-29965000D02*
X123895000Y-29840000D01*
X125119000Y-59510160D02*
X125119000Y-34149000D01*
X121444840Y-61414000D02*
X123215160Y-61414000D01*
X118729000Y-64129840D02*
X121444840Y-61414000D01*
X125119000Y-34149000D02*
X124020000Y-33050000D01*
X124020000Y-33050000D02*
X124020000Y-29965000D01*
X120531500Y-69971000D02*
X120531500Y-73581500D01*
X123940000Y-27645000D02*
X127615000Y-27645000D01*
X123895000Y-29840000D02*
X123895000Y-27690000D01*
X121152500Y-69350000D02*
X120531500Y-69971000D01*
X120531500Y-73581500D02*
X122950000Y-76000000D01*
X118729000Y-66926500D02*
X118729000Y-64129840D01*
X123895000Y-27690000D02*
X123940000Y-27645000D01*
X121152500Y-69350000D02*
X118729000Y-66926500D01*
X123215160Y-61414000D02*
X125119000Y-59510160D01*
X127615000Y-27645000D02*
X127900000Y-27360000D01*
%TO.N,Net-(R7-Pad2)*%
X130885000Y-77590000D02*
X130895000Y-77580000D01*
X115930000Y-70875000D02*
X115980000Y-70825000D01*
X114480000Y-70875000D02*
X115930000Y-70875000D01*
X129825000Y-77590000D02*
X130885000Y-77590000D01*
%TO.N,Net-(U2-GPIO20_{slash}_USB_D-)*%
X132545000Y-77580000D02*
X146260000Y-77580000D01*
X146260000Y-77580000D02*
X153300000Y-70540000D01*
%TO.N,Net-(U2-GPIO2_{slash}_ADC1_CH1)*%
X153760000Y-35440000D02*
X153300000Y-34980000D01*
X155585000Y-35440000D02*
X153760000Y-35440000D01*
%TO.N,Net-(U4-dV{slash}dT)*%
X122330000Y-64305000D02*
X122325000Y-64310000D01*
X122330000Y-62290000D02*
X122330000Y-64305000D01*
%TO.N,Net-(U4-ILIM)*%
X125280000Y-62455000D02*
X125280000Y-64305000D01*
X125280000Y-64305000D02*
X125275000Y-64310000D01*
D51*
%TO.N,Net-(U5-SW)*%
X125302500Y-72655000D02*
X125302500Y-75547500D01*
D50*
%TO.N,Net-(U2-GPIO0_{slash}_Boot)*%
X154601000Y-62326000D02*
X154601000Y-59141000D01*
X156300000Y-64025000D02*
X154601000Y-62326000D01*
X154601000Y-59141000D02*
X153300000Y-57840000D01*
%TO.N,Net-(U2-RST)*%
X125545000Y-29840000D02*
X127840000Y-29840000D01*
X127840000Y-29840000D02*
X127900000Y-29900000D01*
%TO.N,/BTN42*%
X123940000Y-25995000D02*
X119255000Y-25995000D01*
X155700000Y-39135000D02*
X155690000Y-39125000D01*
X123940000Y-25995000D02*
X123940000Y-26010000D01*
X119255000Y-25995000D02*
X117380000Y-24120000D01*
X155700000Y-40580000D02*
X155700000Y-39135000D01*
X157730000Y-39125000D02*
X157735000Y-39120000D01*
X123940000Y-26010000D02*
X122180000Y-27770000D01*
X155690000Y-39125000D02*
X157730000Y-39125000D01*
%TO.N,Net-(U2-GPIO42)*%
X155690000Y-37475000D02*
X153345000Y-37475000D01*
X153345000Y-37475000D02*
X153300000Y-37520000D01*
%TO.N,Net-(Q2-G)*%
X113500000Y-34195000D02*
X114605000Y-34195000D01*
X114600000Y-34665000D02*
X116595000Y-32670000D01*
X157255000Y-35460000D02*
X157235000Y-35440000D01*
X157255000Y-37020000D02*
X157255000Y-35460000D01*
X157235000Y-35440000D02*
X158830000Y-35440000D01*
X113495000Y-34665000D02*
X114600000Y-34665000D01*
%TO.N,/VBUS_FILT*%
X122235000Y-65400000D02*
X122325000Y-65310000D01*
D51*
X119467500Y-65400000D02*
X122235000Y-65400000D01*
D50*
%TO.N,/VBUS_RAW*%
X112921000Y-70519000D02*
X112722000Y-70320000D01*
X112921000Y-71962000D02*
X112921000Y-70519000D01*
X110970000Y-65420000D02*
X111895000Y-65420000D01*
X115996499Y-72421000D02*
X113380000Y-72421000D01*
X112722000Y-70320000D02*
X111895000Y-70320000D01*
X118081000Y-65638500D02*
X117930000Y-65487500D01*
X110468000Y-65922000D02*
X110970000Y-65420000D01*
X114443750Y-65395000D02*
X114523750Y-65475000D01*
X116355000Y-65450000D02*
X116380000Y-65475000D01*
X110468000Y-69818000D02*
X110468000Y-65922000D01*
X116442500Y-65450000D02*
X116480000Y-65487500D01*
X111895000Y-70320000D02*
X110970000Y-70320000D01*
X116930000Y-71487499D02*
X115996499Y-72421000D01*
X116930000Y-70825000D02*
X116930000Y-71487499D01*
X110970000Y-70320000D02*
X110468000Y-69818000D01*
X113380000Y-72421000D02*
X112921000Y-71962000D01*
D51*
X112970000Y-65420000D02*
X117862500Y-65420000D01*
D54*
X111895000Y-65420000D02*
X112970000Y-65420000D01*
%TD*%
%TA.AperFunction,Conductor*%
%TO.N,Net-(Q2-G)*%
G36*
X158767655Y-35150792D02*
G01*
X158773696Y-35157402D01*
X158774165Y-35159070D01*
X158830530Y-35437680D01*
X158830530Y-35442320D01*
X158774165Y-35720929D01*
X158769165Y-35728358D01*
X158760377Y-35730077D01*
X158758709Y-35729608D01*
X158243476Y-35542796D01*
X158236866Y-35536755D01*
X158235764Y-35531797D01*
X158235764Y-35348202D01*
X158239191Y-35339929D01*
X158243473Y-35337204D01*
X158758711Y-35150391D01*
X158767655Y-35150792D01*
G37*
%TD.AperFunction*%
%TD*%
%TA.AperFunction,Conductor*%
%TO.N,/VBUS_FILT*%
G36*
X122698039Y-64679685D02*
G01*
X122743794Y-64732489D01*
X122755000Y-64784000D01*
X122755000Y-66336000D01*
X122735315Y-66403039D01*
X122682511Y-66448794D01*
X122631000Y-66460000D01*
X122009000Y-66460000D01*
X121941961Y-66440315D01*
X121896206Y-66387511D01*
X121885000Y-66336000D01*
X121885000Y-64784000D01*
X121904685Y-64716961D01*
X121957489Y-64671206D01*
X122009000Y-64660000D01*
X122631000Y-64660000D01*
X122698039Y-64679685D01*
G37*
%TD.AperFunction*%
%TD*%
%TA.AperFunction,Conductor*%
%TO.N,+5V*%
G36*
X125653039Y-65179685D02*
G01*
X125698794Y-65232489D01*
X125710000Y-65284000D01*
X125710000Y-68446000D01*
X125690315Y-68513039D01*
X125637511Y-68558794D01*
X125586000Y-68570000D01*
X124964000Y-68570000D01*
X124896961Y-68550315D01*
X124851206Y-68497511D01*
X124840000Y-68446000D01*
X124840000Y-65284000D01*
X124859685Y-65216961D01*
X124912489Y-65171206D01*
X124964000Y-65160000D01*
X125586000Y-65160000D01*
X125653039Y-65179685D01*
G37*
%TD.AperFunction*%
%TD*%
%TA.AperFunction,Conductor*%
%TO.N,GND*%
G36*
X125413039Y-14293267D02*
G01*
X125458794Y-14346071D01*
X125470000Y-14397582D01*
X125470000Y-26120000D01*
X126592560Y-26120000D01*
X126659599Y-26139685D01*
X126705354Y-26192489D01*
X126715298Y-26261647D01*
X126713088Y-26269705D01*
X126713515Y-26269790D01*
X126699500Y-26340247D01*
X126699500Y-27220500D01*
X126679815Y-27287539D01*
X126627011Y-27333294D01*
X126575500Y-27344500D01*
X124689272Y-27344500D01*
X124622233Y-27324815D01*
X124578788Y-27276796D01*
X124550103Y-27220500D01*
X124543050Y-27206658D01*
X124543047Y-27206655D01*
X124543045Y-27206652D01*
X124453347Y-27116954D01*
X124453344Y-27116952D01*
X124453342Y-27116950D01*
X124376517Y-27077805D01*
X124340301Y-27059352D01*
X124246524Y-27044500D01*
X123629831Y-27044500D01*
X123562792Y-27024815D01*
X123517037Y-26972011D01*
X123507093Y-26902853D01*
X123536118Y-26839297D01*
X123542136Y-26832833D01*
X123743152Y-26631818D01*
X123804475Y-26598333D01*
X123830833Y-26595499D01*
X124246517Y-26595499D01*
X124246518Y-26595499D01*
X124340304Y-26580646D01*
X124453342Y-26523050D01*
X124543050Y-26433342D01*
X124600646Y-26320304D01*
X124600646Y-26320302D01*
X124600647Y-26320301D01*
X124615499Y-26226524D01*
X124615500Y-26226519D01*
X124615499Y-25763482D01*
X124600646Y-25669696D01*
X124543050Y-25556658D01*
X124543046Y-25556654D01*
X124543045Y-25556652D01*
X124453347Y-25466954D01*
X124453344Y-25466952D01*
X124453342Y-25466950D01*
X124376517Y-25427805D01*
X124340301Y-25409352D01*
X124246524Y-25394500D01*
X123633482Y-25394500D01*
X123552519Y-25407323D01*
X123539696Y-25409354D01*
X123426658Y-25466950D01*
X123426657Y-25466951D01*
X123426652Y-25466954D01*
X123336954Y-25556652D01*
X123336951Y-25556657D01*
X123336950Y-25556658D01*
X123301212Y-25626796D01*
X123253239Y-25677591D01*
X123190729Y-25694500D01*
X119430833Y-25694500D01*
X119363794Y-25674815D01*
X119343152Y-25658181D01*
X118741819Y-25056848D01*
X118708334Y-24995525D01*
X118705500Y-24969167D01*
X118705500Y-22975249D01*
X118705499Y-22975247D01*
X118693868Y-22916770D01*
X118693867Y-22916769D01*
X118649552Y-22850447D01*
X118583230Y-22806132D01*
X118583229Y-22806131D01*
X118524752Y-22794500D01*
X118524748Y-22794500D01*
X116235252Y-22794500D01*
X116235247Y-22794500D01*
X116176770Y-22806131D01*
X116176769Y-22806132D01*
X116110447Y-22850447D01*
X116066132Y-22916769D01*
X116066131Y-22916770D01*
X116054500Y-22975247D01*
X116054500Y-25264752D01*
X116066131Y-25323229D01*
X116066132Y-25323230D01*
X116110447Y-25389552D01*
X116176769Y-25433867D01*
X116176770Y-25433868D01*
X116235247Y-25445499D01*
X116235250Y-25445500D01*
X116235252Y-25445500D01*
X118229167Y-25445500D01*
X118296206Y-25465185D01*
X118316848Y-25481819D01*
X119014540Y-26179511D01*
X119070489Y-26235460D01*
X119070491Y-26235461D01*
X119070495Y-26235464D01*
X119139004Y-26275017D01*
X119139011Y-26275021D01*
X119215438Y-26295500D01*
X119294562Y-26295500D01*
X122930167Y-26295500D01*
X122997206Y-26315185D01*
X123042961Y-26367989D01*
X123052905Y-26437147D01*
X123023880Y-26500703D01*
X123017850Y-26507177D01*
X122622175Y-26902853D01*
X122291847Y-27233181D01*
X122230524Y-27266666D01*
X122204166Y-27269500D01*
X122114108Y-27269500D01*
X121986812Y-27303608D01*
X121872686Y-27369500D01*
X121872683Y-27369502D01*
X121779502Y-27462683D01*
X121779500Y-27462686D01*
X121713608Y-27576812D01*
X121679500Y-27704108D01*
X121679500Y-27835891D01*
X121713608Y-27963187D01*
X121745249Y-28017989D01*
X121779500Y-28077314D01*
X121872686Y-28170500D01*
X121986814Y-28236392D01*
X122114108Y-28270500D01*
X122114110Y-28270500D01*
X122245890Y-28270500D01*
X122245892Y-28270500D01*
X122373186Y-28236392D01*
X122487314Y-28170500D01*
X122580500Y-28077314D01*
X122646392Y-27963186D01*
X122680500Y-27835892D01*
X122680500Y-27745832D01*
X122700185Y-27678793D01*
X122716819Y-27658151D01*
X122798158Y-27576812D01*
X123052821Y-27322148D01*
X123114142Y-27288665D01*
X123183833Y-27293649D01*
X123239767Y-27335520D01*
X123264184Y-27400985D01*
X123264500Y-27409831D01*
X123264500Y-27876517D01*
X123275292Y-27944657D01*
X123279354Y-27970304D01*
X123336950Y-28083342D01*
X123336952Y-28083344D01*
X123336954Y-28083347D01*
X123426652Y-28173045D01*
X123426654Y-28173046D01*
X123426658Y-28173050D01*
X123526796Y-28224073D01*
X123577591Y-28272047D01*
X123594500Y-28334557D01*
X123594500Y-29090728D01*
X123574815Y-29157767D01*
X123526796Y-29201212D01*
X123456659Y-29236949D01*
X123456652Y-29236954D01*
X123366954Y-29326652D01*
X123366951Y-29326657D01*
X123309352Y-29439698D01*
X123294500Y-29533475D01*
X123294500Y-30146517D01*
X123300114Y-30181963D01*
X123309354Y-30240304D01*
X123366950Y-30353342D01*
X123366952Y-30353344D01*
X123366954Y-30353347D01*
X123456652Y-30443045D01*
X123456654Y-30443046D01*
X123456658Y-30443050D01*
X123569696Y-30500646D01*
X123614898Y-30507805D01*
X123678031Y-30537733D01*
X123714963Y-30597044D01*
X123719500Y-30630278D01*
X123719500Y-32027404D01*
X123699815Y-32094443D01*
X123647011Y-32140198D01*
X123636456Y-32144445D01*
X123557117Y-32172207D01*
X123447850Y-32252850D01*
X123367207Y-32362117D01*
X123367206Y-32362119D01*
X123322353Y-32490298D01*
X123322353Y-32490300D01*
X123319500Y-32520730D01*
X123319500Y-33579269D01*
X123322353Y-33609699D01*
X123322353Y-33609701D01*
X123367206Y-33737880D01*
X123367207Y-33737882D01*
X123447850Y-33847150D01*
X123557118Y-33927793D01*
X123597994Y-33942096D01*
X123685299Y-33972646D01*
X123715730Y-33975500D01*
X123715734Y-33975500D01*
X124324270Y-33975500D01*
X124354689Y-33972647D01*
X124354689Y-33972646D01*
X124354699Y-33972646D01*
X124401890Y-33956132D01*
X124471662Y-33952570D01*
X124530522Y-33985493D01*
X124782181Y-34237152D01*
X124815666Y-34298475D01*
X124818500Y-34324833D01*
X124818500Y-55283276D01*
X124798815Y-55350315D01*
X124746011Y-55396070D01*
X124676853Y-55406014D01*
X124665896Y-55403932D01*
X124651441Y-55400505D01*
X124590304Y-55369354D01*
X124496519Y-55354500D01*
X124459675Y-55354500D01*
X124445482Y-55351676D01*
X124445466Y-55351673D01*
X124333995Y-55329500D01*
X124333993Y-55329500D01*
X122439500Y-55329500D01*
X122372461Y-55309815D01*
X122326706Y-55257011D01*
X122315500Y-55205500D01*
X122315500Y-54260249D01*
X122315499Y-54260247D01*
X122303868Y-54201770D01*
X122303867Y-54201769D01*
X122259552Y-54135447D01*
X122193230Y-54091132D01*
X122193229Y-54091131D01*
X122134752Y-54079500D01*
X122134748Y-54079500D01*
X119395252Y-54079500D01*
X119395247Y-54079500D01*
X119336770Y-54091131D01*
X119336769Y-54091132D01*
X119270447Y-54135447D01*
X119226132Y-54201769D01*
X119226131Y-54201770D01*
X119214500Y-54260247D01*
X119214500Y-57799752D01*
X119226131Y-57858229D01*
X119226132Y-57858230D01*
X119270447Y-57924552D01*
X119336769Y-57968867D01*
X119336770Y-57968868D01*
X119395247Y-57980499D01*
X119395250Y-57980500D01*
X119395252Y-57980500D01*
X122134750Y-57980500D01*
X122134751Y-57980499D01*
X122149568Y-57977552D01*
X122193229Y-57968868D01*
X122193229Y-57968867D01*
X122193231Y-57968867D01*
X122259552Y-57924552D01*
X122303867Y-57858231D01*
X122303867Y-57858229D01*
X122303868Y-57858229D01*
X122315499Y-57799752D01*
X122315500Y-57799750D01*
X122315500Y-56854500D01*
X122335185Y-56787461D01*
X122387989Y-56741706D01*
X122439500Y-56730500D01*
X123590500Y-56730500D01*
X123657539Y-56750185D01*
X123703294Y-56802989D01*
X123714500Y-56854500D01*
X123714500Y-59286517D01*
X123716916Y-59301769D01*
X123729354Y-59380304D01*
X123786950Y-59493342D01*
X123786952Y-59493344D01*
X123786954Y-59493347D01*
X123876652Y-59583045D01*
X123876654Y-59583046D01*
X123876658Y-59583050D01*
X123989696Y-59640646D01*
X123989698Y-59640647D01*
X124077116Y-59654491D01*
X124080892Y-59655090D01*
X124083475Y-59655499D01*
X124083481Y-59655500D01*
X124249327Y-59655499D01*
X124316365Y-59675183D01*
X124362120Y-59727987D01*
X124372064Y-59797145D01*
X124343039Y-59860701D01*
X124337007Y-59867180D01*
X123127008Y-61077181D01*
X123065685Y-61110666D01*
X123039327Y-61113500D01*
X121405278Y-61113500D01*
X121328850Y-61133978D01*
X121260329Y-61173540D01*
X121260326Y-61173542D01*
X118488541Y-63945327D01*
X118488535Y-63945335D01*
X118448982Y-64013844D01*
X118448979Y-64013849D01*
X118428500Y-64090279D01*
X118428500Y-64632512D01*
X118408815Y-64699551D01*
X118356011Y-64745306D01*
X118286853Y-64755250D01*
X118248206Y-64742997D01*
X118242420Y-64740049D01*
X118242419Y-64740048D01*
X118242416Y-64740047D01*
X118242417Y-64740047D01*
X118144251Y-64724500D01*
X118144246Y-64724500D01*
X117640754Y-64724500D01*
X117640749Y-64724500D01*
X117542582Y-64740047D01*
X117466223Y-64778954D01*
X117424249Y-64800342D01*
X117424247Y-64800343D01*
X117415554Y-64804773D01*
X117413988Y-64801699D01*
X117364676Y-64819297D01*
X117357591Y-64819500D01*
X116948323Y-64819500D01*
X116893229Y-64803322D01*
X116891915Y-64805903D01*
X116883221Y-64801473D01*
X116883220Y-64801472D01*
X116763126Y-64740281D01*
X116763124Y-64740280D01*
X116763121Y-64740279D01*
X116663493Y-64724500D01*
X116663488Y-64724500D01*
X116096512Y-64724500D01*
X116096507Y-64724500D01*
X115996878Y-64740279D01*
X115996874Y-64740280D01*
X115996874Y-64740281D01*
X115876780Y-64801472D01*
X115876778Y-64801473D01*
X115868085Y-64805903D01*
X115866275Y-64802352D01*
X115818685Y-64819302D01*
X115811677Y-64819500D01*
X115213040Y-64819500D01*
X115146001Y-64799815D01*
X115113270Y-64769134D01*
X115104953Y-64757865D01*
X115045900Y-64677850D01*
X114936632Y-64597207D01*
X114936630Y-64597206D01*
X114808450Y-64552353D01*
X114778020Y-64549500D01*
X114778016Y-64549500D01*
X114069484Y-64549500D01*
X114069480Y-64549500D01*
X114039050Y-64552353D01*
X114039048Y-64552353D01*
X113910869Y-64597206D01*
X113910867Y-64597207D01*
X113827046Y-64659070D01*
X113801600Y-64677850D01*
X113742548Y-64757864D01*
X113734230Y-64769134D01*
X113678583Y-64811384D01*
X113634460Y-64819500D01*
X112890943Y-64819500D01*
X112738216Y-64860423D01*
X112738213Y-64860424D01*
X112664666Y-64902887D01*
X112602666Y-64919500D01*
X111150242Y-64919500D01*
X111149592Y-64919630D01*
X111149244Y-64919598D01*
X111144187Y-64920097D01*
X111144092Y-64919137D01*
X111080001Y-64913397D01*
X111024827Y-64870529D01*
X111005638Y-64830107D01*
X110986281Y-64757865D01*
X110910515Y-64626635D01*
X110803365Y-64519485D01*
X110803363Y-64519484D01*
X110803361Y-64519482D01*
X110738244Y-64481887D01*
X110690028Y-64431320D01*
X110676806Y-64362713D01*
X110702774Y-64297848D01*
X110759688Y-64257320D01*
X110800244Y-64250500D01*
X111598995Y-64250500D01*
X111690041Y-64232389D01*
X111734328Y-64223580D01*
X111861811Y-64170775D01*
X111976542Y-64094114D01*
X112074114Y-63996542D01*
X112150775Y-63881811D01*
X112203580Y-63754328D01*
X112212389Y-63710041D01*
X112230500Y-63618995D01*
X112230500Y-63481004D01*
X112203581Y-63345677D01*
X112203580Y-63345676D01*
X112203580Y-63345672D01*
X112190122Y-63313181D01*
X112150778Y-63218195D01*
X112150771Y-63218182D01*
X112074114Y-63103458D01*
X112074111Y-63103454D01*
X111976545Y-63005888D01*
X111976541Y-63005885D01*
X111861817Y-62929228D01*
X111861804Y-62929221D01*
X111734332Y-62876421D01*
X111734322Y-62876418D01*
X111598995Y-62849500D01*
X111598993Y-62849500D01*
X110361007Y-62849500D01*
X110361005Y-62849500D01*
X110225677Y-62876418D01*
X110225667Y-62876421D01*
X110098195Y-62929221D01*
X110098182Y-62929228D01*
X109983458Y-63005885D01*
X109983454Y-63005888D01*
X109885888Y-63103454D01*
X109885885Y-63103458D01*
X109825126Y-63194391D01*
X109771514Y-63239196D01*
X109722024Y-63249500D01*
X107807976Y-63249500D01*
X107740937Y-63229815D01*
X107704874Y-63194391D01*
X107644114Y-63103458D01*
X107644111Y-63103454D01*
X107546545Y-63005888D01*
X107546541Y-63005885D01*
X107431817Y-62929228D01*
X107431804Y-62929221D01*
X107304332Y-62876421D01*
X107304322Y-62876418D01*
X107168995Y-62849500D01*
X107168993Y-62849500D01*
X106431007Y-62849500D01*
X106431005Y-62849500D01*
X106295677Y-62876418D01*
X106295667Y-62876421D01*
X106168195Y-62929221D01*
X106168182Y-62929228D01*
X106053458Y-63005885D01*
X106053454Y-63005888D01*
X105955888Y-63103454D01*
X105955885Y-63103458D01*
X105879228Y-63218182D01*
X105879221Y-63218195D01*
X105826421Y-63345667D01*
X105826418Y-63345677D01*
X105799500Y-63481004D01*
X105799500Y-63481007D01*
X105799500Y-63618993D01*
X105799500Y-63618995D01*
X105799499Y-63618995D01*
X105826418Y-63754322D01*
X105826421Y-63754332D01*
X105879221Y-63881804D01*
X105879228Y-63881817D01*
X105955885Y-63996541D01*
X105955888Y-63996545D01*
X106053454Y-64094111D01*
X106053458Y-64094114D01*
X106168182Y-64170771D01*
X106168195Y-64170778D01*
X106282181Y-64217992D01*
X106295672Y-64223580D01*
X106295676Y-64223580D01*
X106295677Y-64223581D01*
X106431004Y-64250500D01*
X106431007Y-64250500D01*
X107168995Y-64250500D01*
X107260041Y-64232389D01*
X107304328Y-64223580D01*
X107431811Y-64170775D01*
X107546542Y-64094114D01*
X107644114Y-63996542D01*
X107704874Y-63905609D01*
X107758486Y-63860804D01*
X107807976Y-63850500D01*
X109705166Y-63850500D01*
X109772205Y-63870185D01*
X109817960Y-63922989D01*
X109827904Y-63992147D01*
X109798879Y-64055703D01*
X109792847Y-64062181D01*
X109589489Y-64265540D01*
X109533541Y-64321487D01*
X109533535Y-64321495D01*
X109493982Y-64390004D01*
X109493979Y-64390009D01*
X109473500Y-64466439D01*
X109473500Y-71765500D01*
X109453815Y-71832539D01*
X109401011Y-71878294D01*
X109349500Y-71889500D01*
X107807976Y-71889500D01*
X107740937Y-71869815D01*
X107704874Y-71834391D01*
X107644114Y-71743458D01*
X107644111Y-71743454D01*
X107546545Y-71645888D01*
X107546541Y-71645885D01*
X107431817Y-71569228D01*
X107431804Y-71569221D01*
X107304332Y-71516421D01*
X107304322Y-71516418D01*
X107168995Y-71489500D01*
X107168993Y-71489500D01*
X106431007Y-71489500D01*
X106431005Y-71489500D01*
X106295677Y-71516418D01*
X106295667Y-71516421D01*
X106168195Y-71569221D01*
X106168182Y-71569228D01*
X106053458Y-71645885D01*
X106053454Y-71645888D01*
X105955888Y-71743454D01*
X105955885Y-71743458D01*
X105879228Y-71858182D01*
X105879221Y-71858195D01*
X105826421Y-71985667D01*
X105826418Y-71985677D01*
X105799500Y-72121004D01*
X105799500Y-72121007D01*
X105799500Y-72258993D01*
X105799500Y-72258995D01*
X105799499Y-72258995D01*
X105826418Y-72394322D01*
X105826421Y-72394332D01*
X105879221Y-72521804D01*
X105879228Y-72521817D01*
X105955885Y-72636541D01*
X105955888Y-72636545D01*
X106053454Y-72734111D01*
X106053458Y-72734114D01*
X106168182Y-72810771D01*
X106168195Y-72810778D01*
X106295667Y-72863578D01*
X106295672Y-72863580D01*
X106429691Y-72890238D01*
X106491602Y-72922622D01*
X106526176Y-72983338D01*
X106529500Y-73011855D01*
X106529500Y-73634932D01*
X106509815Y-73701971D01*
X106461796Y-73745415D01*
X106351780Y-73801472D01*
X106351779Y-73801473D01*
X106351774Y-73801476D01*
X106256476Y-73896774D01*
X106256473Y-73896778D01*
X106195279Y-74016878D01*
X106179500Y-74116506D01*
X106179500Y-74683493D01*
X106195279Y-74783121D01*
X106195280Y-74783124D01*
X106195281Y-74783126D01*
X106256472Y-74903220D01*
X106256473Y-74903221D01*
X106256476Y-74903225D01*
X106351774Y-74998523D01*
X106351778Y-74998526D01*
X106351780Y-74998528D01*
X106471874Y-75059719D01*
X106471876Y-75059719D01*
X106471878Y-75059720D01*
X106571507Y-75075500D01*
X106571512Y-75075500D01*
X107088493Y-75075500D01*
X107188121Y-75059720D01*
X107188121Y-75059719D01*
X107188126Y-75059719D01*
X107308220Y-74998528D01*
X107403528Y-74903220D01*
X107464719Y-74783126D01*
X107464720Y-74783121D01*
X107480500Y-74683493D01*
X107480500Y-74116506D01*
X107464720Y-74016878D01*
X107464719Y-74016876D01*
X107464719Y-74016874D01*
X107403528Y-73896780D01*
X107403526Y-73896778D01*
X107403523Y-73896774D01*
X107308225Y-73801476D01*
X107308222Y-73801474D01*
X107308220Y-73801472D01*
X107198203Y-73745415D01*
X107147409Y-73697442D01*
X107130500Y-73634932D01*
X107130500Y-72999921D01*
X107150185Y-72932882D01*
X107202989Y-72887127D01*
X107230309Y-72878304D01*
X107267552Y-72870895D01*
X107304328Y-72863580D01*
X107431811Y-72810775D01*
X107546542Y-72734114D01*
X107644114Y-72636542D01*
X107683753Y-72577217D01*
X107704874Y-72545609D01*
X107758486Y-72500804D01*
X107807976Y-72490500D01*
X109722024Y-72490500D01*
X109789063Y-72510185D01*
X109825126Y-72545609D01*
X109885885Y-72636541D01*
X109885888Y-72636545D01*
X109983454Y-72734111D01*
X109983458Y-72734114D01*
X110098182Y-72810771D01*
X110098195Y-72810778D01*
X110170927Y-72840903D01*
X110225672Y-72863580D01*
X110225673Y-72863580D01*
X110227952Y-72864524D01*
X110282356Y-72908364D01*
X110304421Y-72974658D01*
X110304500Y-72979085D01*
X110304500Y-73650728D01*
X110284815Y-73717767D01*
X110236796Y-73761212D01*
X110166659Y-73796949D01*
X110166652Y-73796954D01*
X110076954Y-73886652D01*
X110076951Y-73886657D01*
X110019352Y-73999698D01*
X110004500Y-74093475D01*
X110004500Y-74706517D01*
X110011427Y-74750252D01*
X110019354Y-74800304D01*
X110076950Y-74913342D01*
X110076952Y-74913344D01*
X110076954Y-74913347D01*
X110166652Y-75003045D01*
X110166654Y-75003046D01*
X110166658Y-75003050D01*
X110277877Y-75059719D01*
X110279698Y-75060647D01*
X110373475Y-75075499D01*
X110373481Y-75075500D01*
X110836518Y-75075499D01*
X110930304Y-75060646D01*
X111043342Y-75003050D01*
X111133050Y-74913342D01*
X111190646Y-74800304D01*
X111190646Y-74800302D01*
X111190647Y-74800301D01*
X111205499Y-74706524D01*
X111205500Y-74706519D01*
X111205499Y-74093482D01*
X111190646Y-73999696D01*
X111133050Y-73886658D01*
X111133046Y-73886654D01*
X111133045Y-73886652D01*
X111043347Y-73796954D01*
X111043343Y-73796951D01*
X111043342Y-73796950D01*
X111041582Y-73796053D01*
X110973204Y-73761212D01*
X110922408Y-73713237D01*
X110905500Y-73650728D01*
X110905500Y-73014500D01*
X110925185Y-72947461D01*
X110977989Y-72901706D01*
X111029500Y-72890500D01*
X111598995Y-72890500D01*
X111690041Y-72872389D01*
X111734328Y-72863580D01*
X111861811Y-72810775D01*
X111976542Y-72734114D01*
X112074114Y-72636542D01*
X112150775Y-72521811D01*
X112203580Y-72394328D01*
X112224797Y-72287664D01*
X112230500Y-72258995D01*
X112230500Y-72121004D01*
X112203581Y-71985677D01*
X112203580Y-71985676D01*
X112203580Y-71985672D01*
X112203578Y-71985667D01*
X112150778Y-71858195D01*
X112150771Y-71858182D01*
X112074114Y-71743458D01*
X112074111Y-71743454D01*
X111976545Y-71645888D01*
X111976541Y-71645885D01*
X111861817Y-71569228D01*
X111861804Y-71569221D01*
X111734332Y-71516421D01*
X111734322Y-71516418D01*
X111598995Y-71489500D01*
X111598993Y-71489500D01*
X110800244Y-71489500D01*
X110733205Y-71469815D01*
X110687450Y-71417011D01*
X110677506Y-71347853D01*
X110706531Y-71284297D01*
X110738244Y-71258113D01*
X110781614Y-71233073D01*
X110803365Y-71220515D01*
X110910515Y-71113365D01*
X110986281Y-70982135D01*
X111005638Y-70909892D01*
X111042000Y-70850235D01*
X111104846Y-70819705D01*
X111144148Y-70820290D01*
X111144187Y-70819903D01*
X111148832Y-70820360D01*
X111149608Y-70820371D01*
X111150252Y-70820500D01*
X112496500Y-70820500D01*
X112563539Y-70840185D01*
X112609294Y-70892989D01*
X112620500Y-70944500D01*
X112620500Y-72001562D01*
X112636226Y-72060252D01*
X112640979Y-72077989D01*
X112677346Y-72140979D01*
X112680540Y-72146511D01*
X112680542Y-72146514D01*
X112911181Y-72377152D01*
X113139540Y-72605511D01*
X113195489Y-72661460D01*
X113195491Y-72661461D01*
X113195495Y-72661464D01*
X113219573Y-72675365D01*
X113264011Y-72701021D01*
X113340438Y-72721500D01*
X113340440Y-72721500D01*
X115921666Y-72721500D01*
X115988705Y-72741185D01*
X116034460Y-72793989D01*
X116044404Y-72863147D01*
X116015379Y-72926703D01*
X116009347Y-72933181D01*
X115705347Y-73237181D01*
X115644024Y-73270666D01*
X115617666Y-73273500D01*
X114491438Y-73273500D01*
X114415010Y-73293978D01*
X114346489Y-73333540D01*
X114346486Y-73333542D01*
X114041847Y-73638181D01*
X113980524Y-73671666D01*
X113954166Y-73674500D01*
X113523482Y-73674500D01*
X113442519Y-73687323D01*
X113429696Y-73689354D01*
X113316658Y-73746950D01*
X113316657Y-73746951D01*
X113316652Y-73746954D01*
X113226954Y-73836652D01*
X113226951Y-73836657D01*
X113169352Y-73949698D01*
X113154500Y-74043475D01*
X113154500Y-74656517D01*
X113162639Y-74707905D01*
X113169354Y-74750304D01*
X113226950Y-74863342D01*
X113226952Y-74863344D01*
X113226954Y-74863347D01*
X113316652Y-74953045D01*
X113316654Y-74953046D01*
X113316658Y-74953050D01*
X113414788Y-75003050D01*
X113429698Y-75010647D01*
X113523475Y-75025499D01*
X113523481Y-75025500D01*
X113986518Y-75025499D01*
X114080304Y-75010646D01*
X114193342Y-74953050D01*
X114283050Y-74863342D01*
X114340646Y-74750304D01*
X114340646Y-74750302D01*
X114340647Y-74750301D01*
X114355499Y-74656524D01*
X114355500Y-74656519D01*
X114355499Y-74225832D01*
X114375183Y-74158794D01*
X114391818Y-74138152D01*
X114619152Y-73910819D01*
X114680475Y-73877334D01*
X114706833Y-73874500D01*
X115833059Y-73874500D01*
X115833061Y-73874500D01*
X115909488Y-73854021D01*
X115978010Y-73814460D01*
X116033959Y-73758511D01*
X118085073Y-71707395D01*
X118123641Y-71684146D01*
X118122741Y-71682304D01*
X118236482Y-71626699D01*
X118319196Y-71543985D01*
X118319198Y-71543983D01*
X118370573Y-71438893D01*
X118380500Y-71370760D01*
X118380500Y-70279240D01*
X118370573Y-70211107D01*
X118319198Y-70106017D01*
X118319196Y-70106015D01*
X118319196Y-70106014D01*
X118236485Y-70023303D01*
X118224604Y-70017495D01*
X118131393Y-69971927D01*
X118131391Y-69971926D01*
X118063261Y-69962000D01*
X118063260Y-69962000D01*
X117696740Y-69962000D01*
X117696739Y-69962000D01*
X117628608Y-69971926D01*
X117523514Y-70023303D01*
X117492681Y-70054137D01*
X117484959Y-70058353D01*
X117479713Y-70065421D01*
X117454761Y-70074842D01*
X117431358Y-70087622D01*
X117422580Y-70086994D01*
X117414348Y-70090103D01*
X117388266Y-70084540D01*
X117361666Y-70082638D01*
X117352825Y-70076981D01*
X117346015Y-70075529D01*
X117318523Y-70055034D01*
X117317675Y-70054492D01*
X117317427Y-70054246D01*
X117286483Y-70023302D01*
X117285985Y-70023058D01*
X117278468Y-70015602D01*
X117266255Y-69993450D01*
X117250636Y-69973554D01*
X117249672Y-69963371D01*
X117244735Y-69954416D01*
X117246436Y-69929177D01*
X117244054Y-69903995D01*
X117248747Y-69894909D01*
X117249436Y-69884704D01*
X117264514Y-69864390D01*
X117276123Y-69841920D01*
X117285177Y-69836552D01*
X117291080Y-69828601D01*
X117311776Y-69820786D01*
X117333696Y-69807792D01*
X117386957Y-69793521D01*
X117455479Y-69753960D01*
X117511428Y-69698011D01*
X117760120Y-69449319D01*
X117821443Y-69415834D01*
X117847801Y-69413000D01*
X118063261Y-69413000D01*
X118085971Y-69409691D01*
X118131393Y-69403073D01*
X118236483Y-69351698D01*
X118319198Y-69268983D01*
X118370573Y-69163893D01*
X118380500Y-69095760D01*
X118380500Y-68004240D01*
X118370573Y-67936107D01*
X118319198Y-67831017D01*
X118319196Y-67831015D01*
X118319196Y-67831014D01*
X118236485Y-67748303D01*
X118131391Y-67696926D01*
X118063261Y-67687000D01*
X118063260Y-67687000D01*
X117696740Y-67687000D01*
X117696739Y-67687000D01*
X117628608Y-67696926D01*
X117523514Y-67748303D01*
X117440803Y-67831014D01*
X117389426Y-67936108D01*
X117379500Y-68004239D01*
X117379500Y-68928635D01*
X117370855Y-68958075D01*
X117364332Y-68988062D01*
X117360577Y-68993077D01*
X117359815Y-68995674D01*
X117343181Y-69016316D01*
X117182816Y-69176681D01*
X117121493Y-69210166D01*
X117095135Y-69213000D01*
X116604500Y-69213000D01*
X116537461Y-69193315D01*
X116491706Y-69140511D01*
X116480500Y-69089000D01*
X116480500Y-68004239D01*
X116470573Y-67936108D01*
X116467944Y-67930730D01*
X116419198Y-67831017D01*
X116419196Y-67831015D01*
X116419196Y-67831014D01*
X116336485Y-67748303D01*
X116231391Y-67696926D01*
X116163261Y-67687000D01*
X116163260Y-67687000D01*
X115796740Y-67687000D01*
X115796739Y-67687000D01*
X115728607Y-67696926D01*
X115728606Y-67696926D01*
X115689457Y-67716065D01*
X115620583Y-67727823D01*
X115556287Y-67700479D01*
X115547317Y-67692345D01*
X115314517Y-67459545D01*
X115314504Y-67459535D01*
X115313341Y-67458864D01*
X115313342Y-67458862D01*
X115313332Y-67458859D01*
X115277404Y-67438116D01*
X115245990Y-67419979D01*
X115220513Y-67413152D01*
X115169562Y-67399500D01*
X115169560Y-67399500D01*
X114373171Y-67399500D01*
X114306132Y-67379815D01*
X114260377Y-67327011D01*
X114250433Y-67257853D01*
X114260789Y-67223096D01*
X114284068Y-67173173D01*
X114284068Y-67173172D01*
X114290500Y-67124316D01*
X114290500Y-66675683D01*
X114286742Y-66647138D01*
X114284068Y-66626827D01*
X114234065Y-66519596D01*
X114150404Y-66435935D01*
X114043173Y-66385932D01*
X114043171Y-66385931D01*
X114043172Y-66385931D01*
X113994317Y-66379500D01*
X113994316Y-66379500D01*
X113757667Y-66379500D01*
X113756102Y-66379040D01*
X113754527Y-66379460D01*
X113695667Y-66362887D01*
X113655991Y-66339980D01*
X113655990Y-66339979D01*
X113630513Y-66333152D01*
X113579562Y-66319500D01*
X113579560Y-66319500D01*
X112944500Y-66319500D01*
X112877461Y-66299815D01*
X112831706Y-66247011D01*
X112820500Y-66195500D01*
X112820500Y-66144500D01*
X112840185Y-66077461D01*
X112892989Y-66031706D01*
X112944500Y-66020500D01*
X113940402Y-66020500D01*
X113942410Y-66020841D01*
X113943542Y-66020540D01*
X113946800Y-66021587D01*
X113981356Y-66027458D01*
X114008199Y-66036850D01*
X114039051Y-66047646D01*
X114045137Y-66048216D01*
X114069480Y-66050500D01*
X114069484Y-66050500D01*
X114778020Y-66050500D01*
X114798304Y-66048597D01*
X114808449Y-66047646D01*
X114854003Y-66031706D01*
X114866144Y-66027458D01*
X114907098Y-66020500D01*
X116055185Y-66020500D01*
X116074582Y-66022026D01*
X116085053Y-66023685D01*
X116096510Y-66025500D01*
X116096512Y-66025500D01*
X116663490Y-66025500D01*
X116674946Y-66023685D01*
X116685417Y-66022026D01*
X116704815Y-66020500D01*
X117435383Y-66020500D01*
X117491677Y-66034015D01*
X117542582Y-66059952D01*
X117640749Y-66075500D01*
X117640754Y-66075500D01*
X118144251Y-66075500D01*
X118242415Y-66059952D01*
X118242415Y-66059951D01*
X118242420Y-66059951D01*
X118248203Y-66057004D01*
X118316867Y-66044105D01*
X118381609Y-66070378D01*
X118421869Y-66127482D01*
X118428500Y-66167487D01*
X118428500Y-66966062D01*
X118433438Y-66984489D01*
X118448979Y-67042490D01*
X118448982Y-67042495D01*
X118488535Y-67111004D01*
X118488541Y-67111012D01*
X120595681Y-69218152D01*
X120610384Y-69245079D01*
X120626977Y-69270898D01*
X120627868Y-69277098D01*
X120629166Y-69279475D01*
X120632000Y-69305833D01*
X120632000Y-69394167D01*
X120612315Y-69461206D01*
X120595681Y-69481848D01*
X120291041Y-69786487D01*
X120291035Y-69786495D01*
X120251482Y-69855004D01*
X120251479Y-69855009D01*
X120242964Y-69886787D01*
X120231000Y-69931438D01*
X120231000Y-73621062D01*
X120234717Y-73634932D01*
X120251479Y-73697490D01*
X120251482Y-73697495D01*
X120274160Y-73736776D01*
X120274161Y-73736776D01*
X120291037Y-73766007D01*
X120291042Y-73766013D01*
X122223181Y-75698152D01*
X122256666Y-75759475D01*
X122259500Y-75785833D01*
X122259500Y-77508668D01*
X122262321Y-77538754D01*
X122262321Y-77538758D01*
X122262322Y-77538759D01*
X122306678Y-77665519D01*
X122386426Y-77773574D01*
X122494481Y-77853322D01*
X122621241Y-77897678D01*
X122636288Y-77899089D01*
X122651332Y-77900500D01*
X122651336Y-77900500D01*
X123248668Y-77900500D01*
X123262039Y-77899245D01*
X123278759Y-77897678D01*
X123405519Y-77853322D01*
X123513574Y-77773574D01*
X123593322Y-77665519D01*
X123637678Y-77538759D01*
X123640500Y-77508664D01*
X123640500Y-74491336D01*
X123637678Y-74461241D01*
X123593322Y-74334481D01*
X123513574Y-74226426D01*
X123405519Y-74146678D01*
X123319294Y-74116506D01*
X123278763Y-74102323D01*
X123278754Y-74102321D01*
X123248668Y-74099500D01*
X123248664Y-74099500D01*
X122651336Y-74099500D01*
X122651332Y-74099500D01*
X122621245Y-74102321D01*
X122621236Y-74102323D01*
X122494481Y-74146678D01*
X122386426Y-74226426D01*
X122306678Y-74334481D01*
X122262323Y-74461236D01*
X122262321Y-74461245D01*
X122259500Y-74491331D01*
X122259500Y-74585167D01*
X122239815Y-74652206D01*
X122187011Y-74697961D01*
X122117853Y-74707905D01*
X122054297Y-74678880D01*
X122047819Y-74672848D01*
X120868319Y-73493348D01*
X120834834Y-73432025D01*
X120832000Y-73405667D01*
X120832000Y-70964500D01*
X120851685Y-70897461D01*
X120904489Y-70851706D01*
X120956000Y-70840500D01*
X121376817Y-70840500D01*
X121393101Y-70838356D01*
X121425673Y-70834068D01*
X121532904Y-70784065D01*
X121559819Y-70757150D01*
X121621142Y-70723665D01*
X121690834Y-70728649D01*
X121735181Y-70757150D01*
X121762096Y-70784065D01*
X121869327Y-70834068D01*
X121918183Y-70840500D01*
X121918184Y-70840500D01*
X122366817Y-70840500D01*
X122383101Y-70838356D01*
X122415673Y-70834068D01*
X122522904Y-70784065D01*
X122600150Y-70706819D01*
X122627077Y-70692115D01*
X122652896Y-70675523D01*
X122659096Y-70674631D01*
X122661473Y-70673334D01*
X122687831Y-70670500D01*
X122778000Y-70670500D01*
X122845039Y-70690185D01*
X122890794Y-70742989D01*
X122902000Y-70794500D01*
X122902000Y-70925760D01*
X122911926Y-70993891D01*
X122963303Y-71098985D01*
X123046014Y-71181696D01*
X123046015Y-71181696D01*
X123046017Y-71181698D01*
X123151107Y-71233073D01*
X123185173Y-71238036D01*
X123219239Y-71243000D01*
X123219240Y-71243000D01*
X123585761Y-71243000D01*
X123608471Y-71239691D01*
X123653893Y-71233073D01*
X123758983Y-71181698D01*
X123841698Y-71098983D01*
X123893073Y-70993893D01*
X123903000Y-70925760D01*
X123903000Y-69834240D01*
X123902178Y-69828601D01*
X123896796Y-69791658D01*
X123893073Y-69766107D01*
X123841698Y-69661017D01*
X123841696Y-69661015D01*
X123841696Y-69661014D01*
X123758985Y-69578303D01*
X123653891Y-69526926D01*
X123585761Y-69517000D01*
X123585760Y-69517000D01*
X123219240Y-69517000D01*
X123219239Y-69517000D01*
X123151108Y-69526926D01*
X123046014Y-69578303D01*
X122963303Y-69661014D01*
X122911926Y-69766108D01*
X122902000Y-69834239D01*
X122902000Y-69945500D01*
X122899449Y-69954185D01*
X122900738Y-69963147D01*
X122889759Y-69987187D01*
X122882315Y-70012539D01*
X122875474Y-70018466D01*
X122871713Y-70026703D01*
X122849478Y-70040992D01*
X122829511Y-70058294D01*
X122818996Y-70060581D01*
X122812935Y-70064477D01*
X122778000Y-70069500D01*
X122687831Y-70069500D01*
X122620792Y-70049815D01*
X122600150Y-70033181D01*
X122522904Y-69955935D01*
X122415673Y-69905932D01*
X122415671Y-69905931D01*
X122415672Y-69905931D01*
X122366817Y-69899500D01*
X122366816Y-69899500D01*
X121918184Y-69899500D01*
X121918183Y-69899500D01*
X121869328Y-69905931D01*
X121762095Y-69955935D01*
X121735181Y-69982850D01*
X121727430Y-69987082D01*
X121722162Y-69994172D01*
X121697235Y-70003569D01*
X121673858Y-70016335D01*
X121665048Y-70015705D01*
X121656784Y-70018821D01*
X121630736Y-70013251D01*
X121604166Y-70011351D01*
X121595296Y-70005673D01*
X121588459Y-70004211D01*
X121560868Y-69983632D01*
X121560130Y-69983160D01*
X121559988Y-69983019D01*
X121532904Y-69955935D01*
X121532540Y-69955765D01*
X121524711Y-69947991D01*
X121512784Y-69926332D01*
X121497343Y-69907023D01*
X121496227Y-69896263D01*
X121491009Y-69886787D01*
X121492685Y-69862116D01*
X121490135Y-69837526D01*
X121495012Y-69827872D01*
X121495746Y-69817078D01*
X121510494Y-69797230D01*
X121521643Y-69775165D01*
X121525403Y-69771906D01*
X121525233Y-69771736D01*
X121566429Y-69730540D01*
X121616565Y-69680404D01*
X121666568Y-69573173D01*
X121673000Y-69524316D01*
X121673000Y-69175684D01*
X121671447Y-69163891D01*
X121666568Y-69126828D01*
X121652081Y-69095760D01*
X121616565Y-69019596D01*
X121532904Y-68935935D01*
X121425673Y-68885932D01*
X121425671Y-68885931D01*
X121425672Y-68885931D01*
X121376817Y-68879500D01*
X121376816Y-68879500D01*
X121158333Y-68879500D01*
X121091294Y-68859815D01*
X121070652Y-68843181D01*
X119065819Y-66838348D01*
X119032334Y-66777025D01*
X119029500Y-66750667D01*
X119029500Y-66191186D01*
X119049185Y-66124147D01*
X119101989Y-66078392D01*
X119171147Y-66068448D01*
X119172898Y-66068713D01*
X119215749Y-66075500D01*
X119215754Y-66075500D01*
X119719251Y-66075500D01*
X119817417Y-66059952D01*
X119817418Y-66059951D01*
X119817420Y-66059951D01*
X119907574Y-66014014D01*
X119963868Y-66000500D01*
X120385506Y-66000500D01*
X120441800Y-66014015D01*
X120511876Y-66049720D01*
X120611507Y-66065500D01*
X120611512Y-66065500D01*
X121178493Y-66065500D01*
X121278123Y-66049720D01*
X121278124Y-66049719D01*
X121278126Y-66049719D01*
X121332475Y-66022027D01*
X121348200Y-66014015D01*
X121361202Y-66010893D01*
X121369559Y-66005523D01*
X121404494Y-66000500D01*
X121555500Y-66000500D01*
X121622539Y-66020185D01*
X121668294Y-66072989D01*
X121679500Y-66124500D01*
X121679500Y-66336007D01*
X121684197Y-66379686D01*
X121695402Y-66431194D01*
X121697889Y-66441372D01*
X121702872Y-66450724D01*
X121715052Y-66484831D01*
X121715192Y-66485537D01*
X121715196Y-66485546D01*
X121774980Y-66575019D01*
X121810819Y-66598965D01*
X121864456Y-66634805D01*
X121891465Y-66640177D01*
X121902189Y-66642812D01*
X121951102Y-66657175D01*
X122009000Y-66665500D01*
X122009004Y-66665500D01*
X122630991Y-66665500D01*
X122631000Y-66665500D01*
X122674684Y-66660803D01*
X122726195Y-66649597D01*
X122731284Y-66648353D01*
X122736365Y-66647112D01*
X122736365Y-66647111D01*
X122736373Y-66647110D01*
X122736379Y-66647106D01*
X122740406Y-66645570D01*
X122760436Y-66639798D01*
X122785544Y-66634805D01*
X122875019Y-66575019D01*
X122934805Y-66485544D01*
X122935957Y-66479752D01*
X122950499Y-66406647D01*
X122950700Y-66404606D01*
X122951695Y-66398302D01*
X122951544Y-66398281D01*
X122952173Y-66393903D01*
X122952175Y-66393898D01*
X122960500Y-66336000D01*
X122960500Y-64784000D01*
X122955803Y-64740316D01*
X122950500Y-64715939D01*
X122950500Y-64713360D01*
X122934805Y-64634456D01*
X122920253Y-64612678D01*
X122914920Y-64593930D01*
X122915057Y-64577702D01*
X122910208Y-64562218D01*
X122915345Y-64543486D01*
X122915510Y-64524063D01*
X122924397Y-64510487D01*
X122928690Y-64494837D01*
X122931058Y-64491150D01*
X122934805Y-64485544D01*
X122935533Y-64481887D01*
X122950499Y-64406644D01*
X122950500Y-64406642D01*
X122950500Y-64213357D01*
X122950499Y-64213355D01*
X122934806Y-64134460D01*
X122934805Y-64134459D01*
X122934805Y-64134456D01*
X122888096Y-64064552D01*
X122875019Y-64044980D01*
X122819499Y-64007883D01*
X122785544Y-63985195D01*
X122785542Y-63985194D01*
X122785539Y-63985193D01*
X122730308Y-63974207D01*
X122668397Y-63941822D01*
X122633823Y-63881106D01*
X122630500Y-63852590D01*
X122630500Y-63189500D01*
X122650185Y-63122461D01*
X122702989Y-63076706D01*
X122754500Y-63065500D01*
X123034270Y-63065500D01*
X123064699Y-63062646D01*
X123064701Y-63062646D01*
X123128790Y-63040219D01*
X123192882Y-63017793D01*
X123302150Y-62937150D01*
X123382793Y-62827882D01*
X123405219Y-62763790D01*
X123427646Y-62699701D01*
X123427646Y-62699699D01*
X123430500Y-62669269D01*
X123430500Y-61910730D01*
X123427646Y-61880300D01*
X123427646Y-61880298D01*
X123387587Y-61765819D01*
X123384024Y-61696041D01*
X123416946Y-61637184D01*
X123455620Y-61598511D01*
X125359460Y-59694671D01*
X125388425Y-59644500D01*
X125388606Y-59644328D01*
X125388667Y-59644081D01*
X125388670Y-59644076D01*
X125413958Y-59620153D01*
X125438988Y-59596287D01*
X125439238Y-59596238D01*
X125439424Y-59596063D01*
X125473496Y-59589635D01*
X125507595Y-59583062D01*
X125507918Y-59583141D01*
X125508083Y-59583110D01*
X125509554Y-59583541D01*
X125542349Y-59591565D01*
X125547319Y-59593577D01*
X125639696Y-59640646D01*
X125678899Y-59646855D01*
X125692038Y-59652175D01*
X125708756Y-59665429D01*
X125728032Y-59674567D01*
X125735587Y-59686700D01*
X125746789Y-59695581D01*
X125753687Y-59715767D01*
X125764964Y-59733878D01*
X125768348Y-59758672D01*
X125769382Y-59761698D01*
X125768982Y-59763317D01*
X125769500Y-59767111D01*
X125769500Y-61738295D01*
X125749815Y-61805334D01*
X125697011Y-61851089D01*
X125627853Y-61861033D01*
X125626103Y-61860769D01*
X125586519Y-61854500D01*
X124973482Y-61854500D01*
X124892519Y-61867323D01*
X124879696Y-61869354D01*
X124766658Y-61926950D01*
X124766657Y-61926951D01*
X124766652Y-61926954D01*
X124676954Y-62016652D01*
X124676951Y-62016657D01*
X124619352Y-62129698D01*
X124604500Y-62223475D01*
X124604500Y-62686517D01*
X124615292Y-62754657D01*
X124619354Y-62780304D01*
X124676950Y-62893342D01*
X124676952Y-62893344D01*
X124676954Y-62893347D01*
X124766652Y-62983045D01*
X124766654Y-62983046D01*
X124766658Y-62983050D01*
X124879696Y-63040646D01*
X124879698Y-63040647D01*
X124888980Y-63043663D01*
X124888162Y-63046177D01*
X124938019Y-63069803D01*
X124974959Y-63129109D01*
X124979500Y-63162359D01*
X124979500Y-63850601D01*
X124959815Y-63917640D01*
X124907011Y-63963395D01*
X124879691Y-63972218D01*
X124814460Y-63985193D01*
X124814456Y-63985195D01*
X124724980Y-64044980D01*
X124665195Y-64134456D01*
X124665193Y-64134460D01*
X124649500Y-64213355D01*
X124649500Y-64406644D01*
X124665193Y-64485539D01*
X124665195Y-64485544D01*
X124668916Y-64491113D01*
X124689791Y-64557791D01*
X124671304Y-64625170D01*
X124668916Y-64628887D01*
X124665195Y-64634455D01*
X124665193Y-64634460D01*
X124649500Y-64713355D01*
X124649500Y-64906644D01*
X124665193Y-64985539D01*
X124665195Y-64985544D01*
X124668916Y-64991113D01*
X124689791Y-65057791D01*
X124683537Y-65098945D01*
X124678255Y-65114909D01*
X124665195Y-65134456D01*
X124655660Y-65182390D01*
X124653516Y-65189690D01*
X124653500Y-65189740D01*
X124642827Y-65226091D01*
X124634500Y-65284003D01*
X124634500Y-67773073D01*
X124627542Y-67814027D01*
X124597353Y-67900301D01*
X124594500Y-67930730D01*
X124594500Y-68989269D01*
X124597353Y-69019699D01*
X124597353Y-69019701D01*
X124642206Y-69147880D01*
X124642207Y-69147882D01*
X124690266Y-69213000D01*
X124717695Y-69250166D01*
X124722850Y-69257150D01*
X124744132Y-69272857D01*
X124786384Y-69328503D01*
X124794500Y-69372628D01*
X124794500Y-70415893D01*
X124797775Y-70428115D01*
X124802000Y-70460207D01*
X124802000Y-70925760D01*
X124811926Y-70993891D01*
X124863303Y-71098985D01*
X124943637Y-71179319D01*
X124977122Y-71240642D01*
X124972138Y-71310334D01*
X124930266Y-71366267D01*
X124864802Y-71390684D01*
X124855956Y-71391000D01*
X123971970Y-71391000D01*
X123921018Y-71404652D01*
X123895542Y-71411479D01*
X123863969Y-71429708D01*
X123832396Y-71447937D01*
X123832393Y-71447939D01*
X123827017Y-71451042D01*
X123522380Y-71755681D01*
X123461057Y-71789166D01*
X123434699Y-71792000D01*
X123219239Y-71792000D01*
X123151108Y-71801926D01*
X123046014Y-71853303D01*
X122963303Y-71936014D01*
X122911926Y-72041108D01*
X122902000Y-72109239D01*
X122902000Y-73200760D01*
X122911926Y-73268891D01*
X122963303Y-73373985D01*
X123046014Y-73456696D01*
X123046015Y-73456696D01*
X123046017Y-73456698D01*
X123151107Y-73508073D01*
X123185173Y-73513036D01*
X123219239Y-73518000D01*
X123219240Y-73518000D01*
X123585761Y-73518000D01*
X123608471Y-73514691D01*
X123653893Y-73508073D01*
X123758983Y-73456698D01*
X123841698Y-73373983D01*
X123893073Y-73268893D01*
X123903000Y-73200760D01*
X123903000Y-72276365D01*
X123911644Y-72246924D01*
X123918168Y-72216938D01*
X123921922Y-72211922D01*
X123922685Y-72209326D01*
X123939319Y-72188684D01*
X124099684Y-72028319D01*
X124161007Y-71994834D01*
X124187365Y-71992000D01*
X124678000Y-71992000D01*
X124745039Y-72011685D01*
X124790794Y-72064489D01*
X124802000Y-72116000D01*
X124802000Y-72287664D01*
X124785388Y-72349663D01*
X124742923Y-72423215D01*
X124742923Y-72423216D01*
X124702000Y-72575943D01*
X124702000Y-74259367D01*
X124682315Y-74326406D01*
X124677772Y-74332999D01*
X124676678Y-74334480D01*
X124676677Y-74334482D01*
X124632323Y-74461236D01*
X124632321Y-74461245D01*
X124629500Y-74491331D01*
X124629500Y-77508668D01*
X124632321Y-77538754D01*
X124632321Y-77538758D01*
X124632322Y-77538759D01*
X124676678Y-77665519D01*
X124756426Y-77773574D01*
X124864481Y-77853322D01*
X124991241Y-77897678D01*
X125006288Y-77899089D01*
X125021332Y-77900500D01*
X125021336Y-77900500D01*
X125618668Y-77900500D01*
X125632039Y-77899245D01*
X125648759Y-77897678D01*
X125775519Y-77853322D01*
X125883574Y-77773574D01*
X125963322Y-77665519D01*
X126007678Y-77538759D01*
X126010500Y-77508664D01*
X126010500Y-74491336D01*
X126007678Y-74461241D01*
X125963322Y-74334481D01*
X125963321Y-74334479D01*
X125927230Y-74285577D01*
X125903259Y-74219948D01*
X125903000Y-74211944D01*
X125903000Y-72675365D01*
X125909238Y-72654119D01*
X125910818Y-72632031D01*
X125918890Y-72621247D01*
X125922685Y-72608326D01*
X125939418Y-72593826D01*
X125952690Y-72576098D01*
X125965310Y-72571390D01*
X125975489Y-72562571D01*
X125997406Y-72559419D01*
X126018154Y-72551681D01*
X126031314Y-72554543D01*
X126044647Y-72552627D01*
X126064790Y-72561826D01*
X126086427Y-72566533D01*
X126104152Y-72579801D01*
X126108203Y-72581652D01*
X126114681Y-72587684D01*
X126262181Y-72735184D01*
X126295666Y-72796507D01*
X126298500Y-72822865D01*
X126298500Y-74358562D01*
X126309467Y-74399490D01*
X126318979Y-74434990D01*
X126329437Y-74453103D01*
X126342338Y-74475448D01*
X126351508Y-74491331D01*
X126358539Y-74503509D01*
X126358541Y-74503512D01*
X126663181Y-74808152D01*
X126696666Y-74869475D01*
X126699500Y-74895833D01*
X126699500Y-76639752D01*
X126711131Y-76698229D01*
X126711132Y-76698230D01*
X126755447Y-76764552D01*
X126821769Y-76808867D01*
X126821770Y-76808868D01*
X126880247Y-76820499D01*
X126880250Y-76820500D01*
X126880252Y-76820500D01*
X127493885Y-76820500D01*
X127560924Y-76840185D01*
X127606679Y-76892989D01*
X127607029Y-76893761D01*
X127611090Y-76902818D01*
X127619979Y-76935989D01*
X127643628Y-76976950D01*
X127659540Y-77004511D01*
X129195540Y-78540511D01*
X129251489Y-78596460D01*
X129251491Y-78596461D01*
X129251495Y-78596464D01*
X129320004Y-78636017D01*
X129320011Y-78636021D01*
X129396438Y-78656500D01*
X129396440Y-78656500D01*
X153205560Y-78656500D01*
X153205562Y-78656500D01*
X153281989Y-78636021D01*
X153350511Y-78596460D01*
X153406460Y-78540511D01*
X156714024Y-75232947D01*
X158409500Y-75232947D01*
X158409500Y-75567052D01*
X158442247Y-75899548D01*
X158442250Y-75899565D01*
X158507425Y-76227230D01*
X158507428Y-76227241D01*
X158604418Y-76546977D01*
X158642846Y-76639750D01*
X158727960Y-76845233D01*
X158732278Y-76855656D01*
X158732280Y-76855661D01*
X158889769Y-77150303D01*
X158889780Y-77150321D01*
X159075393Y-77428109D01*
X159075403Y-77428123D01*
X159287361Y-77686395D01*
X159523604Y-77922638D01*
X159523609Y-77922642D01*
X159523610Y-77922643D01*
X159781882Y-78134601D01*
X160059685Y-78320224D01*
X160059694Y-78320229D01*
X160059696Y-78320230D01*
X160354338Y-78477719D01*
X160354340Y-78477719D01*
X160354346Y-78477723D01*
X160663024Y-78605582D01*
X160982749Y-78702569D01*
X160982755Y-78702570D01*
X160982758Y-78702571D01*
X160982769Y-78702574D01*
X161188243Y-78743444D01*
X161310441Y-78767751D01*
X161642944Y-78800500D01*
X161642947Y-78800500D01*
X161977053Y-78800500D01*
X161977056Y-78800500D01*
X162309559Y-78767751D01*
X162471757Y-78735487D01*
X162637230Y-78702574D01*
X162637241Y-78702571D01*
X162637241Y-78702570D01*
X162637251Y-78702569D01*
X162956976Y-78605582D01*
X163265654Y-78477723D01*
X163560315Y-78320224D01*
X163838118Y-78134601D01*
X164096390Y-77922643D01*
X164332643Y-77686390D01*
X164544601Y-77428118D01*
X164730224Y-77150315D01*
X164887723Y-76855654D01*
X165015582Y-76546976D01*
X165112569Y-76227251D01*
X165112571Y-76227241D01*
X165112574Y-76227230D01*
X165145487Y-76061757D01*
X165177751Y-75899559D01*
X165210500Y-75567056D01*
X165210500Y-75232944D01*
X165177751Y-74900441D01*
X165147887Y-74750304D01*
X165112574Y-74572769D01*
X165112571Y-74572758D01*
X165112570Y-74572755D01*
X165112569Y-74572749D01*
X165015582Y-74253024D01*
X164887723Y-73944346D01*
X164862297Y-73896778D01*
X164730230Y-73649696D01*
X164730229Y-73649694D01*
X164730224Y-73649685D01*
X164544601Y-73371882D01*
X164332643Y-73113610D01*
X164332642Y-73113609D01*
X164332638Y-73113604D01*
X164096395Y-72877361D01*
X163838123Y-72665403D01*
X163838122Y-72665402D01*
X163838118Y-72665399D01*
X163623233Y-72521817D01*
X163560321Y-72479780D01*
X163560320Y-72479779D01*
X163560315Y-72479776D01*
X163560310Y-72479773D01*
X163560303Y-72479769D01*
X163265661Y-72322280D01*
X163265656Y-72322278D01*
X162956977Y-72194418D01*
X162637241Y-72097428D01*
X162637230Y-72097425D01*
X162309565Y-72032250D01*
X162309548Y-72032247D01*
X162058108Y-72007483D01*
X161977056Y-71999500D01*
X161642944Y-71999500D01*
X161567982Y-72006883D01*
X161310451Y-72032247D01*
X161310434Y-72032250D01*
X160982769Y-72097425D01*
X160982758Y-72097428D01*
X160663022Y-72194418D01*
X160354343Y-72322278D01*
X160354338Y-72322280D01*
X160059696Y-72479769D01*
X160059678Y-72479780D01*
X159781890Y-72665393D01*
X159781876Y-72665403D01*
X159523604Y-72877361D01*
X159287361Y-73113604D01*
X159075403Y-73371876D01*
X159075393Y-73371890D01*
X158889780Y-73649678D01*
X158889769Y-73649696D01*
X158732280Y-73944338D01*
X158732278Y-73944343D01*
X158604418Y-74253022D01*
X158507428Y-74572758D01*
X158507425Y-74572769D01*
X158442250Y-74900434D01*
X158442247Y-74900451D01*
X158409500Y-75232947D01*
X156714024Y-75232947D01*
X165430460Y-66516511D01*
X165437677Y-66504011D01*
X165470021Y-66447989D01*
X165490500Y-66371562D01*
X165490500Y-59754500D01*
X165510185Y-59687461D01*
X165562989Y-59641706D01*
X165614500Y-59630500D01*
X166459750Y-59630500D01*
X166459751Y-59630499D01*
X166481622Y-59626149D01*
X166518229Y-59618868D01*
X166518229Y-59618867D01*
X166518231Y-59618867D01*
X166584552Y-59574552D01*
X166628867Y-59508231D01*
X166628867Y-59508229D01*
X166628868Y-59508229D01*
X166640499Y-59449752D01*
X166640500Y-59449750D01*
X166640500Y-57610249D01*
X166640499Y-57610247D01*
X166628868Y-57551770D01*
X166628867Y-57551769D01*
X166584552Y-57485447D01*
X166518230Y-57441132D01*
X166518229Y-57441131D01*
X166459752Y-57429500D01*
X166459748Y-57429500D01*
X164063500Y-57429500D01*
X163996461Y-57409815D01*
X163950706Y-57357011D01*
X163939500Y-57305500D01*
X163939500Y-54826833D01*
X163948144Y-54797392D01*
X163954668Y-54767406D01*
X163958422Y-54762390D01*
X163959185Y-54759794D01*
X163975819Y-54739152D01*
X164128152Y-54586819D01*
X164189475Y-54553334D01*
X164215833Y-54550500D01*
X166459750Y-54550500D01*
X166459751Y-54550499D01*
X166474568Y-54547552D01*
X166518229Y-54538868D01*
X166518229Y-54538867D01*
X166518231Y-54538867D01*
X166584552Y-54494552D01*
X166628867Y-54428231D01*
X166628867Y-54428229D01*
X166628868Y-54428229D01*
X166640499Y-54369752D01*
X166640500Y-54369750D01*
X166640500Y-52530249D01*
X166640499Y-52530247D01*
X166628868Y-52471770D01*
X166628867Y-52471769D01*
X166584552Y-52405447D01*
X166518230Y-52361132D01*
X166518229Y-52361131D01*
X166459752Y-52349500D01*
X166459748Y-52349500D01*
X164262833Y-52349500D01*
X164241587Y-52343261D01*
X164219499Y-52341682D01*
X164208715Y-52333609D01*
X164195794Y-52329815D01*
X164181294Y-52313081D01*
X164163566Y-52299810D01*
X164158858Y-52287189D01*
X164150039Y-52277011D01*
X164146887Y-52255093D01*
X164139149Y-52234346D01*
X164142011Y-52221185D01*
X164140095Y-52207853D01*
X164149294Y-52187709D01*
X164154001Y-52166073D01*
X164167269Y-52148347D01*
X164169120Y-52144297D01*
X164175152Y-52137819D01*
X164266152Y-52046819D01*
X164327475Y-52013334D01*
X164353833Y-52010500D01*
X166459750Y-52010500D01*
X166459751Y-52010499D01*
X166474568Y-52007552D01*
X166518229Y-51998868D01*
X166518229Y-51998867D01*
X166518231Y-51998867D01*
X166584552Y-51954552D01*
X166628867Y-51888231D01*
X166628867Y-51888229D01*
X166628868Y-51888229D01*
X166640499Y-51829752D01*
X166640500Y-51829750D01*
X166640500Y-49990249D01*
X166640499Y-49990247D01*
X166628868Y-49931770D01*
X166628867Y-49931769D01*
X166584552Y-49865447D01*
X166518230Y-49821132D01*
X166518229Y-49821131D01*
X166459752Y-49809500D01*
X166459748Y-49809500D01*
X163920252Y-49809500D01*
X163920247Y-49809500D01*
X163861770Y-49821131D01*
X163861769Y-49821132D01*
X163795447Y-49865447D01*
X163751132Y-49931769D01*
X163751131Y-49931770D01*
X163739500Y-49990247D01*
X163739500Y-51672167D01*
X163719815Y-51739206D01*
X163703181Y-51759848D01*
X162401681Y-53061348D01*
X162340358Y-53094833D01*
X162270666Y-53089849D01*
X162214733Y-53047977D01*
X162190316Y-52982513D01*
X162190000Y-52973667D01*
X162190000Y-47450247D01*
X163739500Y-47450247D01*
X163739500Y-49289752D01*
X163751131Y-49348229D01*
X163751132Y-49348230D01*
X163795447Y-49414552D01*
X163861769Y-49458867D01*
X163861770Y-49458868D01*
X163920247Y-49470499D01*
X163920250Y-49470500D01*
X163920252Y-49470500D01*
X166459750Y-49470500D01*
X166459751Y-49470499D01*
X166474568Y-49467552D01*
X166518229Y-49458868D01*
X166518229Y-49458867D01*
X166518231Y-49458867D01*
X166584552Y-49414552D01*
X166628867Y-49348231D01*
X166628867Y-49348229D01*
X166628868Y-49348229D01*
X166640499Y-49289752D01*
X166640500Y-49289750D01*
X166640500Y-47450249D01*
X166640499Y-47450247D01*
X166628868Y-47391770D01*
X166628867Y-47391769D01*
X166584552Y-47325447D01*
X166518230Y-47281132D01*
X166518229Y-47281131D01*
X166459752Y-47269500D01*
X166459748Y-47269500D01*
X163920252Y-47269500D01*
X163920247Y-47269500D01*
X163861770Y-47281131D01*
X163861769Y-47281132D01*
X163795447Y-47325447D01*
X163751132Y-47391769D01*
X163751131Y-47391770D01*
X163739500Y-47450247D01*
X162190000Y-47450247D01*
X162190000Y-44910247D01*
X163739500Y-44910247D01*
X163739500Y-46749752D01*
X163751131Y-46808229D01*
X163751132Y-46808230D01*
X163795447Y-46874552D01*
X163861769Y-46918867D01*
X163861770Y-46918868D01*
X163920247Y-46930499D01*
X163920250Y-46930500D01*
X163920252Y-46930500D01*
X166459750Y-46930500D01*
X166459751Y-46930499D01*
X166474568Y-46927552D01*
X166518229Y-46918868D01*
X166518229Y-46918867D01*
X166518231Y-46918867D01*
X166584552Y-46874552D01*
X166628867Y-46808231D01*
X166628867Y-46808229D01*
X166628868Y-46808229D01*
X166640499Y-46749752D01*
X166640500Y-46749750D01*
X166640500Y-44910249D01*
X166640499Y-44910247D01*
X166628868Y-44851770D01*
X166628867Y-44851769D01*
X166584552Y-44785447D01*
X166518230Y-44741132D01*
X166518229Y-44741131D01*
X166459752Y-44729500D01*
X166459748Y-44729500D01*
X163920252Y-44729500D01*
X163920247Y-44729500D01*
X163861770Y-44741131D01*
X163861769Y-44741132D01*
X163795447Y-44785447D01*
X163751132Y-44851769D01*
X163751131Y-44851770D01*
X163739500Y-44910247D01*
X162190000Y-44910247D01*
X162190000Y-42180000D01*
X155190000Y-42180000D01*
X155190000Y-62180000D01*
X161608503Y-62180000D01*
X161675542Y-62199685D01*
X161721297Y-62252489D01*
X161731241Y-62321647D01*
X161702216Y-62385203D01*
X161696184Y-62391681D01*
X158964684Y-65123181D01*
X158903361Y-65156666D01*
X158877003Y-65159500D01*
X154624500Y-65159500D01*
X154557461Y-65139815D01*
X154511706Y-65087011D01*
X154500500Y-65035500D01*
X154500500Y-64440249D01*
X154500499Y-64440247D01*
X154488868Y-64381770D01*
X154488867Y-64381769D01*
X154444552Y-64315448D01*
X154429923Y-64305673D01*
X154411108Y-64293101D01*
X154366304Y-64239490D01*
X154357597Y-64170166D01*
X154387751Y-64107138D01*
X154411109Y-64086898D01*
X154444552Y-64064552D01*
X154488867Y-63998231D01*
X154488867Y-63998229D01*
X154488868Y-63998229D01*
X154500499Y-63939752D01*
X154500500Y-63939750D01*
X154500500Y-62949833D01*
X154520185Y-62882794D01*
X154572989Y-62837039D01*
X154642147Y-62827095D01*
X154705703Y-62856120D01*
X154712181Y-62862152D01*
X155663181Y-63813152D01*
X155696666Y-63874475D01*
X155699500Y-63900833D01*
X155699500Y-64331517D01*
X155710292Y-64399657D01*
X155714354Y-64425304D01*
X155771950Y-64538342D01*
X155771952Y-64538344D01*
X155771954Y-64538347D01*
X155861652Y-64628045D01*
X155861654Y-64628046D01*
X155861658Y-64628050D01*
X155958381Y-64677333D01*
X155974698Y-64685647D01*
X156068475Y-64700499D01*
X156068481Y-64700500D01*
X156531518Y-64700499D01*
X156625304Y-64685646D01*
X156738342Y-64628050D01*
X156828050Y-64538342D01*
X156885646Y-64425304D01*
X156885646Y-64425302D01*
X156885647Y-64425301D01*
X156900499Y-64331524D01*
X156900500Y-64331519D01*
X156900499Y-63718482D01*
X156885646Y-63624696D01*
X156828050Y-63511658D01*
X156828046Y-63511654D01*
X156828045Y-63511652D01*
X156738347Y-63421954D01*
X156738344Y-63421952D01*
X156738342Y-63421950D01*
X156661517Y-63382805D01*
X156625301Y-63364352D01*
X156531524Y-63349500D01*
X156100833Y-63349500D01*
X156033794Y-63329815D01*
X156013152Y-63313181D01*
X155091652Y-62391681D01*
X155058167Y-62330358D01*
X155059493Y-62311803D01*
X155048353Y-62313405D01*
X155028209Y-62304205D01*
X155006573Y-62299499D01*
X154988847Y-62286230D01*
X154984797Y-62284380D01*
X154978319Y-62278348D01*
X154937819Y-62237848D01*
X154904334Y-62176525D01*
X154901500Y-62150167D01*
X154901500Y-59101439D01*
X154901500Y-59101438D01*
X154881021Y-59025011D01*
X154842556Y-58958387D01*
X154841464Y-58956495D01*
X154841458Y-58956487D01*
X154536819Y-58651848D01*
X154503334Y-58590525D01*
X154500500Y-58564167D01*
X154500500Y-56820249D01*
X154500499Y-56820247D01*
X154488868Y-56761770D01*
X154488867Y-56761769D01*
X154444552Y-56695448D01*
X154444551Y-56695447D01*
X154411108Y-56673101D01*
X154366304Y-56619490D01*
X154357597Y-56550166D01*
X154387751Y-56487138D01*
X154411109Y-56466898D01*
X154444552Y-56444552D01*
X154488867Y-56378231D01*
X154488867Y-56378229D01*
X154488868Y-56378229D01*
X154500499Y-56319752D01*
X154500500Y-56319750D01*
X154500500Y-54280249D01*
X154500499Y-54280247D01*
X154488868Y-54221770D01*
X154488867Y-54221769D01*
X154444552Y-54155448D01*
X154444551Y-54155447D01*
X154411108Y-54133101D01*
X154366304Y-54079490D01*
X154357597Y-54010166D01*
X154387751Y-53947138D01*
X154411109Y-53926898D01*
X154444552Y-53904552D01*
X154488867Y-53838231D01*
X154488867Y-53838229D01*
X154488868Y-53838229D01*
X154500499Y-53779752D01*
X154500500Y-53779750D01*
X154500500Y-51740249D01*
X154500499Y-51740247D01*
X154488868Y-51681770D01*
X154488867Y-51681769D01*
X154444552Y-51615448D01*
X154444551Y-51615447D01*
X154411108Y-51593101D01*
X154366304Y-51539490D01*
X154357597Y-51470166D01*
X154387751Y-51407138D01*
X154411109Y-51386898D01*
X154444552Y-51364552D01*
X154488867Y-51298231D01*
X154488867Y-51298229D01*
X154488868Y-51298229D01*
X154500499Y-51239752D01*
X154500500Y-51239750D01*
X154500500Y-49200249D01*
X154500499Y-49200247D01*
X154488868Y-49141770D01*
X154488867Y-49141769D01*
X154444552Y-49075448D01*
X154444551Y-49075447D01*
X154411108Y-49053101D01*
X154366304Y-48999490D01*
X154357597Y-48930166D01*
X154387751Y-48867138D01*
X154411109Y-48846898D01*
X154444552Y-48824552D01*
X154488867Y-48758231D01*
X154488867Y-48758229D01*
X154488868Y-48758229D01*
X154500499Y-48699752D01*
X154500500Y-48699750D01*
X154500500Y-46660249D01*
X154500499Y-46660247D01*
X154488868Y-46601770D01*
X154488867Y-46601769D01*
X154444552Y-46535448D01*
X154444551Y-46535447D01*
X154411108Y-46513101D01*
X154366304Y-46459490D01*
X154357597Y-46390166D01*
X154387751Y-46327138D01*
X154411109Y-46306898D01*
X154444552Y-46284552D01*
X154488867Y-46218231D01*
X154488867Y-46218229D01*
X154488868Y-46218229D01*
X154500499Y-46159752D01*
X154500500Y-46159750D01*
X154500500Y-44120249D01*
X154500499Y-44120247D01*
X154488868Y-44061770D01*
X154488867Y-44061769D01*
X154444552Y-43995448D01*
X154444551Y-43995447D01*
X154411108Y-43973101D01*
X154366304Y-43919490D01*
X154357597Y-43850166D01*
X154387751Y-43787138D01*
X154411109Y-43766898D01*
X154444552Y-43744552D01*
X154488867Y-43678231D01*
X154488867Y-43678229D01*
X154488868Y-43678229D01*
X154500499Y-43619752D01*
X154500500Y-43619750D01*
X154500500Y-41580249D01*
X154500499Y-41580247D01*
X154488868Y-41521770D01*
X154488867Y-41521769D01*
X154444552Y-41455448D01*
X154414620Y-41435448D01*
X154411108Y-41433101D01*
X154366304Y-41379490D01*
X154357597Y-41310166D01*
X154387751Y-41247138D01*
X154411109Y-41226898D01*
X154444552Y-41204552D01*
X154488867Y-41138231D01*
X154488867Y-41138229D01*
X154488868Y-41138229D01*
X154500350Y-41080500D01*
X154500500Y-41079748D01*
X154500500Y-39335833D01*
X154520185Y-39268794D01*
X154536819Y-39248152D01*
X154802821Y-38982149D01*
X154864142Y-38948666D01*
X154933833Y-38953650D01*
X154989767Y-38995521D01*
X155014184Y-39060986D01*
X155014500Y-39069832D01*
X155014500Y-39356517D01*
X155021940Y-39403493D01*
X155029354Y-39450304D01*
X155086950Y-39563342D01*
X155086952Y-39563344D01*
X155086954Y-39563347D01*
X155176652Y-39653045D01*
X155176654Y-39653046D01*
X155176658Y-39653050D01*
X155289696Y-39710646D01*
X155294893Y-39711469D01*
X155358029Y-39741396D01*
X155394963Y-39800706D01*
X155399500Y-39833943D01*
X155399500Y-40121323D01*
X155379815Y-40188362D01*
X155363182Y-40209004D01*
X155299500Y-40272686D01*
X155233608Y-40386812D01*
X155199500Y-40514108D01*
X155199500Y-40645891D01*
X155233608Y-40773187D01*
X155266554Y-40830250D01*
X155299500Y-40887314D01*
X155392686Y-40980500D01*
X155506814Y-41046392D01*
X155634108Y-41080500D01*
X155634110Y-41080500D01*
X155765890Y-41080500D01*
X155765892Y-41080500D01*
X155893186Y-41046392D01*
X156007314Y-40980500D01*
X156100500Y-40887314D01*
X156166392Y-40773186D01*
X156200500Y-40645892D01*
X156200500Y-40514108D01*
X156166392Y-40386814D01*
X156100500Y-40272686D01*
X156036818Y-40209004D01*
X156003334Y-40147680D01*
X156000500Y-40121323D01*
X156000500Y-39829916D01*
X156020185Y-39762877D01*
X156072989Y-39717122D01*
X156086181Y-39711985D01*
X156090296Y-39710647D01*
X156090304Y-39710646D01*
X156203342Y-39653050D01*
X156293050Y-39563342D01*
X156328787Y-39493203D01*
X156376761Y-39442409D01*
X156439271Y-39425500D01*
X156984968Y-39425500D01*
X157052007Y-39445185D01*
X157095037Y-39494845D01*
X157095851Y-39494431D01*
X157097523Y-39497714D01*
X157097762Y-39497989D01*
X157098079Y-39498804D01*
X157100280Y-39503125D01*
X157100281Y-39503126D01*
X157161472Y-39623220D01*
X157161474Y-39623222D01*
X157161476Y-39623225D01*
X157256774Y-39718523D01*
X157256778Y-39718526D01*
X157256780Y-39718528D01*
X157376874Y-39779719D01*
X157376876Y-39779719D01*
X157376878Y-39779720D01*
X157476507Y-39795500D01*
X157476512Y-39795500D01*
X157993493Y-39795500D01*
X158093121Y-39779720D01*
X158093121Y-39779719D01*
X158093126Y-39779719D01*
X158213220Y-39718528D01*
X158308528Y-39623220D01*
X158369719Y-39503126D01*
X158371096Y-39494431D01*
X158385500Y-39403493D01*
X158385500Y-38836506D01*
X158369720Y-38736878D01*
X158369719Y-38736876D01*
X158369719Y-38736874D01*
X158308528Y-38616780D01*
X158308526Y-38616778D01*
X158308523Y-38616774D01*
X158213225Y-38521476D01*
X158213221Y-38521473D01*
X158213220Y-38521472D01*
X158093126Y-38460281D01*
X158093124Y-38460280D01*
X158093121Y-38460279D01*
X157993493Y-38444500D01*
X157993488Y-38444500D01*
X157743896Y-38444500D01*
X157676857Y-38424815D01*
X157631102Y-38372011D01*
X157621158Y-38302853D01*
X157650183Y-38239297D01*
X157656215Y-38232819D01*
X157813535Y-38075499D01*
X158196460Y-37692575D01*
X158229130Y-37635988D01*
X158236021Y-37624053D01*
X158256500Y-37547626D01*
X158256500Y-36949833D01*
X158276185Y-36882794D01*
X158292819Y-36862152D01*
X158758152Y-36396819D01*
X158819475Y-36363334D01*
X158845833Y-36360500D01*
X159099503Y-36360500D01*
X159099505Y-36360500D01*
X159175932Y-36340021D01*
X159244454Y-36300460D01*
X159300403Y-36244511D01*
X164790460Y-30754454D01*
X164830021Y-30685932D01*
X164850500Y-30609505D01*
X164850500Y-30174500D01*
X164870185Y-30107461D01*
X164922989Y-30061706D01*
X164974500Y-30050500D01*
X165569750Y-30050500D01*
X165569751Y-30050499D01*
X165584568Y-30047552D01*
X165628229Y-30038868D01*
X165628229Y-30038867D01*
X165628231Y-30038867D01*
X165694552Y-29994552D01*
X165738867Y-29928231D01*
X165738867Y-29928229D01*
X165738868Y-29928229D01*
X165750499Y-29869752D01*
X165750500Y-29869750D01*
X165750500Y-27830249D01*
X165750499Y-27830247D01*
X165738868Y-27771770D01*
X165738867Y-27771769D01*
X165694552Y-27705447D01*
X165628230Y-27661132D01*
X165628229Y-27661131D01*
X165569752Y-27649500D01*
X165569748Y-27649500D01*
X163530252Y-27649500D01*
X163530247Y-27649500D01*
X163471770Y-27661131D01*
X163471769Y-27661132D01*
X163405447Y-27705447D01*
X163361132Y-27771769D01*
X163361131Y-27771770D01*
X163349500Y-27830247D01*
X163349500Y-29869752D01*
X163361131Y-29928229D01*
X163361132Y-29928230D01*
X163405447Y-29994552D01*
X163471769Y-30038867D01*
X163471770Y-30038868D01*
X163530247Y-30050499D01*
X163530250Y-30050500D01*
X163530252Y-30050500D01*
X164125500Y-30050500D01*
X164134185Y-30053050D01*
X164143147Y-30051762D01*
X164167187Y-30062740D01*
X164192539Y-30070185D01*
X164198466Y-30077025D01*
X164206703Y-30080787D01*
X164220992Y-30103021D01*
X164238294Y-30122989D01*
X164240581Y-30133503D01*
X164244477Y-30139565D01*
X164249500Y-30174500D01*
X164249500Y-30394109D01*
X164229815Y-30461148D01*
X164213181Y-30481790D01*
X159466210Y-35228760D01*
X159404887Y-35262245D01*
X159335195Y-35257261D01*
X159279262Y-35215389D01*
X159271142Y-35203080D01*
X159230500Y-35132686D01*
X159137314Y-35039500D01*
X159080250Y-35006554D01*
X159023187Y-34973608D01*
X158949496Y-34953863D01*
X158895892Y-34939500D01*
X158764108Y-34939500D01*
X158764104Y-34939500D01*
X158717115Y-34952091D01*
X158717114Y-34952091D01*
X158710497Y-34953863D01*
X158688664Y-34957198D01*
X158662075Y-34966837D01*
X158656933Y-34968215D01*
X158656919Y-34968220D01*
X158636813Y-34973608D01*
X158636803Y-34973612D01*
X158635133Y-34974577D01*
X158615417Y-34983754D01*
X158206349Y-35132074D01*
X158201404Y-35132942D01*
X158199017Y-35134477D01*
X158164082Y-35139500D01*
X157942360Y-35139500D01*
X157875321Y-35119815D01*
X157829566Y-35067011D01*
X157824088Y-35048842D01*
X157823663Y-35048981D01*
X157820647Y-35039699D01*
X157820646Y-35039697D01*
X157820646Y-35039696D01*
X157763050Y-34926658D01*
X157763046Y-34926654D01*
X157763045Y-34926652D01*
X157673347Y-34836954D01*
X157673344Y-34836952D01*
X157673342Y-34836950D01*
X157596517Y-34797805D01*
X157560301Y-34779352D01*
X157466524Y-34764500D01*
X157003482Y-34764500D01*
X156922519Y-34777323D01*
X156909696Y-34779354D01*
X156796658Y-34836950D01*
X156796657Y-34836951D01*
X156796652Y-34836954D01*
X156706954Y-34926652D01*
X156706951Y-34926657D01*
X156649352Y-35039698D01*
X156634500Y-35133475D01*
X156634500Y-35746517D01*
X156642569Y-35797461D01*
X156649354Y-35840304D01*
X156706950Y-35953342D01*
X156706952Y-35953344D01*
X156706954Y-35953347D01*
X156796652Y-36043045D01*
X156796655Y-36043047D01*
X156796658Y-36043050D01*
X156886795Y-36088977D01*
X156897858Y-36099425D01*
X156911703Y-36105748D01*
X156922743Y-36122927D01*
X156937591Y-36136950D01*
X156941832Y-36152631D01*
X156949477Y-36164526D01*
X156954500Y-36199461D01*
X156954500Y-36270728D01*
X156934815Y-36337767D01*
X156886796Y-36381212D01*
X156816659Y-36416949D01*
X156816652Y-36416954D01*
X156726954Y-36506652D01*
X156726951Y-36506657D01*
X156669352Y-36619698D01*
X156654500Y-36713475D01*
X156654500Y-37326517D01*
X156665292Y-37394657D01*
X156669354Y-37420304D01*
X156726950Y-37533342D01*
X156726952Y-37533344D01*
X156726954Y-37533347D01*
X156816652Y-37623045D01*
X156816654Y-37623046D01*
X156816658Y-37623050D01*
X156929696Y-37680646D01*
X156929698Y-37680647D01*
X157023474Y-37695499D01*
X157023475Y-37695499D01*
X157023481Y-37695500D01*
X157044228Y-37695499D01*
X157111265Y-37715181D01*
X157157022Y-37767983D01*
X157166969Y-37837141D01*
X157137946Y-37900698D01*
X157131912Y-37907180D01*
X157075547Y-37963544D01*
X156951910Y-38087182D01*
X156890590Y-38120666D01*
X156864231Y-38123500D01*
X156382255Y-38123500D01*
X156315216Y-38103815D01*
X156269461Y-38051011D01*
X156259517Y-37981853D01*
X156288542Y-37918297D01*
X156292672Y-37913861D01*
X156293042Y-37913349D01*
X156293050Y-37913342D01*
X156350646Y-37800304D01*
X156350646Y-37800302D01*
X156350647Y-37800301D01*
X156365499Y-37706524D01*
X156365500Y-37706519D01*
X156365499Y-37243482D01*
X156350646Y-37149696D01*
X156293050Y-37036658D01*
X156293046Y-37036654D01*
X156293045Y-37036652D01*
X156203347Y-36946954D01*
X156203344Y-36946952D01*
X156203342Y-36946950D01*
X156126517Y-36907805D01*
X156090301Y-36889352D01*
X155996524Y-36874500D01*
X155383482Y-36874500D01*
X155302519Y-36887323D01*
X155289696Y-36889354D01*
X155176658Y-36946950D01*
X155176657Y-36946951D01*
X155176652Y-36946954D01*
X155086954Y-37036652D01*
X155086951Y-37036657D01*
X155086950Y-37036658D01*
X155051212Y-37106796D01*
X155003239Y-37157591D01*
X154940729Y-37174500D01*
X154624500Y-37174500D01*
X154557461Y-37154815D01*
X154511706Y-37102011D01*
X154500500Y-37050500D01*
X154500500Y-36500249D01*
X154500499Y-36500247D01*
X154488868Y-36441770D01*
X154488867Y-36441769D01*
X154444552Y-36375448D01*
X154422181Y-36360500D01*
X154411108Y-36353101D01*
X154366304Y-36299490D01*
X154357597Y-36230166D01*
X154387751Y-36167138D01*
X154411109Y-36146898D01*
X154444552Y-36124552D01*
X154488867Y-36058231D01*
X154488867Y-36058229D01*
X154488868Y-36058229D01*
X154500499Y-35999752D01*
X154500500Y-35999750D01*
X154500500Y-35864500D01*
X154520185Y-35797461D01*
X154572989Y-35751706D01*
X154624500Y-35740500D01*
X154877640Y-35740500D01*
X154944679Y-35760185D01*
X154990434Y-35812989D01*
X154995911Y-35831157D01*
X154996337Y-35831019D01*
X154999352Y-35840300D01*
X154999353Y-35840303D01*
X154999354Y-35840304D01*
X155056950Y-35953342D01*
X155056952Y-35953344D01*
X155056954Y-35953347D01*
X155146652Y-36043045D01*
X155146654Y-36043046D01*
X155146658Y-36043050D01*
X155257300Y-36099425D01*
X155259698Y-36100647D01*
X155353475Y-36115499D01*
X155353481Y-36115500D01*
X155816518Y-36115499D01*
X155910304Y-36100646D01*
X156023342Y-36043050D01*
X156113050Y-35953342D01*
X156170646Y-35840304D01*
X156170646Y-35840302D01*
X156170647Y-35840301D01*
X156182739Y-35763950D01*
X156185500Y-35746519D01*
X156185499Y-35133482D01*
X156170646Y-35039696D01*
X156113050Y-34926658D01*
X156113046Y-34926654D01*
X156113045Y-34926652D01*
X156023347Y-34836954D01*
X156023344Y-34836952D01*
X156023342Y-34836950D01*
X155946517Y-34797805D01*
X155910301Y-34779352D01*
X155816524Y-34764500D01*
X155353482Y-34764500D01*
X155272519Y-34777323D01*
X155259696Y-34779354D01*
X155146658Y-34836950D01*
X155146657Y-34836951D01*
X155146652Y-34836954D01*
X155056954Y-34926652D01*
X155056951Y-34926657D01*
X154999352Y-35039698D01*
X154996337Y-35048980D01*
X154993825Y-35048163D01*
X154970180Y-35098037D01*
X154910866Y-35134966D01*
X154877640Y-35139500D01*
X154624500Y-35139500D01*
X154557461Y-35119815D01*
X154511706Y-35067011D01*
X154500500Y-35015500D01*
X154500500Y-33960249D01*
X154500499Y-33960247D01*
X154488868Y-33901770D01*
X154488867Y-33901769D01*
X154444552Y-33835448D01*
X154444551Y-33835447D01*
X154411108Y-33813101D01*
X154366304Y-33759490D01*
X154357597Y-33690166D01*
X154387751Y-33627138D01*
X154411109Y-33606898D01*
X154444552Y-33584552D01*
X154488867Y-33518231D01*
X154488867Y-33518229D01*
X154488868Y-33518229D01*
X154500499Y-33459752D01*
X154500500Y-33459750D01*
X154500500Y-32649500D01*
X154520185Y-32582461D01*
X154572989Y-32536706D01*
X154624500Y-32525500D01*
X154900728Y-32525500D01*
X154967767Y-32545185D01*
X155011212Y-32593204D01*
X155046949Y-32663340D01*
X155046954Y-32663347D01*
X155136652Y-32753045D01*
X155136654Y-32753046D01*
X155136658Y-32753050D01*
X155249696Y-32810646D01*
X155249698Y-32810647D01*
X155337116Y-32824491D01*
X155342843Y-32825399D01*
X155343475Y-32825499D01*
X155343481Y-32825500D01*
X155956518Y-32825499D01*
X155956519Y-32825499D01*
X155957435Y-32825354D01*
X155957787Y-32825399D01*
X155961380Y-32825117D01*
X155961439Y-32825871D01*
X156026729Y-32834305D01*
X156080183Y-32879298D01*
X156100827Y-32946048D01*
X156082106Y-33013363D01*
X156064521Y-33035507D01*
X155861847Y-33238181D01*
X155800524Y-33271666D01*
X155774166Y-33274500D01*
X155343482Y-33274500D01*
X155262519Y-33287323D01*
X155249696Y-33289354D01*
X155136658Y-33346950D01*
X155136657Y-33346951D01*
X155136652Y-33346954D01*
X155046954Y-33436652D01*
X155046951Y-33436657D01*
X154989352Y-33549698D01*
X154974500Y-33643475D01*
X154974500Y-34106517D01*
X154981410Y-34150144D01*
X154989354Y-34200304D01*
X155046950Y-34313342D01*
X155046952Y-34313344D01*
X155046954Y-34313347D01*
X155136652Y-34403045D01*
X155136654Y-34403046D01*
X155136658Y-34403050D01*
X155249694Y-34460645D01*
X155249698Y-34460647D01*
X155343475Y-34475499D01*
X155343481Y-34475500D01*
X155956518Y-34475499D01*
X156050304Y-34460646D01*
X156163342Y-34403050D01*
X156253050Y-34313342D01*
X156310646Y-34200304D01*
X156310646Y-34200302D01*
X156310647Y-34200301D01*
X156325037Y-34109440D01*
X156325500Y-34106519D01*
X156325499Y-33675832D01*
X156345183Y-33608794D01*
X156361818Y-33588152D01*
X156490222Y-33459748D01*
X156666460Y-33283511D01*
X156706022Y-33214988D01*
X156726500Y-33138562D01*
X156726500Y-33059438D01*
X156726500Y-23984832D01*
X156746185Y-23917793D01*
X156762814Y-23897156D01*
X160344606Y-20315363D01*
X160405927Y-20281880D01*
X160475619Y-20286864D01*
X160488572Y-20292558D01*
X160522555Y-20309873D01*
X160687299Y-20363402D01*
X160858389Y-20390500D01*
X160858390Y-20390500D01*
X161031610Y-20390500D01*
X161031611Y-20390500D01*
X161202701Y-20363402D01*
X161367445Y-20309873D01*
X161521788Y-20231232D01*
X161661928Y-20129414D01*
X161784414Y-20006928D01*
X161886232Y-19866788D01*
X161964873Y-19712445D01*
X162018402Y-19547701D01*
X162045500Y-19376611D01*
X162045500Y-19203389D01*
X162018402Y-19032299D01*
X161964873Y-18867555D01*
X161886232Y-18713212D01*
X161784414Y-18573072D01*
X161661928Y-18450586D01*
X161521788Y-18348768D01*
X161367445Y-18270127D01*
X161202701Y-18216598D01*
X161202699Y-18216597D01*
X161202698Y-18216597D01*
X161071271Y-18195781D01*
X161031611Y-18189500D01*
X160858389Y-18189500D01*
X160818728Y-18195781D01*
X160687302Y-18216597D01*
X160522552Y-18270128D01*
X160368211Y-18348768D01*
X160288256Y-18406859D01*
X160228072Y-18450586D01*
X160228070Y-18450588D01*
X160228069Y-18450588D01*
X160105588Y-18573069D01*
X160105588Y-18573070D01*
X160105586Y-18573072D01*
X160061859Y-18633256D01*
X160003768Y-18713211D01*
X159925128Y-18867552D01*
X159871597Y-19032302D01*
X159844500Y-19203389D01*
X159844500Y-19376610D01*
X159871597Y-19547697D01*
X159925126Y-19712442D01*
X159925130Y-19712452D01*
X159942437Y-19746419D01*
X159955333Y-19815089D01*
X159929056Y-19879829D01*
X159919633Y-19890394D01*
X156241489Y-23568540D01*
X156185541Y-23624487D01*
X156185535Y-23624495D01*
X156145982Y-23693004D01*
X156145979Y-23693009D01*
X156125500Y-23769439D01*
X156125500Y-31506078D01*
X156105815Y-31573117D01*
X156053011Y-31618872D01*
X155983853Y-31628816D01*
X155982103Y-31628551D01*
X155956525Y-31624500D01*
X155343482Y-31624500D01*
X155262519Y-31637323D01*
X155249696Y-31639354D01*
X155136658Y-31696950D01*
X155136657Y-31696951D01*
X155136652Y-31696954D01*
X155046954Y-31786652D01*
X155046951Y-31786657D01*
X155046950Y-31786658D01*
X155011212Y-31856796D01*
X154963239Y-31907591D01*
X154900729Y-31924500D01*
X154624500Y-31924500D01*
X154557461Y-31904815D01*
X154511706Y-31852011D01*
X154500500Y-31800500D01*
X154500500Y-31420249D01*
X154500499Y-31420247D01*
X154488868Y-31361770D01*
X154488867Y-31361769D01*
X154444552Y-31295448D01*
X154444551Y-31295447D01*
X154411108Y-31273101D01*
X154366304Y-31219490D01*
X154357597Y-31150166D01*
X154387751Y-31087138D01*
X154411109Y-31066898D01*
X154444552Y-31044552D01*
X154488867Y-30978231D01*
X154488867Y-30978229D01*
X154488868Y-30978229D01*
X154500499Y-30919752D01*
X154500500Y-30919750D01*
X154500500Y-28880249D01*
X154500499Y-28880247D01*
X154488868Y-28821770D01*
X154488867Y-28821769D01*
X154444552Y-28755448D01*
X154444551Y-28755447D01*
X154411108Y-28733101D01*
X154366304Y-28679490D01*
X154357597Y-28610166D01*
X154387751Y-28547138D01*
X154411109Y-28526898D01*
X154444552Y-28504552D01*
X154488867Y-28438231D01*
X154488867Y-28438229D01*
X154488868Y-28438229D01*
X154500499Y-28379752D01*
X154500500Y-28379750D01*
X154500500Y-26340249D01*
X154500499Y-26340247D01*
X154486485Y-26269790D01*
X154490462Y-26268998D01*
X154485414Y-26221962D01*
X154516700Y-26159488D01*
X154576795Y-26123846D01*
X154607440Y-26120000D01*
X155740000Y-26120000D01*
X155740000Y-14397582D01*
X155759685Y-14330543D01*
X155812489Y-14284788D01*
X155864000Y-14273582D01*
X168441390Y-14273582D01*
X168508429Y-14293267D01*
X168554184Y-14346071D01*
X168565390Y-14397582D01*
X168565390Y-80173582D01*
X168545705Y-80240621D01*
X168492901Y-80286376D01*
X168441390Y-80297582D01*
X104270390Y-80297582D01*
X104203351Y-80277897D01*
X104157596Y-80225093D01*
X104146390Y-80173582D01*
X104146390Y-49508681D01*
X116364500Y-49508681D01*
X116364500Y-49851318D01*
X116402858Y-50191768D01*
X116402861Y-50191782D01*
X116479102Y-50525816D01*
X116479103Y-50525818D01*
X116592264Y-50849216D01*
X116740922Y-51157907D01*
X116740924Y-51157910D01*
X116923211Y-51448018D01*
X117136834Y-51715893D01*
X117379107Y-51958166D01*
X117646982Y-52171789D01*
X117937090Y-52354076D01*
X118245785Y-52502736D01*
X118569183Y-52615897D01*
X118903217Y-52692139D01*
X118903226Y-52692140D01*
X118903231Y-52692141D01*
X119130197Y-52717713D01*
X119243682Y-52730499D01*
X119243685Y-52730500D01*
X119243688Y-52730500D01*
X119586315Y-52730500D01*
X119586316Y-52730499D01*
X119760311Y-52710895D01*
X119926768Y-52692141D01*
X119926771Y-52692140D01*
X119926783Y-52692139D01*
X120260817Y-52615897D01*
X120584215Y-52502736D01*
X120892910Y-52354076D01*
X121183018Y-52171789D01*
X121450893Y-51958166D01*
X121693166Y-51715893D01*
X121906789Y-51448018D01*
X122089076Y-51157910D01*
X122237736Y-50849215D01*
X122350897Y-50525817D01*
X122427139Y-50191783D01*
X122465500Y-49851312D01*
X122465500Y-49508688D01*
X122447421Y-49348229D01*
X122427141Y-49168231D01*
X122427140Y-49168226D01*
X122427139Y-49168217D01*
X122350897Y-48834183D01*
X122237736Y-48510785D01*
X122089076Y-48202090D01*
X121906789Y-47911982D01*
X121693166Y-47644107D01*
X121450893Y-47401834D01*
X121183018Y-47188211D01*
X120892910Y-47005924D01*
X120892907Y-47005922D01*
X120584216Y-46857264D01*
X120260818Y-46744103D01*
X120260816Y-46744102D01*
X120003024Y-46685262D01*
X119926783Y-46667861D01*
X119926780Y-46667860D01*
X119926768Y-46667858D01*
X119586318Y-46629500D01*
X119586312Y-46629500D01*
X119243688Y-46629500D01*
X119243681Y-46629500D01*
X118903231Y-46667858D01*
X118903217Y-46667861D01*
X118569183Y-46744102D01*
X118569181Y-46744103D01*
X118245783Y-46857264D01*
X117937092Y-47005922D01*
X117646983Y-47188210D01*
X117379107Y-47401833D01*
X117136833Y-47644107D01*
X116923210Y-47911983D01*
X116740922Y-48202092D01*
X116592264Y-48510783D01*
X116479103Y-48834181D01*
X116479102Y-48834183D01*
X116402861Y-49168217D01*
X116402858Y-49168231D01*
X116364500Y-49508681D01*
X104146390Y-49508681D01*
X104146390Y-34260730D01*
X112194500Y-34260730D01*
X112194500Y-35069269D01*
X112197353Y-35099699D01*
X112197353Y-35099701D01*
X112242206Y-35227880D01*
X112242207Y-35227882D01*
X112322850Y-35337150D01*
X112432118Y-35417793D01*
X112474845Y-35432744D01*
X112560299Y-35462646D01*
X112590730Y-35465500D01*
X112590734Y-35465500D01*
X114399270Y-35465500D01*
X114429699Y-35462646D01*
X114429701Y-35462646D01*
X114493790Y-35440219D01*
X114557882Y-35417793D01*
X114667150Y-35337150D01*
X114747793Y-35227882D01*
X114780825Y-35133482D01*
X114792646Y-35099701D01*
X114792646Y-35099699D01*
X114795500Y-35069269D01*
X114795500Y-34945833D01*
X114815185Y-34878794D01*
X114831819Y-34858152D01*
X115449252Y-34240719D01*
X116394500Y-34240719D01*
X116394500Y-39649280D01*
X116397352Y-39679697D01*
X116397354Y-39679709D01*
X116439694Y-39800706D01*
X116442206Y-39807884D01*
X116468214Y-39843124D01*
X116522848Y-39917151D01*
X116577482Y-39957472D01*
X116632116Y-39997794D01*
X116671142Y-40011449D01*
X116760290Y-40042645D01*
X116760294Y-40042645D01*
X116760298Y-40042647D01*
X116775511Y-40044073D01*
X116790720Y-40045500D01*
X116790724Y-40045500D01*
X117140500Y-40045500D01*
X117207539Y-40065185D01*
X117253294Y-40117989D01*
X117264500Y-40169500D01*
X117264500Y-41255500D01*
X117244815Y-41322539D01*
X117192011Y-41368294D01*
X117140500Y-41379500D01*
X116695247Y-41379500D01*
X116636770Y-41391131D01*
X116636769Y-41391132D01*
X116570447Y-41435447D01*
X116526132Y-41501769D01*
X116526131Y-41501770D01*
X116514500Y-41560247D01*
X116514500Y-45099752D01*
X116526131Y-45158229D01*
X116526132Y-45158230D01*
X116570447Y-45224552D01*
X116636769Y-45268867D01*
X116636770Y-45268868D01*
X116695247Y-45280499D01*
X116695250Y-45280500D01*
X116695252Y-45280500D01*
X119434750Y-45280500D01*
X119434751Y-45280499D01*
X119449568Y-45277552D01*
X119493229Y-45268868D01*
X119493229Y-45268867D01*
X119493231Y-45268867D01*
X119559552Y-45224552D01*
X119603867Y-45158231D01*
X119603867Y-45158229D01*
X119603868Y-45158229D01*
X119615499Y-45099752D01*
X119615500Y-45099750D01*
X119615500Y-41560249D01*
X119615499Y-41560247D01*
X119603868Y-41501770D01*
X119603867Y-41501769D01*
X119559552Y-41435447D01*
X119493230Y-41391132D01*
X119493229Y-41391131D01*
X119434752Y-41379500D01*
X119434748Y-41379500D01*
X118989500Y-41379500D01*
X118922461Y-41359815D01*
X118876706Y-41307011D01*
X118865500Y-41255500D01*
X118865500Y-40169500D01*
X118885185Y-40102461D01*
X118937989Y-40056706D01*
X118989500Y-40045500D01*
X122799280Y-40045500D01*
X122812798Y-40044232D01*
X122829702Y-40042647D01*
X122829706Y-40042645D01*
X122829709Y-40042645D01*
X122879831Y-40025105D01*
X122957884Y-39997794D01*
X123067151Y-39917151D01*
X123147794Y-39807884D01*
X123192647Y-39679702D01*
X123195146Y-39653050D01*
X123195500Y-39649280D01*
X123195500Y-34240719D01*
X123192647Y-34210302D01*
X123192647Y-34210298D01*
X123192645Y-34210294D01*
X123192645Y-34210290D01*
X123147794Y-34082117D01*
X123147794Y-34082116D01*
X123089056Y-34002529D01*
X123067151Y-33972848D01*
X122993124Y-33918214D01*
X122957884Y-33892206D01*
X122957882Y-33892205D01*
X122829709Y-33847354D01*
X122829697Y-33847352D01*
X122799280Y-33844500D01*
X122799276Y-33844500D01*
X116790724Y-33844500D01*
X116790720Y-33844500D01*
X116760302Y-33847352D01*
X116760290Y-33847354D01*
X116632117Y-33892205D01*
X116522848Y-33972848D01*
X116442205Y-34082117D01*
X116397354Y-34210290D01*
X116397352Y-34210302D01*
X116394500Y-34240719D01*
X115449252Y-34240719D01*
X115539827Y-34150144D01*
X116483151Y-33206819D01*
X116544474Y-33173334D01*
X116570832Y-33170500D01*
X116660890Y-33170500D01*
X116660892Y-33170500D01*
X116788186Y-33136392D01*
X116902314Y-33070500D01*
X116995500Y-32977314D01*
X117061392Y-32863186D01*
X117095500Y-32735892D01*
X117095500Y-32604108D01*
X117061392Y-32476814D01*
X116995500Y-32362686D01*
X116902314Y-32269500D01*
X116845250Y-32236554D01*
X116788187Y-32203608D01*
X116724539Y-32186554D01*
X116660892Y-32169500D01*
X116529108Y-32169500D01*
X116401812Y-32203608D01*
X116287686Y-32269500D01*
X116287683Y-32269502D01*
X116194502Y-32362683D01*
X116194500Y-32362686D01*
X116128608Y-32476812D01*
X116094500Y-32604108D01*
X116094500Y-32694166D01*
X116074815Y-32761205D01*
X116058181Y-32781847D01*
X114917638Y-33922390D01*
X114856315Y-33955875D01*
X114786623Y-33950891D01*
X114767957Y-33942096D01*
X114720991Y-33914980D01*
X114720990Y-33914979D01*
X114695513Y-33908152D01*
X114644562Y-33894500D01*
X114644560Y-33894500D01*
X114528348Y-33894500D01*
X114487394Y-33887542D01*
X114429697Y-33867353D01*
X114399270Y-33864500D01*
X114399266Y-33864500D01*
X112590734Y-33864500D01*
X112590730Y-33864500D01*
X112560300Y-33867353D01*
X112560298Y-33867353D01*
X112432119Y-33912206D01*
X112432117Y-33912207D01*
X112322850Y-33992850D01*
X112242207Y-34102117D01*
X112242206Y-34102119D01*
X112197353Y-34230298D01*
X112197353Y-34230300D01*
X112194500Y-34260730D01*
X104146390Y-34260730D01*
X104146390Y-17802944D01*
X104939500Y-17802944D01*
X104939500Y-18137056D01*
X104947334Y-18216597D01*
X104972247Y-18469548D01*
X104972250Y-18469565D01*
X105037425Y-18797230D01*
X105037428Y-18797241D01*
X105134418Y-19116977D01*
X105262278Y-19425656D01*
X105262280Y-19425661D01*
X105419769Y-19720303D01*
X105419780Y-19720321D01*
X105605393Y-19998109D01*
X105605403Y-19998123D01*
X105817361Y-20256395D01*
X106053604Y-20492638D01*
X106053609Y-20492642D01*
X106053610Y-20492643D01*
X106311882Y-20704601D01*
X106589685Y-20890224D01*
X106589694Y-20890229D01*
X106589696Y-20890230D01*
X106884338Y-21047719D01*
X106884340Y-21047719D01*
X106884346Y-21047723D01*
X107193024Y-21175582D01*
X107512749Y-21272569D01*
X107512755Y-21272570D01*
X107512758Y-21272571D01*
X107512769Y-21272574D01*
X107718243Y-21313444D01*
X107840441Y-21337751D01*
X108172944Y-21370500D01*
X108172947Y-21370500D01*
X108507053Y-21370500D01*
X108507056Y-21370500D01*
X108839559Y-21337751D01*
X109001757Y-21305487D01*
X109167230Y-21272574D01*
X109167241Y-21272571D01*
X109167241Y-21272570D01*
X109167251Y-21272569D01*
X109486976Y-21175582D01*
X109795654Y-21047723D01*
X110090315Y-20890224D01*
X110368118Y-20704601D01*
X110626390Y-20492643D01*
X110862643Y-20256390D01*
X111074601Y-19998118D01*
X111260224Y-19720315D01*
X111417723Y-19425654D01*
X111545582Y-19116976D01*
X111642569Y-18797251D01*
X111642571Y-18797241D01*
X111642574Y-18797230D01*
X111687161Y-18573070D01*
X111707751Y-18469559D01*
X111740500Y-18137056D01*
X111740500Y-17802944D01*
X111707751Y-17470441D01*
X111683444Y-17348243D01*
X111642574Y-17142769D01*
X111642571Y-17142758D01*
X111642570Y-17142755D01*
X111642569Y-17142749D01*
X111545582Y-16823024D01*
X111417723Y-16514346D01*
X111260224Y-16219685D01*
X111074601Y-15941882D01*
X110862643Y-15683610D01*
X110862642Y-15683609D01*
X110862638Y-15683604D01*
X110626395Y-15447361D01*
X110368123Y-15235403D01*
X110368122Y-15235402D01*
X110368118Y-15235399D01*
X110090315Y-15049776D01*
X110090310Y-15049773D01*
X110090303Y-15049769D01*
X109795661Y-14892280D01*
X109795656Y-14892278D01*
X109486977Y-14764418D01*
X109167241Y-14667428D01*
X109167230Y-14667425D01*
X108839565Y-14602250D01*
X108839548Y-14602247D01*
X108588108Y-14577483D01*
X108507056Y-14569500D01*
X108172944Y-14569500D01*
X108097982Y-14576883D01*
X107840451Y-14602247D01*
X107840434Y-14602250D01*
X107512769Y-14667425D01*
X107512758Y-14667428D01*
X107193022Y-14764418D01*
X106884343Y-14892278D01*
X106884338Y-14892280D01*
X106589696Y-15049769D01*
X106589678Y-15049780D01*
X106311890Y-15235393D01*
X106311876Y-15235403D01*
X106053604Y-15447361D01*
X105817361Y-15683604D01*
X105605403Y-15941876D01*
X105605393Y-15941890D01*
X105419780Y-16219678D01*
X105419769Y-16219696D01*
X105262280Y-16514338D01*
X105262278Y-16514343D01*
X105134418Y-16823022D01*
X105037428Y-17142758D01*
X105037425Y-17142769D01*
X104972250Y-17470434D01*
X104972247Y-17470451D01*
X104946883Y-17727982D01*
X104939500Y-17802944D01*
X104146390Y-17802944D01*
X104146390Y-14397582D01*
X104166075Y-14330543D01*
X104218879Y-14284788D01*
X104270390Y-14273582D01*
X125346000Y-14273582D01*
X125413039Y-14293267D01*
G37*
%TD.AperFunction*%
%TA.AperFunction,Conductor*%
G36*
X164832539Y-59650185D02*
G01*
X164878294Y-59702989D01*
X164889500Y-59754500D01*
X164889500Y-66156167D01*
X164869815Y-66223206D01*
X164853181Y-66243848D01*
X154562181Y-76534848D01*
X154500858Y-76568333D01*
X154431166Y-76563349D01*
X154375233Y-76521477D01*
X154350816Y-76456013D01*
X154350500Y-76447167D01*
X154350500Y-74750249D01*
X154350499Y-74750247D01*
X154338868Y-74691770D01*
X154338867Y-74691769D01*
X154294552Y-74625447D01*
X154228230Y-74581132D01*
X154228229Y-74581131D01*
X154169752Y-74569500D01*
X154169748Y-74569500D01*
X152430252Y-74569500D01*
X152430247Y-74569500D01*
X152371770Y-74581131D01*
X152371769Y-74581132D01*
X152305447Y-74625447D01*
X152261132Y-74691769D01*
X152261131Y-74691770D01*
X152249500Y-74750247D01*
X152249500Y-76489752D01*
X152261131Y-76548229D01*
X152261132Y-76548230D01*
X152305447Y-76614552D01*
X152371769Y-76658867D01*
X152371770Y-76658868D01*
X152430247Y-76670499D01*
X152430250Y-76670500D01*
X154127167Y-76670500D01*
X154194206Y-76690185D01*
X154239961Y-76742989D01*
X154249905Y-76812147D01*
X154220880Y-76875703D01*
X154214848Y-76882181D01*
X153077848Y-78019181D01*
X153016525Y-78052666D01*
X152990167Y-78055500D01*
X146500184Y-78055500D01*
X146433145Y-78035815D01*
X146387390Y-77983011D01*
X146377446Y-77913853D01*
X146406471Y-77850297D01*
X146438186Y-77824112D01*
X146441175Y-77822385D01*
X146444511Y-77820460D01*
X146500460Y-77764511D01*
X151887819Y-72377152D01*
X151949142Y-72343667D01*
X152018834Y-72348651D01*
X152074767Y-72390523D01*
X152099184Y-72455987D01*
X152099500Y-72464833D01*
X152099500Y-74099752D01*
X152111131Y-74158229D01*
X152111132Y-74158230D01*
X152155447Y-74224552D01*
X152221769Y-74268867D01*
X152221770Y-74268868D01*
X152280247Y-74280499D01*
X152280250Y-74280500D01*
X152280252Y-74280500D01*
X154319750Y-74280500D01*
X154319751Y-74280499D01*
X154334568Y-74277552D01*
X154378229Y-74268868D01*
X154378229Y-74268867D01*
X154378231Y-74268867D01*
X154444552Y-74224552D01*
X154488867Y-74158231D01*
X154488867Y-74158229D01*
X154488868Y-74158229D01*
X154500499Y-74099752D01*
X154500500Y-74099750D01*
X154500500Y-72060249D01*
X154500499Y-72060247D01*
X154488868Y-72001770D01*
X154488867Y-72001769D01*
X154444552Y-71935448D01*
X154411108Y-71913101D01*
X154366304Y-71859490D01*
X154357597Y-71790166D01*
X154387751Y-71727138D01*
X154411106Y-71706899D01*
X154444552Y-71684552D01*
X154488867Y-71618231D01*
X154488867Y-71618229D01*
X154488868Y-71618229D01*
X154500499Y-71559752D01*
X154500500Y-71559750D01*
X154500500Y-69520249D01*
X154500499Y-69520247D01*
X154488868Y-69461770D01*
X154488867Y-69461769D01*
X154444552Y-69395448D01*
X154439046Y-69391769D01*
X154411108Y-69373101D01*
X154366304Y-69319490D01*
X154357597Y-69250166D01*
X154387751Y-69187138D01*
X154411109Y-69166898D01*
X154444552Y-69144552D01*
X154488867Y-69078231D01*
X154488867Y-69078229D01*
X154488868Y-69078229D01*
X154500499Y-69019752D01*
X154500500Y-69019750D01*
X154500500Y-68424500D01*
X154520185Y-68357461D01*
X154572989Y-68311706D01*
X154624500Y-68300500D01*
X157119496Y-68300500D01*
X157119498Y-68300500D01*
X157195925Y-68280021D01*
X157264447Y-68240460D01*
X157320396Y-68184511D01*
X163879460Y-61625447D01*
X163915971Y-61562207D01*
X163919021Y-61556925D01*
X163939500Y-61480498D01*
X163939500Y-59754500D01*
X163959185Y-59687461D01*
X164011989Y-59641706D01*
X164063500Y-59630500D01*
X164765500Y-59630500D01*
X164832539Y-59650185D01*
G37*
%TD.AperFunction*%
%TA.AperFunction,Conductor*%
G36*
X115422539Y-71195185D02*
G01*
X115468294Y-71247989D01*
X115479500Y-71299500D01*
X115479500Y-71370760D01*
X115489426Y-71438891D01*
X115540803Y-71543985D01*
X115623514Y-71626696D01*
X115623515Y-71626696D01*
X115623517Y-71626698D01*
X115728607Y-71678073D01*
X115757646Y-71682304D01*
X115796739Y-71688000D01*
X116005166Y-71688000D01*
X116072205Y-71707685D01*
X116117960Y-71760489D01*
X116127904Y-71829647D01*
X116098879Y-71893203D01*
X116092847Y-71899681D01*
X115908347Y-72084181D01*
X115847024Y-72117666D01*
X115820666Y-72120500D01*
X114364500Y-72120500D01*
X114297461Y-72100815D01*
X114251706Y-72048011D01*
X114240500Y-71996500D01*
X114240500Y-71575683D01*
X114234069Y-71526832D01*
X114232615Y-71521845D01*
X114232751Y-71451976D01*
X114270639Y-71393271D01*
X114334251Y-71364369D01*
X114383750Y-71367365D01*
X114414108Y-71375500D01*
X114414110Y-71375500D01*
X114545890Y-71375500D01*
X114545892Y-71375500D01*
X114673186Y-71341392D01*
X114787314Y-71275500D01*
X114850995Y-71211819D01*
X114912318Y-71178334D01*
X114938676Y-71175500D01*
X115355500Y-71175500D01*
X115422539Y-71195185D01*
G37*
%TD.AperFunction*%
%TA.AperFunction,Conductor*%
G36*
X126642539Y-27965185D02*
G01*
X126688294Y-28017989D01*
X126699500Y-28069500D01*
X126699500Y-28379752D01*
X126711131Y-28438229D01*
X126711132Y-28438230D01*
X126755447Y-28504552D01*
X126788890Y-28526898D01*
X126833695Y-28580511D01*
X126842402Y-28649836D01*
X126812247Y-28712863D01*
X126788890Y-28733102D01*
X126755447Y-28755447D01*
X126711132Y-28821769D01*
X126711131Y-28821770D01*
X126699500Y-28880247D01*
X126699500Y-29415500D01*
X126679815Y-29482539D01*
X126627011Y-29528294D01*
X126575500Y-29539500D01*
X126252360Y-29539500D01*
X126185321Y-29519815D01*
X126139566Y-29467011D01*
X126134088Y-29448842D01*
X126133663Y-29448981D01*
X126130647Y-29439699D01*
X126130646Y-29439697D01*
X126130646Y-29439696D01*
X126073050Y-29326658D01*
X126073046Y-29326654D01*
X126073045Y-29326652D01*
X125983347Y-29236954D01*
X125983344Y-29236952D01*
X125983342Y-29236950D01*
X125906517Y-29197805D01*
X125870301Y-29179352D01*
X125776524Y-29164500D01*
X125313482Y-29164500D01*
X125232519Y-29177323D01*
X125219696Y-29179354D01*
X125106658Y-29236950D01*
X125106657Y-29236951D01*
X125106652Y-29236954D01*
X125016954Y-29326652D01*
X125016951Y-29326657D01*
X124959352Y-29439698D01*
X124944500Y-29533475D01*
X124944500Y-30146517D01*
X124950114Y-30181963D01*
X124959354Y-30240304D01*
X125016950Y-30353342D01*
X125016952Y-30353344D01*
X125016954Y-30353347D01*
X125106652Y-30443045D01*
X125106654Y-30443046D01*
X125106658Y-30443050D01*
X125219694Y-30500645D01*
X125219698Y-30500647D01*
X125313475Y-30515499D01*
X125313481Y-30515500D01*
X125776518Y-30515499D01*
X125870304Y-30500646D01*
X125983342Y-30443050D01*
X126073050Y-30353342D01*
X126130646Y-30240304D01*
X126130646Y-30240302D01*
X126130647Y-30240301D01*
X126133663Y-30231020D01*
X126136174Y-30231836D01*
X126159820Y-30181963D01*
X126219134Y-30145034D01*
X126252360Y-30140500D01*
X126575500Y-30140500D01*
X126642539Y-30160185D01*
X126688294Y-30212989D01*
X126699500Y-30264500D01*
X126699500Y-30919752D01*
X126711131Y-30978229D01*
X126711132Y-30978230D01*
X126755447Y-31044552D01*
X126788890Y-31066898D01*
X126833695Y-31120511D01*
X126842402Y-31189836D01*
X126812247Y-31252863D01*
X126788890Y-31273102D01*
X126755447Y-31295447D01*
X126711132Y-31361769D01*
X126711131Y-31361770D01*
X126699500Y-31420247D01*
X126699500Y-33459752D01*
X126711131Y-33518229D01*
X126711132Y-33518230D01*
X126755447Y-33584552D01*
X126788890Y-33606898D01*
X126833695Y-33660511D01*
X126842402Y-33729836D01*
X126812247Y-33792863D01*
X126788890Y-33813102D01*
X126755447Y-33835447D01*
X126711132Y-33901769D01*
X126711131Y-33901770D01*
X126699500Y-33960247D01*
X126699500Y-35999752D01*
X126711131Y-36058229D01*
X126711132Y-36058230D01*
X126755447Y-36124552D01*
X126788890Y-36146898D01*
X126833695Y-36200511D01*
X126842402Y-36269836D01*
X126812247Y-36332863D01*
X126788890Y-36353102D01*
X126755447Y-36375447D01*
X126711132Y-36441769D01*
X126711131Y-36441770D01*
X126699500Y-36500247D01*
X126699500Y-38539752D01*
X126711131Y-38598229D01*
X126711132Y-38598230D01*
X126755447Y-38664552D01*
X126788890Y-38686898D01*
X126833695Y-38740511D01*
X126842402Y-38809836D01*
X126812247Y-38872863D01*
X126788890Y-38893102D01*
X126755447Y-38915447D01*
X126711132Y-38981769D01*
X126711131Y-38981770D01*
X126699500Y-39040247D01*
X126699500Y-41079752D01*
X126711131Y-41138229D01*
X126711132Y-41138230D01*
X126755447Y-41204552D01*
X126788890Y-41226898D01*
X126833695Y-41280511D01*
X126842402Y-41349836D01*
X126812247Y-41412863D01*
X126788890Y-41433102D01*
X126755447Y-41455447D01*
X126711132Y-41521769D01*
X126711131Y-41521770D01*
X126699500Y-41580247D01*
X126699500Y-43619752D01*
X126711131Y-43678229D01*
X126711132Y-43678230D01*
X126755447Y-43744552D01*
X126788890Y-43766898D01*
X126833695Y-43820511D01*
X126842402Y-43889836D01*
X126812247Y-43952863D01*
X126788890Y-43973102D01*
X126755447Y-43995447D01*
X126711132Y-44061769D01*
X126711131Y-44061770D01*
X126699500Y-44120247D01*
X126699500Y-46159752D01*
X126711131Y-46218229D01*
X126711132Y-46218230D01*
X126755447Y-46284552D01*
X126788890Y-46306898D01*
X126833695Y-46360511D01*
X126842402Y-46429836D01*
X126812247Y-46492863D01*
X126788890Y-46513102D01*
X126755447Y-46535447D01*
X126711132Y-46601769D01*
X126711131Y-46601770D01*
X126699500Y-46660247D01*
X126699500Y-48699752D01*
X126711131Y-48758229D01*
X126711132Y-48758230D01*
X126755447Y-48824552D01*
X126788890Y-48846898D01*
X126833695Y-48900511D01*
X126842402Y-48969836D01*
X126812247Y-49032863D01*
X126788890Y-49053102D01*
X126755447Y-49075447D01*
X126711132Y-49141769D01*
X126711131Y-49141770D01*
X126699500Y-49200247D01*
X126699500Y-51239752D01*
X126711131Y-51298229D01*
X126711132Y-51298230D01*
X126755447Y-51364552D01*
X126788890Y-51386898D01*
X126833695Y-51440511D01*
X126842402Y-51509836D01*
X126812247Y-51572863D01*
X126788890Y-51593102D01*
X126755447Y-51615447D01*
X126711132Y-51681769D01*
X126711131Y-51681770D01*
X126699500Y-51740247D01*
X126699500Y-53779752D01*
X126711131Y-53838229D01*
X126711132Y-53838230D01*
X126755447Y-53904552D01*
X126788890Y-53926898D01*
X126833695Y-53980511D01*
X126842402Y-54049836D01*
X126812247Y-54112863D01*
X126788890Y-54133102D01*
X126755447Y-54155447D01*
X126711132Y-54221769D01*
X126711131Y-54221770D01*
X126699500Y-54280247D01*
X126699500Y-55503472D01*
X126679815Y-55570511D01*
X126627011Y-55616266D01*
X126557853Y-55626210D01*
X126494297Y-55597185D01*
X126465016Y-55559768D01*
X126457634Y-55545282D01*
X126443050Y-55516658D01*
X126443047Y-55516655D01*
X126443045Y-55516652D01*
X126353347Y-55426954D01*
X126353344Y-55426952D01*
X126353342Y-55426950D01*
X126249246Y-55373910D01*
X126240301Y-55369352D01*
X126146524Y-55354500D01*
X125683482Y-55354500D01*
X125605849Y-55366795D01*
X125589696Y-55369354D01*
X125589695Y-55369354D01*
X125589691Y-55369355D01*
X125581820Y-55371913D01*
X125511979Y-55373910D01*
X125452146Y-55337831D01*
X125421317Y-55275130D01*
X125419500Y-55253983D01*
X125419500Y-34109440D01*
X125419499Y-34109436D01*
X125418717Y-34106519D01*
X125406122Y-34059511D01*
X125399022Y-34033012D01*
X125359460Y-33964489D01*
X124756819Y-33361848D01*
X124723334Y-33300525D01*
X124720500Y-33274167D01*
X124720500Y-32520730D01*
X124717646Y-32490300D01*
X124717646Y-32490298D01*
X124684006Y-32394163D01*
X124672793Y-32362118D01*
X124592150Y-32252850D01*
X124482882Y-32172207D01*
X124475146Y-32169500D01*
X124403544Y-32144445D01*
X124346769Y-32103723D01*
X124321022Y-32038770D01*
X124320500Y-32027404D01*
X124320500Y-30507254D01*
X124340185Y-30440215D01*
X124356814Y-30419577D01*
X124423050Y-30353342D01*
X124480646Y-30240304D01*
X124480646Y-30240302D01*
X124480647Y-30240301D01*
X124491282Y-30173147D01*
X124495500Y-30146519D01*
X124495499Y-29533482D01*
X124480646Y-29439696D01*
X124423050Y-29326658D01*
X124423046Y-29326654D01*
X124423045Y-29326652D01*
X124333347Y-29236954D01*
X124333343Y-29236951D01*
X124333342Y-29236950D01*
X124331582Y-29236053D01*
X124263204Y-29201212D01*
X124212408Y-29153237D01*
X124195500Y-29090728D01*
X124195500Y-28359486D01*
X124215185Y-28292447D01*
X124267989Y-28246692D01*
X124300100Y-28237013D01*
X124340304Y-28230646D01*
X124453342Y-28173050D01*
X124543050Y-28083342D01*
X124578787Y-28013203D01*
X124626761Y-27962409D01*
X124689271Y-27945500D01*
X126575500Y-27945500D01*
X126642539Y-27965185D01*
G37*
%TD.AperFunction*%
%TD*%
M02*
