%TF.GenerationSoftware,KiCad,Pcbnew,9.0.5*%
%TF.CreationDate,2025-10-15T19:52:11-07:00*%
%TF.ProjectId,MouseTrapToF-Cam1.1,4d6f7573-6554-4726-9170-546f462d4361,rev?*%
%TF.SameCoordinates,Original*%
%TF.FileFunction,Soldermask,Bot*%
%TF.FilePolarity,Negative*%
%FSLAX46Y46*%
G04 Gerber Fmt 4.6, Leading zero omitted, Abs format (unit mm)*
G04 Created by KiCad (PCBNEW 9.0.5) date 2025-10-15 19:52:11*
%MOMM*%
%LPD*%
G01*
G04 APERTURE LIST*
%ADD10C,6.400000*%
%ADD11C,0.650000*%
%ADD12O,2.100000X1.000000*%
%ADD13O,1.600000X1.000000*%
%ADD14R,1.700000X1.700000*%
%ADD15C,1.700000*%
%ADD16R,2.000000X2.000000*%
%ADD17R,2.250000X2.250000*%
%ADD18C,2.250000*%
%ADD19R,1.800000X1.800000*%
%ADD20C,1.800000*%
%ADD21C,2.000000*%
G04 APERTURE END LIST*
D10*
%TO.C,REF\u002A\u002A*%
X161810000Y-75400000D03*
%TD*%
%TO.C,REF\u002A\u002A*%
X108340000Y-17970000D03*
%TD*%
D11*
%TO.C,J1*%
X110450000Y-64980000D03*
X110450000Y-70760000D03*
D12*
X110980000Y-63550000D03*
D13*
X106800000Y-63550000D03*
D12*
X110980000Y-72190000D03*
D13*
X106800000Y-72190000D03*
%TD*%
D14*
%TO.C,J4*%
X153300000Y-75620000D03*
D15*
X153300000Y-73080000D03*
X153300000Y-70540000D03*
X153300000Y-68000000D03*
X153300000Y-65460000D03*
X153300000Y-62920000D03*
X153300000Y-60380000D03*
X153300000Y-57840000D03*
X153300000Y-55300000D03*
X153300000Y-52760000D03*
X153300000Y-50220000D03*
X153300000Y-47680000D03*
X153300000Y-45140000D03*
X153300000Y-42600000D03*
X153300000Y-40060000D03*
X153300000Y-37520000D03*
X153300000Y-34980000D03*
X153300000Y-32440000D03*
X153300000Y-29900000D03*
X153300000Y-27360000D03*
%TD*%
D14*
%TO.C,J3*%
X127900000Y-75620000D03*
D15*
X127900000Y-73080000D03*
X127900000Y-70540000D03*
X127900000Y-68000000D03*
X127900000Y-65460000D03*
X127900000Y-62920000D03*
X127900000Y-60380000D03*
X127900000Y-57840000D03*
X127900000Y-55300000D03*
X127900000Y-52760000D03*
X127900000Y-50220000D03*
X127900000Y-47680000D03*
X127900000Y-45140000D03*
X127900000Y-42600000D03*
X127900000Y-40060000D03*
X127900000Y-37520000D03*
X127900000Y-34980000D03*
X127900000Y-32440000D03*
X127900000Y-29900000D03*
X127900000Y-27360000D03*
%TD*%
D16*
%TO.C,U2*%
X127900000Y-75620000D03*
X127900000Y-73080000D03*
X127900000Y-70540000D03*
X127900000Y-68000000D03*
X127900000Y-65460000D03*
X127900000Y-62920000D03*
X127900000Y-60380000D03*
X127900000Y-57840000D03*
X127900000Y-55300000D03*
X127900000Y-52760000D03*
X127900000Y-50220000D03*
X127900000Y-47680000D03*
X127900000Y-45140000D03*
X127900000Y-42600000D03*
X127900000Y-40060000D03*
X127900000Y-37520000D03*
X127900000Y-34980000D03*
X127900000Y-32440000D03*
X127900000Y-29900000D03*
X127900000Y-27360000D03*
X153300000Y-75620000D03*
X153300000Y-73080000D03*
X153300000Y-70540000D03*
X153300000Y-68000000D03*
X153300000Y-65460000D03*
X153300000Y-62920000D03*
X153300000Y-60380000D03*
X153300000Y-57840000D03*
X153300000Y-55300000D03*
X153300000Y-52760000D03*
X153300000Y-50220000D03*
X153300000Y-47680000D03*
X153300000Y-45140000D03*
X153300000Y-42600000D03*
X153300000Y-40060000D03*
X153300000Y-37520000D03*
X153300000Y-34980000D03*
X153300000Y-32440000D03*
X153300000Y-29900000D03*
X153300000Y-27360000D03*
%TD*%
D17*
%TO.C,SW1*%
X117380000Y-24120000D03*
D18*
X110880000Y-24120000D03*
%TD*%
D19*
%TO.C,D1*%
X163485000Y-19290000D03*
D20*
X160945000Y-19290000D03*
%TD*%
D16*
%TO.C,BZ1*%
X164550000Y-28850000D03*
D21*
X159550000Y-28850000D03*
%TD*%
M02*
